<svg xmlns="http://www.w3.org/2000/svg">
<defs>
<font id="Alpha54" horiz-adv-x="970">
   <font-face underline-position="-100" font-weight="400" descent="-410" panose-1="2 0 0 0 0 0 0 0 0 0" units-per-em="2048" unicode-range="U+0020-FB05" bbox="-235.112 -810.255 2795 1981" x-height="748.5" underline-thickness="50" font-family="Alpha54" ascent="1638" cap-height="1536.5"/>

<glyph glyph-name=".notdef" d="M1212 61l-20 5l-10 4l-17 -7l-37 5l-81 -5l-86 -2l-31 7l-27 8v6q-29 -12 -69 -12l-80 -2h-31q-4 0 -11 1t-22 1h-49h-53l-15 -2h-12h-10l-6 -7q-10 -2 -25.5 -2h-36.5h-12h-14l-15 -2h-14h-16l-47 -2h-25l-23 2q-2 0 -5 1t-11 1h-16l-56 -4q-4 0 -8 -2h-8h-12h-25h-4 l-10 2h-12h-7h-6l-28 -2l-29 -2l-25 6q-10 4 -10 23l2 24q41 15 119 25q39 4 65.5 7t42.5 7q31 4 50 11l26 2h23l55 8q37 10 53 18q21 19 21 29l-6 35v39q0 88 43 153q12 19 25.5 36.5t29.5 33.5t35.5 34.5t44.5 41.5q8 8 14 10q17 12 19 22l10 9q8 8 8 18l6 19l2 6l6 6l6 2 l64 37l49 28l6 11v8l-2 6l10 25q11 10 13 20l10 29q18 53 33 67l6 15l10 16l17 31l24 37l14 4q9 -6 9 -15l-2 -4v-6l4 -10l2 -6l6 12q6 14 6 25l12 -5l4 -34l2 -39l-2 -27l11 -8l12 -6l10 -4l25 -11l16 -6v-6h6l4 -12l11 -27l4 -10q8 -12 22 -20l2 -7l2 -10v-14 q0 -27 -8 -43v-6l-4 -11l-6 -4q-27 -10 -53 -10l-70 -2l-4 -45l-4 -31v-14l2 -10v-11l2 -28l-2 -41l-6 -45l-13 -56v-20l31 -6l35 -8q12 0 29 -7l28 -8l35 -12l6 -47l-12 -19l-55 7l-43 26l-60 4l-6 -116l29 -21l2 -22h4l27 -2l43 -5q10 -4 22 -7t23 -7l6 -24l8 -11l12 -12 l6 2h9l28 -4l27 -2q2 10 12 27l6 2l21 53l4 10l37 2l28 6q27 8 27 29l-20 22l-23 33l-129 10l4 35v56l2 75v72l2 61l2 52l21 102q14 53 43 119l37 70l43 67l6 14l4 11l26 -2l76 -23q60 -27 94 -27l-6 -28q-6 -19 -6 -31l53 -29l64 -39l100 -63l70 -47l113 -78l38 -25l29 -14 l-10 -59l-21 -82l-16 -53l-12 -58q-8 -39 -8 -92l-111 -2l-6 -8l-29 -10l-22 -17q-17 -12 -29 -20l8 -29q12 -18 14 -20l58 -4l2 -17l4 -8q27 0 45 1t29 3l10 -4q16 -6 20 -16l-2 -23q-4 -6 -8 -10l-6 -6l-29 -11q-34 -10 -39 -14q-96 -12 -211 -12l-186 6l-235 20zM911 113 q19 12 19 24l-10 21l-7 22l-4 29v27l-2 24q-8 8 -10 16l-2 29l-2 2q-8 15 -19 15l-6 2q4 -11 8.5 -21t6.5 -20q6 -23 6 -41l-4 -23l-6 -18q-11 -19 -31 -25l-2 -8h-6l8 -8h6l6 2q12 -2 23 -12l12 -15q6 -6 10 -14zM1305 68q129 -13 202 -13l66 -4h22l84 2l76 6l6 4l-14 5 q-4 2 -25 2q-34 6 -69 6l-33 4h-16h-41l-93 2q-61 0 -110 -6q-45 -2 -55 -8zM1878 92v6h-27l2 -16zM98 76l33 2q41 0 66 -10q10 2 24.5 3t32.5 1q14 4 23.5 3t19.5 -1h51q6 2 39 2h39l23 4l45 2l14 -2l29 -4l22 10l150 2h14l100 4v27h11q0 -6 4 -15l6 -12l4 -4h20l4 6 q15 0 21 10l-4 15l-4 14q-6 10 -17 17l-39 4q-6 4 -18 4l-25 -4l-20 -4v4l33 16l28 16q19 9 31 21q21 20 21 47q0 16 -11 47q-24 27 -45 39q-10 10 -24 14q-11 6 -23 6l4 7q25 0 54 -17l14 92l6 -2v-16v-64v-10l4 -6l4 -8l51 -2l68 -6l35 -4l26 -5l17 -2l6 -4h8v-4h10l-4 -4 l19 -6q10 -8 20 -8q4 0 9.5 -1t15.5 -1q-4 8 -4 20l-4 21l-31 10l-29 12l-22 4q-19 9 -43 13l-35 10l-25 8l4 12l17 47l6 17l10 14q23 35 23 68l-6 49q-5 10 -5 29l-2 20q0 29 15 53l108 6l19 15v8h-4l2 8v6l8 11v6l2 4l-4 18v6l-29 27l-2 -12l-10 -4l-37 14l-18 14l61 19 l-6 16l-55 25l-7 -9l-22 27l-8 27l-15 -2v-47h-4q-6 12 -6 28v68l-16 -23l-90 -172l-7 -47l-116 -71l-39 -64l-25 -23q-96 -67 -139 -148t-43 -167l6 -63l-22 -29q-41 -10 -97.5 -19.5t-128.5 -19.5l-110 -18l-88 -17v-10l4 -6l4 -2h20zM1065 82h53h8l2 2v16l-6 4l-59 9 l-14 22l-37 -2l-27 -4h-35l-22 -31l-4 -12l37 -10zM1389 98h59l57 -2l140 -4l98 -4h39h39l-25 47l-258 15l-240 8l-8 -17l-10 -14l-12 -23zM983 145l16 9l5 4l-5 14l-30 12q4 9 4 17l2 24v88l-8 -2l-54 2q-2 0 -2 -2v-6v-8l7 -31l10 -41q14 -41 14 -59l4 -6v-6l10 -2l5 -9z M1378 178q78 -16 138 -16h59l53 -2h103l-15 33l-74 10l-256 4zM1386 240l41 -11q13 -2 29.5 -3t38.5 -1h12l101 -2l131 -2l35 37l-15 2l-153 12l-111 2l-80 -2l-67 -6l6 -16zM1786 285l135 -9l31 140l20 98l21 78l-103 67l-139 91l-100 63l-78 49l-35 23l-147 -578l65 -2 l107 -4l34 -2l33 -6zM1362 281l53 182q25 82 43.5 147.5t30.5 114.5l27 113q4 18 8 42.5t8 55.5q-4 6 -23 12l-53 19l-45 16l-25 10l-20 -16q-29 -105 -51.5 -193t-38.5 -159q-10 -41 -17.5 -79t-15.5 -75q-6 -35 -13 -75t-13 -85v-12zM973 387l14 -2v61h-6l-14 -49z M1217 440l112 475q-14 -14 -29 -38l-26 -54q-21 -43 -35 -116l-12 -70l-6 -64l-2 -75zM1499 633q12 -4 25 -4h14l-22 -84l-35 6zM1509 559l13 59l-17 7l-16 -62zM1513 680q17 45 17 65l24 -2l17 -2h4l-29 -88l-39 6zM1528 668l10 -2l10 32l6 25l2 8l-16 4l-18 -63zM1104 809 l4 10v4l-4 8l-43 -8z" horiz-adv-x="2015"/>
   <glyph glyph-name="NULL" horiz-adv-x="0"/>
   <glyph glyph-name="nonmarkingreturn" horiz-adv-x="2048"/>
   <glyph glyph-name="space" horiz-adv-x="469" unicode=" "/>
   <glyph glyph-name="a" horiz-adv-x="954" unicode="a" d="M536 229q-61 -63 -125 -113.5t-141 -63.5q-92 -16 -163 53.5t-85 173.5q-17 125 67.5 256.5t238.5 220.5q103 60 181 42.5t108 -65.5q25 -41 85 -34q63 7 81.5 -40.5t-7.5 -110.5q-72 -176 -34 -221.5t132 31.5q26 21 44.5 10.5t11.5 -52.5q-45 -249 -186 -253.5 t-208 166.5zM467 577q-106 16 -174 -109q-39 -74 -24 -121t75 -47q111 1 164 111q25 51 14.5 105t-55.5 61z"/>
   <glyph glyph-name="d" horiz-adv-x="992" unicode="d" d="M519 229q-61 -63 -125 -113.5t-140 -63.5q-93 -16 -172 60t-75 165q5 125 77 258.5t227 220.5q87 49 159 17.5t102 -78.5q8 66 36 246t67 357q51 231 98 321.5t125 25.5q71 -60 54.5 -181.5t-102.5 -426.5q-27 -92 -44.5 -172.5t-28.5 -142.5q-6 -31 -19.5 -91 t-23.5 -123q-27 -150 10 -192t142 58q24 23 42.5 11.5t13.5 -53.5q-34 -260 -195 -267t-228 164zM450 577q-48 7 -97 -15.5t-82 -84.5q-40 -74 -22 -125.5t78 -51.5q111 1 165 111q24 51 13.5 105t-55.5 61z"/>
   <glyph glyph-name="b" horiz-adv-x="795" unicode="b" d="M282 29q-93 3 -179.5 138.5t-53.5 303.5q43 222 79.5 448t79.5 458q16 90 36 178t56 157q36 68 127.5 48t88.5 -93q-13 -265 -107 -501t-121 -484q31 34 112 94.5t168 33.5q123 -38 170.5 -173.5t-30.5 -286.5q-69 -136 -182 -232t-244 -89zM457 568q-74 18 -115 -34 t-58 -120q-54 -206 57 -202q97 4 156 131q35 74 34 140.5t-74 84.5z"/>
   <glyph glyph-name="c" horiz-adv-x="687" unicode="c" d="M535 554q-30 49 -80 65.5t-103 -25.5q-79 -63 -90.5 -166t56.5 -174q53 -56 120.5 -30t137.5 77q24 17 46 1t8 -52q-33 -88 -142 -150.5t-229 -62.5q-96 0 -166.5 78.5t-70.5 175.5q0 81 24 174.5t136 216.5q100 109 236.5 118t209.5 -55q82 -75 18 -164 q-69 -100 -111 -27z"/>
   <glyph glyph-name="e" horiz-adv-x="732" unicode="e" d="M323 41q-126 2 -214 91t-86 237q1 150 133 297t282 147q123 -1 198.5 -68.5t63.5 -155.5q-18 -127 -127 -165.5t-239 -18.5q-37 5 -44 -20q-15 -61 1 -85q42 -66 122 -73.5t214 70.5q27 15 41.5 -0.5t2.5 -51.5q-20 -63 -130 -134.5t-218 -69.5zM461 652 q-96 -11 -138 -88q-37 -65 55 -52h0.5h1.5q47 9 86 30t54 67q16 50 -59 43z"/>
   <glyph glyph-name="f" horiz-adv-x="602" unicode="f" d="M-9 -430q42 264 89.5 526.5t99.5 525.5q-90 25 -165 60q-32 66 30 94q40 -4 80.5 -7.5t81.5 -5.5q18 90 36.5 180.5t36.5 181.5q41 222 132 341.5t195 115.5q57 -3 75.5 -57t18.5 -111q0 -77 -30.5 -118t-66.5 -36q-15 2 -31 15.5t-39 58.5q-47 -64 -72 -234t-47 -342 q80 1 177 11q115 10 69 -103q-44 -107 -196 -94q-26 2 -76 8q-41 -269 -82 -536.5t-79 -536.5q-17 -117 -138 -96t-99 159z"/>
   <glyph glyph-name="g" horiz-adv-x="873" unicode="g" d="M139 62q-53 37 -89 110.5t-31 134.5q4 62 50.5 145.5t117 159.5t155.5 129t166 55q60 1 109 -27.5t75 -59.5q32 -41 88 -29q73 15 59 -98q-15 -123 -74 -124q-42 0 -46 -46q-18 -160 -135 -257.5t-267 -122.5q-57 -9 -60.5 -39t56.5 -39q106 -15 277 -10.5t216 -111.5 q44 -115 24.5 -202t-72.5 -165q-189 -264 -474 -275q-122 -5 -218.5 88t-98.5 234q-3 163 124 274q-44 27 -42.5 88t90.5 188zM170 -254q-114 -144 -4 -250q86 -83 191.5 -77t211.5 90q57 45 62 104t-49 86q-94 45 -200.5 29.5t-211.5 17.5zM473 561q-94 -17 -138.5 -75 t-56.5 -127q-21 -119 88 -100q166 28 191 209q14 111 -84 93z"/>
   <glyph glyph-name="h" horiz-adv-x="997" unicode="h" d="M53 93q-36 45 -31 88t27 97q51 128 75.5 281t49.5 312q33 213 67.5 426.5t62.5 427.5q10 79 95 32q108 -62 124.5 -156t-11.5 -201q-48 -177 -91 -356t-93 -356q-45 -161 -34 -194.5t139 131.5q177 228 318 114q62 -51 56 -127t-25 -168q-20 -90 8.5 -88t84.5 56 q116 109 94 -30q-24 -144 -97 -228.5t-146 -92.5q-123 -15 -171.5 65.5t-8.5 233.5q20 78 3 96t-76 -45q-78 -84 -147.5 -173t-138.5 -177q-26 -33 -54.5 -33.5t-79.5 65.5z"/>
   <glyph glyph-name="i" horiz-adv-x="488" unicode="i" d="M96 703q37 95 155 38q66 -32 66 -70.5t-21 -90.5q-90 -219 -52.5 -260.5t171.5 89.5q43 42 53 29t4 -64q-21 -159 -111 -252q-134 -134 -234 -59t-108 211q-5 66 15 194t62 235zM250 929q-143 74 -91 224q31 89 108 74q74 -15 99.5 -80.5t25.5 -158.5q0 -84 -37 -90 t-105 31z"/>
   <glyph glyph-name="j" horiz-adv-x="481" unicode="j" d="M351 912q-40 -8 -87 39.5t-50 110.5q-3 51 15.5 97.5t81.5 52.5q58 5 97 -37t44 -94q13 -148 -101 -169zM66 425q-5 21 0 77t66 148q59 90 106.5 104t98.5 -16q96 -58 113.5 -150t5.5 -200q-26 -222 -74 -439t-107 -435q-34 -125 -70.5 -176.5t-75.5 -79.5 q-63 -44 -92 -8t33 246q40 139 66 282.5t49 286.5q9 60 17.5 120t17.5 120q23 208 -78 46q-35 -60 -50.5 -14t-25.5 88z"/>
   <glyph glyph-name="k" horiz-adv-x="811" unicode="k" d="M52 100q-39 39 -36.5 86.5t31.5 131.5q97 286 149.5 633t98.5 710q5 39 26 78.5t73 24.5q210 -67 102 -445q-54 -191 -101 -384t-92 -386q-6 -26 7.5 -38t28.5 9q148 201 238 245.5t159 3.5q48 -29 43 -66.5t-37 -61.5q-63 -46 -134.5 -87.5t-102.5 -113.5q41 -60 98 -99 t122 -12q66 27 70 3.5t-3 -47.5q-50 -172 -102.5 -212.5t-115.5 15.5q-34 29 -65.5 61t-62.5 64q-29 30 -78 44.5t-121 -96.5q-63 -95 -94 -113.5t-101 52.5z"/>
   <glyph glyph-name="l" horiz-adv-x="553" unicode="l" d="M410 348q63 52 79.5 27.5t6.5 -101.5q-22 -151 -109 -205q-122 -77 -188 -52.5t-96 99t-34 173t1 169.5q8 157 43.5 371.5t107.5 495.5q48 190 100.5 288.5t115.5 68.5q99 -48 81.5 -169.5t-56.5 -250.5q-73 -242 -131.5 -449.5t-82.5 -391.5q-16 -121 31 -132t131 59z "/>
   <glyph glyph-name="m" horiz-adv-x="1410" unicode="m" d="M80 126q-51 59 -54 156.5t63 271.5q63 172 88 196.5t100 -36.5q51 -42 42.5 -107.5t-50.5 -157.5q-30 -64 -4 -56.5t42 40.5q91 188 184.5 281t190.5 23q59 -43 62 -103t-7 -135q-10 -69 34 -24q150 156 212.5 233.5t164.5 7.5q82 -58 71 -131t-35 -165 q-28 -104 11.5 -95.5t112.5 95.5q45 54 64.5 40t4.5 -80q-45 -195 -164 -280.5t-208 -31.5q-94 55 -33 329q17 84 -53 17q-76 -73 -141 -152t-119 -157q-85 -121 -174 2q-37 53 0 152q75 204 31 202.5t-146 -177.5q-122 -210 -170 -226t-120 68z"/>
   <glyph glyph-name="n" horiz-adv-x="997" unicode="n" d="M73 554q-34 70 -13.5 135.5t71.5 68.5q69 3 145.5 -53t42.5 -199q-27 -118 45 -33q177 210 258.5 243t135.5 -9q62 -51 62 -123.5t-33 -158.5q-30 -75 -10.5 -95.5t94.5 54.5q110 110 78 -67q-15 -82 -59.5 -138t-101.5 -94q-143 -96 -216 50q-59 117 -9 244 q50 124 -63 26q-94 -83 -163.5 -169t-130.5 -176q-40 -59 -114 12q-66 63 -24 175q68 177 5 307z"/>
   <glyph glyph-name="o" horiz-adv-x="763" unicode="o" d="M21 328q0 172 132 313.5t279 151.5q115 7 212.5 -72.5t90.5 -229.5q-9 -193 -103 -319.5t-265 -153.5q-141 -21 -243.5 75t-102.5 235zM231 383q1 -85 52.5 -119t111.5 -27q136 15 146 190q3 61 -34.5 110t-118.5 57q-63 5 -111.5 -49t-45.5 -162z"/>
   <glyph glyph-name="p" horiz-adv-x="901" unicode="p" d="M121 396q-30 -27 -47.5 -20t-27.5 80q-10 69 19 147.5t105 132.5q39 27 84.5 -5t68.5 -77q34 -74 87 4l1 0.5t2 1.5q52 52 117 89t145 31q122 -12 172 -109t26 -200q-47 -197 -156.5 -316.5t-237.5 -141.5q-55 -10 -124 31q-37 -159 -76 -318.5t-70 -321.5 q-15 -71 -39 -85.5t-76 9.5q-69 32 -46 201q24 180 45 360.5t61 360.5q19 87 18.5 139t-51.5 7zM429 417q-13 -45 -21.5 -90t-20.5 -90q-23 -87 64 -66q74 16 109.5 64.5t56.5 119.5q43 147 -50 167q-101 21 -138 -105z"/>
   <glyph glyph-name="q" horiz-adv-x="790" unicode="q" d="M486 156q-83 -87 -180 -120t-211 72q-59 54 -72.5 145t43.5 205q119 239 314 305q144 48 223 -54q16 -22 23 -22.5t29 1.5q76 4 97.5 -25.5t12.5 -71.5q-43 -179 -74 -356t-57 -351q-48 -315 -111 -449.5t-147 -118.5q-51 11 -73 60t11 169q42 158 89 311t83 300z M276 372q3 -88 38.5 -96t71.5 2q71 18 100 72.5t33 129.5q1 43 -31.5 81.5t-74.5 29.5q-61 -12 -100.5 -81.5t-36.5 -137.5z"/>
   <glyph glyph-name="r" horiz-adv-x="640" unicode="r" d="M104 647q-6 37 8.5 67t62.5 22q111 -18 127.5 -78.5t1.5 -123.5q-16 -67 -5.5 -76t40.5 63q109 261 231 257q99 -3 70 -220q-23 -160 -85.5 -172t-77.5 27q-21 52 -51 5q-102 -160 -136 -324q-13 -63 -49.5 -56t-109.5 42q-111 52 -76 193q24 95 44.5 186.5t4.5 187.5z "/>
   <glyph glyph-name="s" horiz-adv-x="776" unicode="s" d="M334 339q-118 21 -166.5 134.5t120.5 230.5q101 70 204 87.5t181 -0.5q41 -10 49.5 -44t-7.5 -64q-34 -63 -88 -68.5t-110 -4.5q-111 2 -126.5 -28t53.5 -48q147 -40 229 -88.5t54 -152.5q-48 -174 -171.5 -234.5t-210.5 -32.5q-60 19 -114.5 49t-111.5 56 q-110 50 -27 132q29 29 84 19t132 -28q165 -40 174.5 8.5t-148.5 76.5z"/>
   <glyph glyph-name="t" horiz-adv-x="717" unicode="t" d="M182 666q-173 152 12 185q18 3 33 6q12 48 23 97t23 98q36 149 156 96q48 -21 53 -52.5t-5 -67.5q-13 -47 -28 -113q90 28 147 57q110 52 70 -75q-24 -77 -93.5 -126.5t-169.5 -82.5q-15 -83 -23 -134q-64 -387 137 -149l1.5 -0.5t2.5 0.5q62 79 114 100.5t35 -68.5 q-25 -127 -81.5 -209.5t-119.5 -145.5q-86 -84 -145 -74t-95 47q-77 77 -92.5 223t42.5 378z"/>
   <glyph glyph-name="u" horiz-adv-x="983" unicode="u" d="M104 572q-67 16 -72.5 59t102.5 100q92 49 141.5 41.5t69.5 -44.5q36 -72 18.5 -136t-33.5 -130q-25 -97 3.5 -107t67.5 46q55 78 109 163t114 163q27 36 61.5 38.5t90.5 -46.5q63 -55 52 -126.5t-29 -148.5q-61 -250 66 -156q55 41 78 3t-23 -101 q-90 -126 -186.5 -143.5t-160.5 45.5q-68 64 -6 248q22 67 5 68.5t-53 -59.5q-127 -216 -202.5 -282.5t-153.5 11.5q-141 140 -51 323q73 150 -8 171z"/>
   <glyph glyph-name="v" horiz-adv-x="858" unicode="v" d="M28 498q3 95 75 183q62 75 113 82t105 -14q84 -35 71 -126t-37 -223q-17 -86 16.5 -101t122.5 77q60 63 77.5 102.5t-39.5 57.5q-22 7 -41 34.5t23 92.5q62 93 138 94.5t129 -34.5q114 -81 29 -244.5t-273 -298.5q-159 -114 -221 -138t-141 20q-87 47 -28 304 q21 96 5.5 127.5t-54.5 -28.5q-75 -116 -70 33z"/>
   <glyph glyph-name="w" horiz-adv-x="1273" unicode="w" d="M114 504q-36 -27 -66 -8.5t3 86.5q60 129 145.5 148t135.5 -12q102 -64 45 -253q-18 -62 -9 -64t38 48q89 153 168 246.5t163 54.5q72 -34 69.5 -119t-3.5 -205q-1 -108 19.5 -119.5t89.5 75.5q57 72 72 105.5t-48 59.5q-56 22 -52 82t82 92q86 36 154.5 40t87.5 -23 q41 -63 18 -139t-60 -142q-65 -114 -147 -201t-162 -169q-92 -93 -190 -40q-80 45 -72 157q9 150 -29.5 177t-150.5 -154q-164 -263 -234 -179q-64 80 -27 217q40 149 27 214t-67 25z"/>
   <glyph glyph-name="x" horiz-adv-x="882" unicode="x" d="M233 500q-63 -13 -97 5t-10 111q19 75 93 118t164 25t126 -117q49 40 108 67t122 52q46 17 85.5 -27.5t-27.5 -76.5q-126 -61 -189 -144t-71.5 -150.5t34 -100.5t126.5 8q93 45 121.5 44t-34.5 -132q-34 -72 -115 -121t-171 -27q-28 6 -66 41t-59 100q-58 -48 -127 -77 t-138 -53q-40 -15 -66 22t26 78q177 135 241.5 259.5t-76.5 95.5z"/>
   <glyph glyph-name="y" horiz-adv-x="953" unicode="y" d="M105 385q-51 -49 -69 -23t13 116q27 81 72 139.5t89 93.5q107 85 187 20q60 -49 61 -96.5t-11 -146.5q-15 -106 -3.5 -123t85.5 59q54 56 107.5 111.5t98.5 119.5q62 91 94.5 93.5t68.5 -33.5q36 -37 37.5 -71.5t-1.5 -116.5q-5 -84 -39.5 -265.5t-94 -375t-142 -358 t-181.5 -214.5q-174 -86 -231.5 -100t-92.5 80q-31 84 -51 165.5t-38 154.5q-19 74 19 93q53 29 89 -56q125 -285 309 40q113 202 185 390.5t79 359.5q-58 -79 -125.5 -152.5t-136.5 -148.5q-60 -63 -110.5 -82.5t-110.5 25.5q-110 79 -53 232q97 259 -104 70z"/>
   <glyph glyph-name="z" horiz-adv-x="892" unicode="z" d="M121 771q32 88 90 29q41 -43 148.5 -49t241.5 12q57 7 111.5 4t96.5 -73q72 -122 -70 -187q-76 -36 -153.5 -68.5t-146.5 -80.5q-72 -50 -47 -71.5t99 -13.5q133 14 222.5 5t92.5 -76q3 -81 -89.5 -100t-207.5 -37q-108 -18 -213.5 -25.5t-180.5 57.5q-96 80 -78.5 149 t82.5 110q135 85 313 165q27 12 26.5 22.5t-34.5 7.5q-183 -15 -268 36.5t-35 183.5z"/>
   <glyph glyph-name="adieresis" d="M548 229q-61 -63 -125 -113.5t-141 -63.5q-92 -16 -163 53.5t-85 173.5q-17 125 67.5 256.5t238.5 220.5q103 60 181 42.5t108 -65.5q25 -41 85 -34q63 7 81.5 -40.5t-7.5 -110.5q-72 -176 -34 -221.5t132 31.5q26 21 44.5 10.5t11.5 -52.5q-45 -249 -186 -253.5 t-208 166.5zM383 1245q58 1 87.5 -52t28.5 -113q-5 -162 -114 -160q-110 0 -105 157q4 163 103 168zM737 1242q58 2 84.5 -51t20.5 -113q-16 -161 -125 -161q-110 1 -94 158q15 164 114 167zM479 577q-106 16 -174 -109q-39 -74 -24 -121t75 -47q111 1 164 111 q25 51 14.5 105t-55.5 61z" unicode="ä"/>
   <glyph glyph-name="ampersand" horiz-adv-x="1137" unicode="&amp;" d="M569 944q115 68 165.5 144.5t-67.5 102.5q-80 17 -108.5 -58t10.5 -189zM408 825q-7 18 -13 36.5t-12 36.5q-55 174 30.5 326.5t266.5 157.5q275 8 271 -244q-2 -129 -116.5 -211t-202.5 -149q21 -57 43 -113t45 -112q46 42 68 64q59 57 99 66t75 -12q117 -73 5 -168 q-42 -35 -82.5 -69.5t-82.5 -68.5q53 -84 101.5 -66.5t86.5 25.5q97 18 113.5 -21.5t-7.5 -120.5q-53 -167 -250 -160q-161 3 -217 204q-26 -21 -51.5 -41t-51.5 -40q-246 -189 -368 -81q-79 69 -101 173q-44 202 72 335.5t279 252.5zM573 418q-22 59 -46.5 117.5 t-48.5 116.5q-110 -97 -166 -177q-29 -41 -34.5 -87.5t39.5 -89.5q49 -49 134.5 18.5t121.5 101.5z"/>
   <glyph glyph-name="period" horiz-adv-x="332" unicode="." d="M28 158q8 92 60 140.5t113 48.5q56 0 82 -38.5t25 -78.5q-5 -108 -62 -164.5t-115 -56.5q-39 0 -73.5 45.5t-29.5 103.5z"/>
   <glyph glyph-name="comma" horiz-adv-x="387" unicode="," d="M93 -20q-17 114 55 240q69 119 134 117t80 -109q16 -120 -35 -235t-101 -231q-19 -42 -34.5 -87t-43.5 -82q-47 -63 -90.5 -49.5t-40.5 88.5q2 52 25.5 100.5t39.5 97.5q21 70 11 150z"/>
   <glyph glyph-name="hyphen" horiz-adv-x="807" unicode="-" d="M107 450q108 52 239 54.5t274 -7.5q160 -12 133 -121q-17 -68 -43.5 -83t-67.5 -19q-121 -13 -242 -8.5t-238 17.5q-88 9 -113 68t58 99z"/>
   <glyph glyph-name="colon" horiz-adv-x="342" unicode=":" d="M23 195q23 170 151 144q66 -14 82 -66t-2 -115q-50 -168 -157 -146q-54 12 -68.5 64t-5.5 119zM100 587q7 71 45 117t92 42q90 -9 82 -183q-7 -147 -120 -145q-118 3 -99 169z"/>
   <glyph glyph-name="semicolon" horiz-adv-x="459" unicode=";" d="M295 281q88 -3 106 -54.5t-1 -127.5q-39 -147 -97.5 -280t-154.5 -239q-32 -34 -62.5 -40.5t-44.5 2.5q-33 22 -5 105q39 119 75.5 237.5t48.5 245.5q14 155 135 151zM196 554q22 106 68.5 146t82.5 33q67 -14 76 -63t16 -105q7 -72 -32 -131.5t-110 -51.5 q-56 6 -85.5 56t-15.5 116z"/>
   <glyph glyph-name="exclam" horiz-adv-x="516" unicode="!" d="M145 596q-3 167 11.5 341t87.5 391q55 166 163 139q103 -26 77 -120q-47 -176 -93 -350.5t-82 -348.5q-25 -118 -99 -121q-64 -2 -65 69zM26 199q23 172 128 159q51 -7 73 -50.5t19 -103.5q-6 -102 -36 -141.5t-84 -45.5q-42 -4 -79 32t-21 150z"/>
   <glyph glyph-name="question" horiz-adv-x="886" unicode="?" d="M145 168q-8 69 38.5 120t110.5 49q78 -4 92.5 -49t4.5 -96q-29 -134 -132 -183q-33 -13 -69 31.5t-45 127.5zM42 1287q66 163 214 254.5t327 55.5q155 -31 225.5 -123.5t64.5 -222.5q-6 -117 -53 -191.5t-119 -123.5q-175 -121 -233 -330q-41 -142 -125 -123 q-58 12 -78 72t32 174q29 65 85 117.5t120 103.5q123 99 155 228t-184 171q-102 19 -195 -20t-173 -114q-41 -38 -65.5 -16.5t2.5 88.5z"/>
   <glyph glyph-name="parenleft" horiz-adv-x="822" unicode="(" d="M709 1597q46 50 75 9t-1 -86q-393 -584 -466 -977t202 -687q51 -55 20.5 -109.5t-51.5 -73.5q-59 -49 -174 61q-306 296 -258.5 753t653.5 1110z"/>
   <glyph glyph-name="plus" horiz-adv-x="1017" unicode="+" d="M953 684q46 -6 52.5 -82t-38.5 -79q-75 -4 -170.5 -7.5t-197.5 -4.5q-46 -240 -82 -379q-33 -121 -104 -105t-84 109q-3 18 18.5 126.5t53.5 248.5q-87 1 -164 4.5t-136 10.5q-64 6 -80.5 49.5t8.5 74.5q12 15 134.5 24.5t278.5 14.5q27 118 52 217.5t38 144.5 q18 65 94 54.5t65 -77.5q-10 -66 -25 -153t-32 -183q105 1 191.5 -1t127.5 -7z"/>
   <glyph glyph-name="quotesingle" horiz-adv-x="349" unicode="&apos;" d="M32 970q12 85 19.5 171t16.5 172q9 93 33.5 181t108.5 110q93 24 111.5 -17t2.5 -115q-37 -171 -78.5 -310t-98.5 -265q-33 -74 -88 -43q-41 21 -27 116z"/>
   <glyph glyph-name="asterisk" horiz-adv-x="716" unicode="*" d="M136 1534q-14 39 44.5 63t81.5 -9q21 -35 44 -69t45 -67q21 35 39.5 65.5t33.5 52.5q26 39 88 2t44 -79l-60 -135q92 -2 147 -9q47 -6 53.5 -82t-38.5 -78q-42 -3 -79 -5t-70 -3q29 -63 46 -117q18 -55 -22 -81t-74 -18q-11 5 -8 0q-34 68 -78 139q-39 -72 -89 -147 q-36 -54 -75 -21t-54 70q-7 14 10.5 63.5t49.5 116.5q-24 2 -50 4.5t-53 5.5q-64 7 -80.5 50t8.5 74q9 12 59 20t120 13q-56 99 -83 181z"/>
   <glyph glyph-name="greater" horiz-adv-x="656" unicode="&gt;" d="M355 419q-41 52 -126.5 107.5t-133.5 103.5q-40 42 9 73t118 -1q123 -53 198.5 -126.5t173.5 -147.5q57 -43 7 -80q-81 -59 -168 -111.5t-175 -108.5q-75 -48 -156 -36t-78 47t56 75q67 48 141 73.5t131 76.5q29 27 3 55z"/>
   <glyph glyph-name="less" horiz-adv-x="655" unicode="&lt;" d="M301 395q41 -52 126.5 -107.5t133.5 -103.5q40 -42 -9 -73t-118 1q-123 53 -198.5 126.5t-173.5 147.5q-57 43 -7 80q81 59 168 111.5t175 108.5q75 48 156 36t78 -47t-56 -75q-67 -48 -141 -73.5t-131 -76.5q-29 -27 -3 -55z"/>
   <glyph glyph-name="slash" horiz-adv-x="816" unicode="/" d="M47 194q138 348 268.5 699.5t295.5 687.5q18 39 68 38.5t84 -27.5q48 -41 37.5 -111t-34.5 -135q-123 -328 -282.5 -635.5t-300.5 -622.5q-20 -45 -40.5 -46t-47.5 11q-90 38 -48 141z"/>
   <glyph glyph-name="logicalnot" horiz-adv-x="979" unicode="¬" d="M687 503q11 42 17 85.5t14 86.5v4q-60 0 -129 4q-111 8 -218 22.5t-195 34.5t-128 41q-45 23 -22 65t64 44q183 3 365 -5.5t364 6.5q119 10 129 -49q6 -38 -7 -70q-2 -8 -5 -18q-31 -86 -66.5 -155.5t-84.5 -132.5q-28 -37 -75 -21q-35 11 -23 58z"/>
   <glyph glyph-name="A" horiz-adv-x="1263" unicode="A" d="M59 306q58 49 91.5 118t80.5 132q9 12 79.5 141.5t156 287.5t162.5 300.5t98 180.5q24 45 58 81.5t82 38.5q78 1 98.5 -35.5t25.5 -78.5q33 -286 76 -570.5t86 -569.5q4 -31 31 -51q57 -41 55 -109q-3 -42 -21 -79t-59 -45q-112 -23 -227 -16.5t-226 24.5q-40 6 -53 89 q-11 66 55 100q39 21 80.5 36.5t82.5 33.5q24 10 24 29q-4 44 -8 88.5t-7 89.5q-211 -13 -438 2q-37 -72 -66 -136q-44 -89 52 -90q123 -2 103 -122q-18 -105 -130 -126q-91 -18 -180 -19.5t-167 30.5q-33 12 -39 50t-5 71q3 86 49 124zM860 722q-10 90 -22.5 179t-30.5 179 q-6 21 -24 28.5t-35 -22.5q-109 -185 -204 -364h316z"/>
   <glyph glyph-name="B" horiz-adv-x="1277" unicode="B" d="M281 1274q-123 18 -96 136q25 115 150 120q301 12 520.5 -19.5t290.5 -74.5q108 -67 142.5 -173.5t2.5 -222.5q-36 -132 -103.5 -202t-150.5 -96q78 -42 130.5 -119.5t46.5 -200.5q-7 -120 -76 -220.5t-179 -149.5q-82 -38 -294 -56t-500 27q-61 9 -84.5 52.5t-32.5 94.5 q-13 64 24.5 102.5t96.5 32.5l5 -1q68 234 119 473.5t81 484.5q-47 4 -93 12zM404 281q90 -9 179.5 -13t181.5 1q116 5 163 47t62 135q12 87 -38.5 139t-139.5 58q-88 5 -164 4.5t-154 5.5zM551 901q78 -3 157 -8.5t156 -8.5q89 -4 152 34t78 125q34 198 -209 203 q-63 0 -126 0.5t-125 1.5z"/>
   <glyph glyph-name="C" horiz-adv-x="1135" unicode="C" d="M976 1410q24 -40 36 0q29 104 99 103q47 -2 56 -34.5t12 -74.5q16 -272 -64 -524q-24 -73 -62 -62q-40 9 -52 39t-16 63q-27 168 -111.5 247t-205.5 89q-151 12 -259.5 -124.5t-136.5 -352.5q-27 -204 33 -351.5t220 -153.5q108 -6 210.5 73t201.5 203q43 53 90 19 q50 -36 24 -111q-82 -232 -228.5 -359t-315.5 -121q-241 8 -368.5 239.5t-69.5 615.5q46 312 205.5 514t419.5 207q110 1 177 -42t105 -102z"/>
   <glyph glyph-name="D" horiz-adv-x="1342" unicode="D" d="M252 1265q-72 2 -82 87q-19 129 98 148q219 34 452 30t348 -49q243 -96 265.5 -295t-6.5 -407q-57 -412 -230 -562.5t-394 -193.5q-137 -27 -278 -20.5t-279 14.5q-112 5 -128 141q-9 72 15 112.5t104 37.5q32 -2 48 -2q68 234 119 472.5t81 482.5q-75 0 -133 4zM417 289 q118 -9 198 -9q150 -1 284.5 91t222.5 412q128 464 -218 482q-65 3 -128.5 2.5t-126.5 -1.5z"/>
   <glyph glyph-name="E" horiz-adv-x="1244" unicode="E" d="M374 1282q-75 6 -140 45q-69 40 -62 96q11 103 141 112h5.5h5.5q195 4 391 9l392 10h4h5q107 0 150 -23.5t49 -89.5q9 -118 -7 -217t-40 -198q-15 -57 -42 -60t-59 15q-70 35 -51 117q18 80 -2 129.5t-107 52.5q-93 2 -185 4t-184 2l-84 -352q73 -7 127.5 6t81.5 73 q14 32 33.5 54t83.5 12q99 -16 66 -109q-30 -88 -53 -177t-39 -168q-12 -59 -45 -102t-81 -37q-36 4 -48.5 39.5t-4.5 80.5q15 101 -96 96q-21 -1 -41 -3t-40 -3l-103 -436q94 -6 183.5 -8.5t197.5 0.5q89 2 136 58t82 139q35 88 86 111q36 17 56.5 -14.5t14.5 -87.5 q-12 -104 -25 -179.5t-37 -171.5q-18 -68 -66.5 -91t-155.5 -23h-5h-4q-201 2 -311.5 7.5t-174 10.5t-101.5 7t-94 -4q-66 -7 -113 18.5t-49 106.5q-1 30 18.5 70t51.5 56q37 20 77 20q72 243 126.5 492.5t85.5 504.5z"/>
   <glyph glyph-name="L" horiz-adv-x="1191" unicode="L" d="M189 296q66 233 111 482t76 474q-69 6 -108.5 8t-81.5 22q-46 19 -51 107t63 112q48 16 138.5 23.5t189 9.5t188 -0.5t135.5 -5.5q87 -6 96 -60.5t-9 -135.5q-10 -44 -108 -62t-206 -22l-216 -976q95 -6 184.5 -8.5t197.5 0.5q89 2 136 58t82 139q35 88 86 111 q36 17 56.5 -14.5t14.5 -87.5q-12 -104 -25 -179.5t-37 -171.5q-18 -68 -66.5 -91t-155.5 -23h-5h-4q-201 2 -311.5 7.5t-174 10.5t-101.5 7t-94 -4q-66 -7 -113 18.5t-49 106.5q-1 30 18.5 70t51.5 56q46 24 92 19z"/>
   <glyph glyph-name="F" horiz-adv-x="968" unicode="F" d="M324 1263q-84 4 -155 47q-69 40 -62 96q10 103 141 112h4.5h5.5q196 4 392 9l392 10h3.5h4.5q107 0 150 -23.5t49 -89.5q9 -118 -6.5 -217t-40.5 -198q-30 -119 -111 -75q-68 34 -41 147q18 80 -1.5 129.5t-107.5 52.5q-89 2 -177 4t-176 2l-83 -348q87 -12 151.5 -2 t94.5 77q14 32 33.5 54t84.5 12q77 -13 66 -109q-12 -93 -23.5 -184.5t-47.5 -166.5q-26 -54 -52 -99.5t-74 -39.5q-36 3 -59 42t-16 84q15 101 -96 96q-30 -1 -60 -4.5t-60 -3.5l-93 -392q258 -34 279 -109q12 -46 9.5 -90t-45.5 -54q-117 -26 -235 -24t-232 9 q-99 7 -85 159q7 91 74 116q69 237 122 479.5t83 491.5z"/>
   <glyph glyph-name="G" horiz-adv-x="1315" unicode="G" d="M1078 1413q25 -41 37 0q29 104 98 103q48 -2 57 -34.5t12 -74.5q8 -136 -18.5 -249t-66.5 -239q-13 -42 -40.5 -41.5t-44.5 4.5q-66 14 -75 74q-26 168 -106.5 243t-201.5 85q-151 12 -272 -121t-157 -348q-37 -216 21 -365t217 -189q93 -24 183 23t165 139l1 9 q-180 35 -198 103q-13 45 -9 84.5t49 46.5q80 12 208.5 5t245.5 -7q91 1 94 -139q1 -54 -43.5 -88.5t-113.5 -31.5q-14 -87 -30.5 -168t-31.5 -160q-16 -80 -104 -88q-2 0 -2 -2.5t-1 -2.5q-32 4 -61 16t-20 63q8 62 11 116q-161 -190 -350 -185q-249 7 -379.5 249 t-54.5 626q60 309 224.5 512.5t424.5 208.5q110 1 202 -58.5t130 -118.5z"/>
   <glyph glyph-name="H" horiz-adv-x="1448" unicode="H" d="M359 1300q-107 25 -118 76q-12 46 -9.5 92.5t40.5 53.5q99 18 182 12.5t205 -17.5q45 -5 89 -28.5t58 -141.5q8 -72 -60.5 -80t-131.5 -2l-85 -357q359 10 614 -6q29 182 51 367q-186 25 -200 91q-10 47 9.5 101.5t54.5 64.5q92 27 206.5 22.5t205.5 -7.5q101 -6 83 -178 q-8 -75 -101 -100l-225 -947l2 1q150 10 160 -124q14 -162 -75 -167q-115 -7 -206.5 -12t-218.5 10q-45 5 -68.5 61t-10.5 103q16 66 197 102q50 170 91 367q-153 3 -309 7t-314 13l-81 -341q1 -46 23 -66t40 -44q68 -39 75 -86t7 -74t-33 -35q-78 -19 -196 -14.5t-194 15.5 q-42 5 -67.5 38t-5.5 105q18 69 39 93t71 25l-8 2q72 246 127 496.5t87 508.5z"/>
   <glyph glyph-name="I" horiz-adv-x="683" unicode="I" d="M358 1257q-187 25 -200 91q-11 47 9 101.5t55 64.5q92 27 206 22.5t205 -7.5q57 -3 81.5 -54.5t16.5 -129.5q-8 -77 -114 -97l-212 -964q21 1 44 3t47 4q164 11 140 -126q-26 -152 -120 -157q-115 -7 -201 -3.5t-213 18.5q-45 5 -63.5 64.5t-5.5 105.5q10 42 129 64 q68 235 113.5 486.5t82.5 513.5z"/>
   <glyph glyph-name="J" horiz-adv-x="801" unicode="J" d="M925 1355q-8 -68 -93 -92q-46 -260 -96.5 -491.5t-118.5 -458.5q-51 -169 -141 -242t-199 -70q-155 4 -209 115.5t-46 274.5q2 44 29 92t79 51q54 3 70.5 -41t24.5 -95q6 -44 19.5 -68t55.5 -27q89 -5 130 136q56 198 88 394.5t72 427.5q-123 9 -189 20.5t-75 53.5 q-10 47 18.5 99t62.5 66q93 37 212 48.5t208 -9.5q114 -28 98 -184z"/>
   <glyph glyph-name="K" horiz-adv-x="1427" unicode="K" d="M729 1378q-14 -115 -117 -119l-86 -396q128 80 258.5 186t228.5 225q-13 3 -33 12q-45 19 -50 107t63 112q96 33 162 30.5t156 -8.5q87 -7 96.5 -61.5t-8.5 -134.5q-19 -81 -123 -82q-66 -81 -173.5 -178.5t-233.5 -193.5q49 -146 107.5 -272.5t96.5 -201.5 q76 -156 133 -184q156 -12 166 -64q6 -48 0.5 -93.5t-39.5 -54.5q-78 -18 -201 -25t-203 -3q-42 2 -71.5 15.5t-38.5 80.5q-10 66 2.5 100.5t75.5 43.5q-104 269 -233 507q-49 -36 -99 -72t-99 -72l-70 -325q180 -7 189 -62q6 -47 -20.5 -111t-60.5 -72q-78 -18 -196.5 -17 t-195.5 11q-40 4 -60 20.5t-32 126.5q-6 52 44.5 80.5t107.5 27.5h2q69 237 114 491.5t78 520.5q-89 7 -137 32.5t-21 102.5q30 87 67.5 106t71.5 20q87 2 140.5 0.5t143.5 -13.5q56 -9 81.5 -37t16.5 -106z"/>
   <glyph glyph-name="M" horiz-adv-x="1818" unicode="M" d="M354 1302q-97 11 -145 27t-36 65q6 27 14.5 64t76.5 54q165 40 352 15q76 -10 103 -58t33 -98l50 -448t63 -446q7 -40 28 -40.5t33 23.5q106 226 208 457t210 457q7 14 7 0q60 137 240 151q118 7 186.5 -16t52.5 -78q-33 -111 -118 -178l-149 -987q20 1 40.5 3t41.5 4 q72 6 98 -25t38 -85q13 -67 -40 -104t-81 -42q-96 -17 -190.5 -19t-189.5 1q-57 1 -71.5 30.5t-10.5 77.5q4 54 25 91t79 45q8 0 16.5 1.5t17.5 2.5q46 201 74.5 415.5t43.5 430.5q-17 -26 -22 -37q-126 -245 -248 -497.5t-238 -501.5q-44 -94 -141 -36q-87 53 -106 179 q-36 229 -66 460t-69 460q-48 -219 -86 -436t-62 -433q42 -8 84 -18q69 -18 89.5 -53t17.5 -79q-8 -87 -86 -85q-90 3 -179 0.5t-178 -7.5q-31 -3 -63.5 15.5t-60.5 96.5q-24 61 1 104.5t120 47.5q71 245 117.5 508t75.5 521z"/>
   <glyph glyph-name="N" horiz-adv-x="1468" unicode="N" d="M95 1393q12 51 58.5 85t104.5 43q154 24 305 5q87 -12 111 -59t40 -92q82 -231 169.5 -459t185.5 -452q11 -26 36.5 -27.5t31.5 27.5q42 194 71.5 391t65.5 394q-16 -2 -25 -2q-102 -7 -147 81q-18 36 -20 77.5t70 74.5q80 37 172 48.5t186 5.5q62 -6 74 -44.5t4 -98.5 q-16 -111 -80 -131q-53 -276 -109.5 -549.5t-115.5 -546.5q-28 -129 -116 -166q-53 -22 -103.5 -11t-74.5 64q-121 264 -220.5 537t-217.5 539q-60 -209 -109 -418.5t-101 -417.5q125 -22 235 -73q85 -38 68 -105q-14 -55 -42 -71t-63 -18q-106 -9 -208.5 -11t-207.5 -3 q-27 -1 -63.5 10.5t-24.5 157.5q9 110 102 125q63 237 113.5 477.5t72.5 491.5q-27 0 -54 -3q-84 -7 -139.5 16.5t-34.5 107.5z"/>
   <glyph glyph-name="O" horiz-adv-x="1240" unicode="O" d="M90 797q56 330 240.5 556.5t444.5 219.5q234 -8 356 -274.5t65 -566.5q-72 -379 -256.5 -557t-385.5 -188q-210 -10 -372 193.5t-92 616.5zM317 815q-34 -276 42.5 -396.5t214.5 -114.5q302 10 410 503q38 173 -31 319t-190 152q-147 6 -282.5 -112t-163.5 -351z"/>
   <glyph glyph-name="P" horiz-adv-x="1186" unicode="P" d="M32 172q-6 52 44.5 80.5t107.5 27.5h2q68 234 113 485.5t74 499.5q-89 1 -183 13q-106 11 -77 136q26 117 172 123q301 12 530 -10t300 -65q108 -67 149.5 -199t24.5 -254q-30 -202 -170.5 -315.5t-281.5 -139.5q-72 -14 -177.5 -13.5t-193.5 6.5l-59 -274 q100 -6 169.5 -20t75.5 -50q7 -47 -20 -111t-61 -72q-78 -18 -224 -11.5t-223 16.5q-40 4 -60 20.5t-32 126.5zM622 1281l-104 -484q81 -1 162.5 0.5t156.5 13.5q191 30 223 211q15 92 -37.5 176.5t-167.5 87.5q-59 0 -116.5 -1.5t-116.5 -3.5z"/>
   <glyph glyph-name="R" horiz-adv-x="1325" unicode="R" d="M37 166q-6 50 41 78.5t103 29.5q69 240 114.5 496.5t74.5 508.5q-59 6 -114 15q-124 18 -97 136q27 115 150 120q301 12 520.5 -19.5t290.5 -74.5q108 -67 140 -161.5t23 -214.5q-17 -189 -128 -270.5t-239 -101.5q21 -27 32 -51q29 -67 50 -137.5t48 -137.5 q51 -126 126 -116q67 9 100.5 -25t11.5 -119q-24 -87 -65 -107.5t-104 -18.5q-69 0 -128.5 24t-84.5 97q-44 121 -84 234t-85 185q-54 87 -115 107.5t-130 25.5l-85 -399q190 -7 199 -62q6 -47 -20.5 -111t-60.5 -72q-78 -18 -196.5 -17t-195.5 11q-40 4 -60 20.5t-32 126.5 zM610 1288l-76 -355q71 -3 138.5 -9t148.5 -9q89 -5 157.5 38t83.5 130q34 198 -210 203q-61 0 -121.5 0.5t-120.5 1.5z"/>
   <glyph glyph-name="Q" horiz-adv-x="1244" unicode="Q" d="M87 797q56 330 240.5 556.5t444.5 219.5q234 -8 356 -274.5t65 -566.5q-36 -186 -100.5 -322t-147.5 -226q11 -17 35 -49q46 -65 136 -103q64 -27 68.5 -51.5t-10.5 -43.5q-72 -92 -166 -85t-166 66q-53 43 -99 116q-93 -42 -192 -47q-210 -10 -372 193.5t-92 616.5z M591 345q-19 33 -35 65t16 46q114 49 185 -24q8 -9 16 -17.5t16 -17.5q129 124 192 410q38 173 -31 319t-190 152q-147 6 -282.5 -112t-163.5 -351q-34 -276 42.5 -396.5t214.5 -114.5q20 0 41 3q-14 26 -21 38z"/>
   <glyph glyph-name="S" horiz-adv-x="1171" unicode="S" d="M94 562q14 83 74 77q58 -6 73.5 -49.5t23.5 -96.5q31 -225 328 -248h3.5h4.5q223 8 287 174q36 95 -47.5 156t-233.5 100q-183 46 -309 174.5t-69 363.5q37 156 194.5 248.5t326.5 87.5q102 -3 152 -29t83 -53q8 -7 24.5 -6.5t21.5 13.5q24 71 97 61q63 -10 78.5 -48.5 t9.5 -78.5q-18 -105 -34 -210t-46 -206q-16 -53 -58 -41q-29 7 -49 31.5t-37 48.5q-4 5 5 1t9 1q-6 112 -68.5 181.5t-209.5 75.5q-123 3 -200.5 -40t-83.5 -115q-9 -104 65.5 -161t199.5 -81q270 -53 363 -183.5t45 -304.5q-59 -211 -189 -319t-310 -119 q-133 -8 -223.5 51.5t-135.5 149.5q-13 26 -28 26.5t-19 -29.5q-8 -58 -23.5 -106.5t-55.5 -48.5q-57 0 -85.5 41.5t-22.5 88.5q13 105 31.5 211t37.5 211z"/>
   <glyph glyph-name="T" horiz-adv-x="1009" unicode="T" d="M234 1275q-36 -20 -41 -141.5t-41 -203.5q-17 -37 -47 -25q-51 20 -55 67q-11 105 -14.5 212t22.5 209q12 47 48 90t84 51q227 7 482 15.5t494 3.5q36 -3 63 -39t28 -71q2 -129 -22.5 -256.5t-57.5 -250.5q-16 -61 -69 -53q-24 3 -38 26.5t-22 45.5q-27 69 -5.5 195 t-14.5 147q-57 -3 -119.5 -5t-127.5 -3l-218 -987l106 8t107 6q98 4 114.5 -42.5t1.5 -122.5q-19 -89 -42 -110.5t-146 -30.5q-156 -11 -320.5 1.5t-278.5 33.5q-48 8 -66 92q-11 44 14.5 90.5t78.5 47.5q52 0 104 2.5t105 6.5q62 229 111.5 495t76.5 505 q-76 -3 -150.5 -4.5t-144.5 -4.5z"/>
   <glyph glyph-name="V" d="M1203 1281q-60 -50 -93.5 -119t-79.5 -131q-9 -12 -69.5 -145.5t-133 -296.5t-139 -309.5t-86.5 -183.5q-25 -45 -59 -81t-82 -38q-78 0 -98.5 35t-25.5 78q-33 285 -110 583t-119 583q-5 31 -31 50q-58 42 -55 109q2 42 20 78.5t60 45.5q111 22 226 16t228 -24 q39 -8 52 -88q11 -67 -54 -101q-40 -21 -82 -36t-82 -33q-25 -11 -23 -30q14 -184 65.5 -380.5t89.5 -379.5q4 -23 22.5 -29.5t36.5 23.5q99 169 159.5 356t144.5 366q42 88 -52 90q-124 1 -103 122q10 61 47 89t83 37q90 17 179.5 18.5t167.5 -28.5q33 -14 38.5 -52 t5.5 -70q-4 -87 -48 -124z" unicode="V"/>
   <glyph glyph-name="W" horiz-adv-x="1623" unicode="W" d="M887 887q-39 -91 -92.5 -213.5t-106 -238.5t-96 -207.5t-60.5 -118.5q-27 -45 -49 -92t-70 -48q-78 -1 -99 34.5t-25 78.5q-33 285 -83 587t-92 587q-5 31 -31 50q-58 42 -55 109q2 42 20 78.5t60 45.5q111 22 226 16t228 -24q30 -6 45 -89q11 -70 -47 -100 q-84 -45 -161 -80q-25 -10 -23 -29q15 -184 37.5 -379.5t59.5 -378.5q5 -23 26.5 26t36.5 80q95 198 150.5 319.5t112.5 298.5q19 60 71 193t125 119q118 -25 123.5 -109.5t8.5 -143.5q7 -186 12 -390.5t17 -384.5q1 -23 18.5 -27.5t35.5 25.5q99 170 162 354.5t148 363.5 q41 88 -53 90q-124 1 -103 122q10 61 47 89t84 37q90 17 179 18.5t167 -28.5q33 -14 39 -52t5 -70q-2 -87 -48 -124q-60 -50 -92 -120t-68 -139q-8 -15 -70.5 -147.5t-138 -293t-144 -304.5t-88.5 -181q-25 -45 -59 -81t-82 -38q-78 0 -98.5 35t-25.5 78q-22 192 -43.5 394 t-40.5 403z"/>
   <glyph glyph-name="U" horiz-adv-x="1175" unicode="U" d="M131 1283q-97 14 -97 128q0 45 23.5 84t92.5 51q196 30 392 14q65 -6 85.5 -46.5t20.5 -94.5q1 -131 -102 -141q-109 -11 -139 -118q-36 -124 -59.5 -250.5t-46.5 -252.5q-63 -345 213 -366q279 -23 345 298q31 154 60 310t60 312q9 51 -39 50q-113 -5 -154.5 26.5 t-47.5 102.5q-5 45 11.5 85t80.5 54q173 37 379 14q66 -8 85 -45t22 -80q8 -164 -65 -180q-55 -12 -59 -32q-39 -175 -74.5 -350.5t-71.5 -350.5q-55 -274 -206.5 -397t-381.5 -114q-259 10 -345 198.5t-38 491.5q21 135 48 269t55 269q10 52 -47 61z"/>
   <glyph glyph-name="X" horiz-adv-x="1444" unicode="X" d="M314 1263q-108 8 -109 100q0 54 23.5 100t92.5 55q164 18 319 7q102 -9 131 -54t19 -100q-22 -105 -110 -120q28 -73 57 -144.5t59 -141.5q91 102 201 230q20 24 14 44.5t-38 20.5q-29 -1 -49 40t-20 91q-2 47 19 85t72 45q68 9 189 10t189 -14q102 -24 88 -122 q-9 -61 -37 -88t-55 -50q-134 -114 -254.5 -237t-232.5 -249q121 -264 248 -488q50 -7 99.5 -15.5t100.5 -14.5q96 -13 58 -141q-34 -112 -146 -112q-105 0 -209 4.5t-208 8.5l0.5 1.5l0.5 1.5q-125 3 -109 131q5 43 30 85t97 60q-46 142 -113 305q-55 -64 -108.5 -127.5 t-107.5 -126.5q-53 -61 6 -91q50 -27 79 -56.5t18 -87.5q-9 -43 -33 -74.5t-81 -31.5q-106 -1 -212.5 1t-210.5 20q-33 6 -45 37t-12 63q0 90 88 140q78 45 153 116.5t156 167.5q55 63 110.5 124.5t112.5 124.5q-101 218 -225 460q-35 3 -105 7z"/>
   <glyph glyph-name="Y" horiz-adv-x="1049" unicode="Y" d="M216 1251q-125 -13 -154 118v4q-37 112 83 156q6 3 2 3q98 7 192.5 5.5t181.5 -21.5q110 -28 112 -134q1 -97 -95 -98q-60 -3 -40 -49q31 -73 61.5 -146t57.5 -147q17 -50 24.5 -43t25.5 34q43 68 97.5 128.5t100.5 126.5q9 15 9.5 35t-34.5 32q-100 32 -101 125 q-2 54 31.5 97t120.5 51q122 11 282 -7q110 -14 100 -108q-12 -103 -69 -147q-131 -105 -239 -261.5t-219 -306.5q-26 -34 -33 -73.5t-11 -82.5q-5 -48 -17.5 -95.5t-18.5 -95.5q-10 -68 47 -71q104 -5 156 -35t25 -125q-34 -120 -108 -120q-139 3 -278.5 2.5t-277.5 11.5 q-78 7 -79 114q0 33 10.5 64t50.5 40q67 14 127.5 27t76.5 95q9 49 20 98.5t22 98.5q25 121 -30 244q-48 106 -87.5 216.5t-81.5 219.5q-10 23 -43 20z"/>
   <glyph glyph-name="Z" horiz-adv-x="1350" unicode="Z" d="M233 1424q18 90 146 98q213 12 424 10t413 4q39 0 70 -30t31 -63q0 -81 -12.5 -127.5t-52.5 -86.5q-225 -228 -446 -460.5t-439 -466.5q-46 -50 9 -50q121 0 243 5.5t244 8.5q194 4 249 175q20 66 60.5 126.5t81.5 57.5q75 -8 36 -167q-21 -90 -42.5 -179t-39.5 -179 q-17 -75 -78.5 -97t-152.5 -20q-225 8 -449.5 8t-448.5 4q-52 0 -53 49q-3 69 10 140.5t82 151.5q183 210 365.5 419t365.5 419q83 92 -5 96q-73 3 -146 3.5t-145 1.5q-130 1 -158 -84q-59 -176 -101.5 -225.5t-81.5 -51.5q-67 -5 -42 134q18 93 30 188t33 188z"/>
   <glyph glyph-name="one" horiz-adv-x="631" unicode="1" d="M239 1076q-146 -58 -188 49q-40 103 120 169q122 49 245 74q78 15 138.5 -8.5t54.5 -103.5q-22 -308 -93.5 -593.5t-125.5 -572.5q-16 -78 -50.5 -103t-78.5 -25q-106 0 -86 149q62 471 151 925q16 80 -87 40z"/>
   <glyph glyph-name="two" horiz-adv-x="1033" unicode="2" d="M338 975q-36 -45 -63 -48t-50 9q-23 11 -28.5 50.5t35.5 113.5q71 128 207.5 195.5t270.5 62.5q139 -6 219 -117.5t62 -256.5q-26 -190 -141 -288t-232 -192q-138 -112 -196.5 -182t11.5 -74q22 -2 169.5 -1t162.5 7q42 18 83.5 20.5t59.5 -24.5q24 -36 5.5 -79.5 t-45.5 -85.5q-58 -86 -219 -82q-128 3 -256 5.5t-255 3.5q-33 0 -66.5 7t-44.5 62q-11 51 30.5 128.5t171.5 195.5q89 81 185 155.5t189 152.5q58 50 103.5 113t49.5 153q2 49 -38 88.5t-111 42.5q-96 4 -159.5 -37.5t-109.5 -97.5z"/>
   <glyph glyph-name="three" horiz-adv-x="878" unicode="3" d="M524 1069q-87 0 -172.5 1t-169.5 19q-50 10 -61 103q-6 48 21.5 79.5t122.5 31.5q105 0 211 2.5t212 -0.5q95 -3 122 -41t25 -98q-5 -120 -66 -173t-131 -101q-23 -16 0 -26q222 -106 171 -353q-50 -243 -237.5 -374.5t-469.5 -176.5q-74 -10 -77 61q-2 69 64 86 q174 42 305.5 134.5t159.5 298.5q11 81 -58 113t-164 52q-51 10 -67 55t30 95q49 54 117.5 87.5t127.5 79.5q19 15 13.5 29.5t-29.5 15.5z"/>
   <glyph glyph-name="four" horiz-adv-x="915" unicode="4" d="M335 534q45 0 90 1l90 2q18 100 36 200.5t36 201.5q-78 -89 -150 -180.5t-134 -188.5q-24 -40 32 -36zM737 543q14 0 44 2q100 5 104 -22q9 -88 -25.5 -128.5t-88.5 -47.5q-20 -3 -40 -5.5t-39 -4.5q-30 -138 -57 -276q-14 -67 -47 -81t-77 -3q-94 25 -75 125 q9 53 18.5 105.5t19.5 106.5q-85 -6 -169.5 -6.5t-167.5 9.5q-78 9 -105.5 72t16.5 128q147 220 312.5 428t336.5 411q21 25 50.5 20.5t53.5 -20.5q87 -63 69 -163q-29 -164 -63.5 -326t-69.5 -324z"/>
   <glyph glyph-name="five" horiz-adv-x="796" unicode="5" d="M143 1191q6 56 46 104t212 67q377 41 363 -127q-7 -81 -49.5 -103t-103.5 -16q-51 4 -102.5 3.5t-102.5 2.5q-70 2 -82 -46q-9 -34 -14.5 -69.5t-13.5 -69.5q-10 -40 26 -40q195 0 310.5 -78.5t114.5 -240.5q-4 -349 -209 -459t-447 -152q-58 -9 -64 70q-8 71 64 90 q135 34 250 103t146 272q34 235 -333 197q-54 -6 -74.5 17t-7.5 95q18 94 39 189t32 191z"/>
   <glyph glyph-name="six" horiz-adv-x="952" unicode="6" d="M874 1224q-430 -142 -573 -469q-28 -67 27 -12q44 43 102 76.5t130 32.5q156 -6 248 -132.5t68 -295.5q-34 -242 -156 -341t-290 -100q-157 0 -285 113.5t-113 350.5q22 341 228.5 610t554.5 320q55 8 84 -17.5t29 -48.5q1 -71 -54 -87zM494 622q-99 3 -159 -64t-66 -153 q-8 -110 47.5 -168.5t127.5 -58.5q63 0 122.5 46.5t86.5 145.5q25 92 -15 169.5t-144 82.5z"/>
   <glyph glyph-name="seven" horiz-adv-x="874" unicode="7" d="M492 1066q-84 1 -176.5 -2.5t-175.5 5.5q-113 12 -76 139q36 126 143 118q122 -9 241 -14.5t236 6.5q1 0 2.5 0.5t2.5 0.5q46 9 85 6t54 -33q43 -87 -17 -182q-325 -515 -573 -1069q-42 -92 -118 -77q-39 8 -60.5 53t9.5 143q72 227 190.5 452.5t232.5 453.5z"/>
   <glyph glyph-name="eight" horiz-adv-x="978" unicode="8" d="M606 565q-34 45 -91 84q-102 -40 -164 -84q-112 -78 -125 -191q-9 -75 38 -132.5t154 -57.5q98 -2 157.5 55t74.5 135q19 104 -44 191zM598 1376q174 -4 265.5 -116.5t76.5 -246.5q-10 -82 -63.5 -159t-155.5 -128q51 -30 93 -68t64 -93q33 -81 25 -169 q-15 -171 -161 -298t-332 -123q-168 3 -275.5 117t-110.5 261q-4 113 60 212q78 125 241 191q-168 114 -157 276q8 136 135.5 241.5t294.5 102.5zM583 1168q-82 5 -129 -33t-55 -94q-9 -57 25.5 -119.5t116.5 -103.5q165 52 181 196t-139 154z"/>
   <glyph glyph-name="nine" horiz-adv-x="951" unicode="9" d="M77 138q429 138 573 468q29 67 -27 12q-44 -43 -102.5 -77t-128.5 -31q-157 4 -249 131t-68 297q34 241 156.5 340.5t290.5 100.5q156 0 284 -114t113 -351q-22 -341 -228.5 -610.5t-554.5 -318.5q-56 -8 -84.5 16.5t-28.5 48.5q0 70 54 88zM457 740q99 -5 159 62t66 154 q6 76 -40 145t-132 71q-77 1 -135 -55.5t-76 -124.5q-26 -93 13.5 -171t144.5 -81z"/>
   <glyph glyph-name="zero" horiz-adv-x="1107" unicode="0" d="M61 713q36 273 233.5 460.5t384.5 184.5q163 -4 284.5 -186.5t85.5 -519.5q-31 -288 -195 -472.5t-370 -201.5q-224 -18 -343.5 210t-79.5 525zM296 692q-49 -272 20 -390.5t191 -110.5q105 6 194.5 106.5t126.5 406.5q20 160 -22 275.5t-158 134.5q-123 20 -219 -100 t-133 -322z"/>
   <glyph glyph-name="parenright" horiz-adv-x="822" unicode=")" d="M113 -326q-46 -50 -75 -9t1 86q393 584 466 977t-202 687q-51 55 -20.5 109.5t51.5 73.5q59 49 174 -61q306 -296 258.5 -753t-653.5 -1110z"/>
   <glyph glyph-name="quotedbl" horiz-adv-x="683" unicode='&quot;' d="M355 970q12 85 19.5 171t16.5 172q9 93 33.5 181t108.5 110q93 24 111.5 -17t2.5 -115q-37 -171 -78.5 -310t-98.5 -265q-33 -74 -88 -43q-41 21 -27 116zM39 970q12 85 19.5 171t16.5 172q9 93 33.5 181t108.5 110q93 24 111.5 -17t2.5 -115q-37 -171 -78.5 -310 t-98.5 -265q-33 -74 -88 -43q-41 21 -27 116z"/>
   <glyph glyph-name="equal" horiz-adv-x="854" unicode="=" d="M161 696q107 41 237.5 43t272.5 -6q159 -10 132 -96q-17 -55 -43 -66.5t-67 -15.5q-121 -10 -241 -6.5t-237 14.5q-87 7 -112 54t58 79zM105 412q107 41 237.5 43t272.5 -6q159 -10 132 -96q-17 -55 -43 -66.5t-67 -15.5q-121 -10 -241 -6.5t-237 14.5q-87 7 -112 54 t58 79z"/>
   <glyph glyph-name="cedilla" horiz-adv-x="389" unicode="¸" d="M114 129q21 18 62.5 20.5t50.5 -24.5q10 -33 -41 -61.5t-32 -57.5q24 -38 85.5 -26t93.5 -21q50 -53 -7 -118t-118 -87q-46 -18 -102 -28q-41 -7 -71 35q-16 23 12 48q36 33 97.5 33.5t63.5 48.5q1 42 -68.5 34t-86.5 30q-16 36 7 92t54 82z"/>
   <glyph glyph-name="section" horiz-adv-x="1120" unicode="§" d="M400 1141q57 45 115 -2q28 -26 36 -49q-36 156 -1 282.5t128 186.5q127 82 249 58q64 -13 110.5 -58t60 -88t-14 -66.5t-109.5 7.5q-95 34 -169.5 -18.5t-51.5 -136.5q27 -108 65.5 -233t94.5 -251q86 -197 13 -378t-277 -340q-15 -12 -33 -17q25 -138 3.5 -245.5 t-96.5 -156.5q-141 -91 -290.5 -43.5t-203.5 141.5q-17 31 -18 72.5t32 69.5q46 42 111 11q30 -15 52.5 -44.5t54.5 -43.5q120 -54 164 -7t23 146q-24 106 -98 214.5t-129 235.5q-87 197 -57 395.5t236 357.5zM553 1084q1 -15 -6 -25q-153 -193 -140 -357.5t94 -329.5 q42 -85 78 -190q148 126 160.5 306t-88.5 355q-71 123 -98 241z"/>
   <glyph glyph-name="endash" horiz-adv-x="869" unicode="–" d="M57 397q-39 27 -19.5 77.5t55.5 52.5q157 4 313.5 -6t314.5 8q102 12 111 -59q8 -76 -28 -131.5t-107 -61.5q-78 -7 -174.5 2t-188 26.5t-167 41.5t-110.5 50z"/>
   <glyph glyph-name="emdash" horiz-adv-x="1254" unicode="—" d="M75 400q-57 28 -28 80t81 54q231 4 461 -6.5t461 8.5q150 12 163 -61q12 -78 -41 -135t-157 -63q-114 -7 -255.5 2t-276.5 27t-246 43t-162 51z"/>
   <glyph glyph-name="uni00AD" horiz-adv-x="869" unicode="­" d="M57 397q-39 27 -19.5 77.5t55.5 52.5q157 4 313.5 -6t314.5 8q102 12 111 -59q8 -76 -28 -131.5t-107 -61.5q-78 -7 -174.5 2t-188 26.5t-167 41.5t-110.5 50z"/>
   <glyph glyph-name="quotedblright" horiz-adv-x="691" unicode="”" d="M146 1494q0 42 28 78t82 37q69 0 84 -38.5t14 -92.5q-4 -216 -69.5 -373t-181.5 -281q-45 -48 -64.5 -5t-12.5 58q63 134 91 287t29 330zM461 1494q0 42 28 78t82 37q69 0 84 -38.5t15 -92.5q-5 -216 -70.5 -373t-181.5 -281q-45 -48 -64.5 -5t-12.5 58q64 134 91.5 287 t28.5 330z"/>
   <glyph glyph-name="quotedblleft" horiz-adv-x="691" unicode="“" d="M545 891q0 -42 -28 -78t-82 -37q-69 0 -84 38.5t-14 92.5q4 216 69.5 373t181.5 281q45 48 64.5 5t12.5 -58q-63 -134 -91 -287t-29 -330zM230 891q0 -42 -28 -78t-82 -37q-69 0 -84 38.5t-15 92.5q5 216 70.5 373t181.5 281q45 48 64.5 5t12.5 -58q-64 -134 -91.5 -287 t-28.5 -330z"/>
   <glyph glyph-name="quoteright" horiz-adv-x="357" unicode="’" d="M136 1494q0 42 28 78t82 37q69 0 84 -38.5t14 -92.5q-4 -216 -69.5 -373t-181.5 -281q-45 -48 -64.5 -5t-12.5 58q63 134 91 287t29 330z"/>
   <glyph glyph-name="quoteleft" horiz-adv-x="357" unicode="‘" d="M221 891q0 -42 -28 -78t-82 -37q-69 0 -84 38.5t-15 92.5q5 216 70.5 373t181.5 281q45 48 64.5 5t12.5 -58q-64 -134 -91.5 -287t-28.5 -330z"/>
   <glyph glyph-name="odieresis" horiz-adv-x="764" unicode="ö" d="M19 328q0 172 132 313.5t279 151.5q115 7 212.5 -72.5t90.5 -229.5q-9 -193 -103 -319.5t-265 -153.5q-141 -21 -243.5 75t-102.5 235zM270 1245q57 1 87 -52t29 -113q-5 -162 -114 -160q-110 0 -105 157q4 163 103 168zM624 1242q58 2 84 -51t21 -113 q-16 -161 -125 -161q-110 1 -94 158q15 164 114 167zM229 383q1 -85 52.5 -119t111.5 -27q136 15 146 190q3 61 -34.5 110t-118.5 57q-63 5 -111.5 -49t-45.5 -162z"/>
   <glyph glyph-name="dieresis" horiz-adv-x="630" unicode="¨" d="M137 1245q57 1 87 -52t29 -113q-5 -162 -114 -160q-110 0 -105 157q4 163 103 168zM491 1242q58 2 84 -51t21 -113q-16 -161 -125 -161q-110 1 -94 158q15 164 114 167z"/>
   <glyph glyph-name="acute" horiz-adv-x="462" unicode="´" d="M435 1127q15 -12 13 -38t-14 -41q-106 -134 -311 -183q-54 -14 -110 23q-9 6 -3 19.5t19 16.5q104 25 161.5 89.5t105.5 139.5q15 24 65.5 7.5t73.5 -33.5z"/>
   <glyph glyph-name="ccedilla" horiz-adv-x="664" unicode="ç" d="M531 554q-30 49 -80 65.5t-103 -25.5q-79 -63 -90.5 -166t56.5 -174q53 -56 120.5 -30t137.5 77q24 17 46 1t8 -52q-32 -86 -136 -147.5t-221 -64.5q-13 -18 -4 -32q24 -38 85 -26t94 -21q50 -53 -7.5 -118t-117.5 -87q-46 -18 -102 -28q-41 -7 -71 35q-16 23 12 48 q36 33 97 33.5t64 48.5q1 42 -68.5 34t-86.5 30q-16 38 10 100q-68 28 -112 94.5t-44 141.5q0 81 24 174.5t136 216.5q100 109 236.5 118t209.5 -55q82 -75 18 -164q-69 -100 -111 -27z"/>
   <glyph glyph-name="quotedblbase" horiz-adv-x="691" unicode="„" d="M146 252q0 42 28 78t82 37q69 0 84 -39t14 -92q-4 -215 -69.5 -371.5t-181.5 -282.5q-45 -48 -64.5 -4t-12.5 58q63 134 91 286.5t29 329.5zM461 252q0 42 28 78t82 37q69 0 84 -39t15 -92q-5 -215 -70.5 -371.5t-181.5 -282.5q-45 -48 -64.5 -4t-12.5 58 q64 134 91.5 286.5t28.5 329.5z"/>
   <glyph glyph-name="quotesinglbase" horiz-adv-x="356" unicode="‚" d="M136 252q0 42 28 78t82 37q69 0 84 -39t14 -92q-4 -215 -69.5 -371.5t-181.5 -282.5q-45 -48 -64.5 -4t-12.5 58q63 134 91 286.5t29 329.5z"/>
   <glyph glyph-name="grave" horiz-adv-x="367" unicode="`" d="M33 1135q21 16 66.5 32.5t54.5 -7.5q29 -75 68.5 -139.5t123.5 -89.5q10 -3 13.5 -16.5t-4.5 -18.5q-56 -37 -97 -24q-166 49 -236 183q-9 15 -6.5 41.5t17.5 38.5z"/>
   <glyph glyph-name="ntilde" horiz-adv-x="991" unicode="ñ" d="M69 554q-34 70 -13.5 135.5t71.5 68.5q69 3 145.5 -53t42.5 -199q-27 -118 45 -33q177 210 258.5 243t135.5 -9q62 -51 62 -123.5t-33 -158.5q-30 -75 -10.5 -95.5t94.5 54.5q110 110 78 -67q-15 -82 -59.5 -138t-101.5 -94q-143 -96 -216 50q-59 117 -9 244 q50 124 -63 26q-94 -83 -163.5 -169t-130.5 -176q-40 -59 -114 12q-66 63 -24 175q68 177 5 307zM187 971q51 40 108 87t118 41q50 -6 94.5 -66.5t94.5 -68.5q24 -4 39.5 34.5t35.5 54.5q15 11 41 4t43 -14q21 -11 21.5 -47t-11.5 -56q-28 -48 -73.5 -91.5t-100.5 -46.5 q-101 -6 -136.5 59t-68.5 68q-36 3 -76.5 -49.5t-97.5 -55.5q-27 -3 -46.5 25.5t-24.5 55.5q-4 18 10.5 36t29.5 30z"/>
   <glyph glyph-name="tilde" horiz-adv-x="679" unicode="˜" d="M63 971q51 40 108 87t118 41q50 -6 94.5 -66.5t94.5 -68.5q24 -4 39.5 34.5t35.5 54.5q15 11 41 4t43 -14q21 -11 21.5 -47t-11.5 -56q-28 -48 -73.5 -91.5t-100.5 -46.5q-101 -6 -136.5 59t-68.5 68q-36 3 -76.5 -49.5t-97.5 -55.5q-27 -3 -46.5 25.5t-24.5 55.5 q-4 18 10.5 36t29.5 30z"/>
   <glyph glyph-name="atilde" horiz-adv-x="969" unicode="ã" d="M551 229q-61 -63 -125 -113.5t-141 -63.5q-92 -16 -163 53.5t-85 173.5q-17 125 67.5 256.5t238.5 220.5q103 60 181 42.5t108 -65.5q25 -41 85 -34q63 7 81.5 -40.5t-7.5 -110.5q-72 -176 -34 -221.5t132 31.5q26 21 44.5 10.5t11.5 -52.5q-45 -249 -186 -253.5 t-208 166.5zM482 577q-106 16 -174 -109q-39 -74 -24 -121t75 -47q111 1 164 111q25 51 14.5 105t-55.5 61zM202 971q51 40 108 87t118 41q50 -6 94.5 -66.5t94.5 -68.5q24 -4 39.5 34.5t35.5 54.5q15 11 41 4t43 -14q21 -11 21.5 -47t-11.5 -56q-28 -48 -73.5 -91.5 t-100.5 -46.5q-101 -6 -136.5 59t-68.5 68q-36 3 -76.5 -49.5t-97.5 -55.5q-27 -3 -46.5 25.5t-24.5 55.5q-4 18 10.5 36t29.5 30z"/>
   <glyph glyph-name="ellipsis" horiz-adv-x="1102" unicode="…" d="M35 158q8 92 60 140.5t113 48.5q56 0 82 -38.5t25 -78.5q-5 -108 -62 -164.5t-115 -56.5q-39 0 -73.5 45.5t-29.5 103.5zM413 158q8 92 60 140.5t113 48.5q56 0 82 -38.5t25 -78.5q-5 -108 -62 -164.5t-115 -56.5q-39 0 -73.5 45.5t-29.5 103.5zM791 158q8 92 60 140.5 t113 48.5q56 0 82 -38.5t25 -78.5q-5 -108 -62 -164.5t-115 -56.5q-39 0 -73.5 45.5t-29.5 103.5z"/>
   <glyph glyph-name="circumflex" horiz-adv-x="608" unicode="ˆ" d="M87 1006q42 27 77 58t65 60q18 18 48 44q21 18 58.5 14t54.5 -21q39 -41 67.5 -93.5t94.5 -94.5q41 -27 0 -64q-44 -40 -82 -53q-51 27 -84 87t-71 60q-36 -1 -78.5 -55.5t-93.5 -75.5q-27 -12 -65.5 8t-50.5 41q-13 21 10.5 45t49.5 40z"/>
   <glyph glyph-name="Atilde" horiz-adv-x="1267" unicode="Ã" d="M58 306q58 49 91.5 118t80.5 132q9 12 79.5 141.5t156 287.5t162.5 300.5t98 180.5q24 45 58 81.5t82 38.5q78 1 98.5 -35.5t25.5 -78.5q33 -286 76 -570.5t86 -569.5q4 -31 31 -51q57 -41 55 -109q-3 -42 -21 -79t-59 -45q-112 -23 -227 -16.5t-226 24.5q-40 6 -53 89 q-11 66 55 100q39 21 80.5 36.5t82.5 33.5q24 10 24 29q-4 44 -8 88.5t-7 89.5q-211 -13 -438 2q-37 -72 -66 -136q-44 -89 52 -90q123 -2 103 -122q-18 -105 -130 -126q-91 -18 -180 -19.5t-167 30.5q-33 12 -39 50t-5 71q3 86 49 124zM859 722q-10 90 -22.5 179t-30.5 179 q-6 21 -24 28.5t-35 -22.5q-109 -185 -204 -364h316zM643 1766q51 40 108 87t118 41q50 -6 94.5 -66.5t94.5 -68.5q24 -4 39.5 34.5t35.5 54.5q15 11 41 4t43 -14q21 -11 21.5 -47t-11.5 -56q-28 -48 -73.5 -91.5t-100.5 -46.5q-101 -6 -136.5 59t-68.5 68 q-36 3 -76.5 -49.5t-97.5 -55.5q-27 -3 -46.5 25.5t-24.5 55.5q-4 18 10.5 36t29.5 30z"/>
   <glyph glyph-name="Adieresis" horiz-adv-x="1270" unicode="Ä" d="M59 306q58 49 91.5 118t80.5 132q9 12 79.5 141.5t156 287.5t162.5 300.5t98 180.5q24 45 58 81.5t82 38.5q78 1 98.5 -35.5t25.5 -78.5q33 -286 76 -570.5t86 -569.5q4 -31 31 -51q57 -41 55 -109q-3 -42 -21 -79t-59 -45q-112 -23 -227 -16.5t-226 24.5q-40 6 -53 89 q-11 66 55 100q39 21 80.5 36.5t82.5 33.5q24 10 24 29q-4 44 -8 88.5t-7 89.5q-211 -13 -438 2q-37 -72 -66 -136q-44 -89 52 -90q123 -2 103 -122q-18 -105 -130 -126q-91 -18 -180 -19.5t-167 30.5q-33 12 -39 50t-5 71q3 86 49 124zM860 722q-10 90 -22.5 179t-30.5 179 q-6 21 -24 28.5t-35 -22.5q-109 -185 -204 -364h316zM739 1972q57 1 87 -52t29 -113q-5 -162 -114 -160q-110 0 -105 157q4 163 103 168zM1093 1969q58 2 84 -51t21 -113q-16 -161 -125 -161q-110 1 -94 158q15 164 114 167z"/>
   <glyph glyph-name="agrave" horiz-adv-x="958" unicode="à" d="M547 229q-61 -63 -125 -113.5t-141 -63.5q-92 -16 -163 53.5t-85 173.5q-17 125 67.5 256.5t238.5 220.5q103 60 181 42.5t108 -65.5q25 -41 85 -34q63 7 81.5 -40.5t-7.5 -110.5q-72 -176 -34 -221.5t132 31.5q26 21 44.5 10.5t11.5 -52.5q-45 -249 -186 -253.5 t-208 166.5zM478 577q-106 16 -174 -109q-39 -74 -24 -121t75 -47q111 1 164 111q25 51 14.5 105t-55.5 61zM319 1135q21 16 66.5 32.5t54.5 -7.5q29 -75 68.5 -139.5t123.5 -89.5q10 -3 13.5 -16.5t-4.5 -18.5q-56 -37 -97 -24q-166 49 -236 183q-9 15 -6.5 41.5t17.5 38.5 z"/>
   <glyph glyph-name="aacute" horiz-adv-x="959" unicode="á" d="M544 229q-61 -63 -125 -113.5t-141 -63.5q-92 -16 -163 53.5t-85 173.5q-17 125 67.5 256.5t238.5 220.5q103 60 181 42.5t108 -65.5q25 -41 85 -34q63 7 81.5 -40.5t-7.5 -110.5q-72 -176 -34 -221.5t132 31.5q26 21 44.5 10.5t11.5 -52.5q-45 -249 -186 -253.5 t-208 166.5zM475 577q-106 16 -174 -109q-39 -74 -24 -121t75 -47q111 1 164 111q25 51 14.5 105t-55.5 61zM680 1127q15 -12 13 -38t-14 -41q-106 -134 -311 -183q-54 -14 -110 23q-9 6 -3 19.5t19 16.5q104 25 161.5 89.5t105.5 139.5q15 24 65.5 7.5t73.5 -33.5z"/>
   <glyph glyph-name="acircumflex" horiz-adv-x="962" unicode="â" d="M547 229q-61 -63 -125 -113.5t-141 -63.5q-92 -16 -163 53.5t-85 173.5q-17 125 67.5 256.5t238.5 220.5q103 60 181 42.5t108 -65.5q25 -41 85 -34q63 7 81.5 -40.5t-7.5 -110.5q-72 -176 -34 -221.5t132 31.5q26 21 44.5 10.5t11.5 -52.5q-45 -249 -186 -253.5 t-208 166.5zM478 577q-106 16 -174 -109q-39 -74 -24 -121t75 -47q111 1 164 111q25 51 14.5 105t-55.5 61zM270 1006q42 27 77 58t65 60q18 18 48 44q21 18 58.5 14t54.5 -21q39 -41 67.5 -93.5t94.5 -94.5q41 -27 0 -64q-44 -40 -82 -53q-51 27 -84 87t-71 60 q-36 -1 -78.5 -55.5t-93.5 -75.5q-27 -12 -65.5 8t-50.5 41q-13 21 10.5 45t49.5 40z"/>
   <glyph glyph-name="ring" horiz-adv-x="471" unicode="˚" d="M21 974q0 94 78.5 171t165.5 82q69 4 127 -39t53 -125q-5 -105 -61 -173.5t-157 -83.5q-84 -11 -145 41t-61 127zM146 1004q0 -46 31 -64.5t66 -14.5q81 8 87 103q2 33 -20.5 60t-70.5 31q-37 3 -66 -26.5t-27 -88.5z"/>
   <glyph glyph-name="aring" horiz-adv-x="962" unicode="å" d="M545 229q-61 -63 -125 -113.5t-141 -63.5q-92 -16 -163 53.5t-85 173.5q-17 125 67.5 256.5t238.5 220.5q103 60 181 42.5t108 -65.5q25 -41 85 -34q63 7 81.5 -40.5t-7.5 -110.5q-72 -176 -34 -221.5t132 31.5q26 21 44.5 10.5t11.5 -52.5q-45 -249 -186 -253.5 t-208 166.5zM476 577q-106 16 -174 -109q-39 -74 -24 -121t75 -47q111 1 164 111q25 51 14.5 105t-55.5 61zM302 974q0 94 78.5 171t165.5 82q69 4 127 -39t53 -125q-5 -105 -61 -173.5t-157 -83.5q-84 -11 -145 41t-61 127zM427 1004q0 -46 31 -64.5t66 -14.5q81 8 87 103 q2 33 -20.5 60t-70.5 31q-37 3 -66 -26.5t-27 -88.5z"/>
   <glyph glyph-name="egrave" horiz-adv-x="720" unicode="è" d="M320 41q-126 2 -214 91t-86 237q1 150 133 297t282 147q123 -1 198.5 -68.5t63.5 -155.5q-18 -127 -127 -165.5t-239 -18.5q-37 5 -44 -20q-15 -61 1 -85q42 -66 122 -73.5t214 70.5q27 15 41.5 -0.5t2.5 -51.5q-20 -63 -130 -134.5t-218 -69.5zM458 652 q-96 -11 -138 -88q-37 -65 55 -52h0.5h1.5q47 9 86 30t54 67q16 50 -59 43zM189 1135q21 16 66.5 32.5t54.5 -7.5q29 -75 68.5 -139.5t123.5 -89.5q10 -3 13.5 -16.5t-4.5 -18.5q-56 -37 -97 -24q-166 49 -236 183q-9 15 -6.5 41.5t17.5 38.5z"/>
   <glyph glyph-name="eacute" horiz-adv-x="721" unicode="é" d="M316 41q-126 2 -214 91t-86 237q1 150 133 297t282 147q123 -1 198.5 -68.5t63.5 -155.5q-18 -127 -127 -165.5t-239 -18.5q-37 5 -44 -20q-15 -61 1 -85q42 -66 122 -73.5t214 70.5q27 15 41.5 -0.5t2.5 -51.5q-20 -63 -130 -134.5t-218 -69.5zM454 652 q-96 -11 -138 -88q-37 -65 55 -52h0.5h1.5q47 9 86 30t54 67q16 50 -59 43zM548 1127q15 -12 13 -38t-14 -41q-106 -134 -311 -183q-54 -14 -110 23q-9 6 -3 19.5t19 16.5q104 25 161.5 89.5t105.5 139.5q15 24 65.5 7.5t73.5 -33.5z"/>
   <glyph glyph-name="ecircumflex" horiz-adv-x="770" unicode="ê" d="M317 41q-126 2 -214 91t-86 237q1 150 133 297t282 147q123 -1 198.5 -68.5t63.5 -155.5q-18 -127 -127 -165.5t-239 -18.5q-37 5 -44 -20q-15 -61 1 -85q42 -66 122 -73.5t214 70.5q27 15 41.5 -0.5t2.5 -51.5q-20 -63 -130 -134.5t-218 -69.5zM455 652 q-96 -11 -138 -88q-37 -65 55 -52h0.5h1.5q47 9 86 30t54 67q16 50 -59 43zM247 1006q42 27 77 58t65 60q18 18 48 44q21 18 58.5 14t54.5 -21q39 -41 67.5 -93.5t94.5 -94.5q41 -27 0 -64q-44 -40 -82 -53q-51 27 -84 87t-71 60q-36 -1 -78.5 -55.5t-93.5 -75.5 q-27 -12 -65.5 8t-50.5 41q-13 21 10.5 45t49.5 40z"/>
   <glyph glyph-name="edieresis" horiz-adv-x="802" unicode="ë" d="M320 41q-126 2 -214 91t-86 237q1 150 133 297t282 147q123 -1 198.5 -68.5t63.5 -155.5q-18 -127 -127 -165.5t-239 -18.5q-37 5 -44 -20q-15 -61 1 -85q42 -66 122 -73.5t214 70.5q27 15 41.5 -0.5t2.5 -51.5q-20 -63 -130 -134.5t-218 -69.5zM458 652 q-96 -11 -138 -88q-37 -65 55 -52h0.5h1.5q47 9 86 30t54 67q16 50 -59 43zM318 1245q57 1 87 -52t29 -113q-5 -162 -114 -160q-110 0 -105 157q4 163 103 168zM672 1242q58 2 84 -51t21 -113q-16 -161 -125 -161q-110 1 -94 158q15 164 114 167z"/>
   <glyph glyph-name="igrave" horiz-adv-x="489" unicode="ì" d="M102 703q37 95 155 38q66 -32 66 -70.5t-21 -90.5q-90 -219 -52.5 -260.5t171.5 89.5q43 42 53 29t4 -64q-21 -159 -111 -252q-134 -134 -234 -59t-108 211q-5 66 15 194t62 235zM73 1135q21 16 66.5 32.5t54.5 -7.5q29 -75 68.5 -139.5t123.5 -89.5q10 -3 13.5 -16.5 t-4.5 -18.5q-56 -37 -97 -24q-166 49 -236 183q-9 15 -6.5 41.5t17.5 38.5z"/>
   <glyph glyph-name="iacute" horiz-adv-x="505" unicode="í" d="M110 703q37 95 155 38q66 -32 66 -70.5t-21 -90.5q-90 -219 -52.5 -260.5t171.5 89.5q43 42 53 29t4 -64q-21 -159 -111 -252q-134 -134 -234 -59t-108 211q-5 66 15 194t62 235zM444 1127q15 -12 13 -38t-14 -41q-106 -134 -311 -183q-54 -14 -110 23q-9 6 -3 19.5 t19 16.5q104 25 161.5 89.5t105.5 139.5q15 24 65.5 7.5t73.5 -33.5z"/>
   <glyph glyph-name="icircumflex" horiz-adv-x="601" unicode="î" d="M176 703q37 95 155 38q66 -32 66 -70.5t-21 -90.5q-90 -219 -52.5 -260.5t171.5 89.5q43 42 53 29t4 -64q-21 -159 -111 -252q-134 -134 -234 -59t-108 211q-5 66 15 194t62 235zM85 1006q42 27 77 58t65 60q18 18 48 44q21 18 58.5 14t54.5 -21q39 -41 67.5 -93.5 t94.5 -94.5q41 -27 0 -64q-44 -40 -82 -53q-51 27 -84 87t-71 60q-36 -1 -78.5 -55.5t-93.5 -75.5q-27 -12 -65.5 8t-50.5 41q-13 21 10.5 45t49.5 40z"/>
   <glyph glyph-name="idieresis" horiz-adv-x="606" unicode="ï" d="M177 703q37 95 155 38q66 -32 66 -70.5t-21 -90.5q-90 -219 -52.5 -260.5t171.5 89.5q43 42 53 29t4 -64q-21 -159 -111 -252q-134 -134 -234 -59t-108 211q-5 66 15 194t62 235zM125 1245q57 1 87 -52t29 -113q-5 -162 -114 -160q-110 0 -105 157q4 163 103 168z M479 1242q58 2 84 -51t21 -113q-16 -161 -125 -161q-110 1 -94 158q15 164 114 167z"/>
   <glyph glyph-name="eth" horiz-adv-x="982" unicode="ð" d="M821 1262q15 -12 13 -38t-14 -41q-28 -29 -58 -54q49 -59 82 -129q119 -251 63 -558q-57 -237 -219.5 -351t-318.5 -114q-168 1 -260 100.5t-53 340.5q27 170 157.5 297t288.5 131q71 3 119.5 -31t79.5 -77q39 -55 30 12q-22 161 -125 276q-80 -41 -171 -64 q-54 -14 -110 23q-9 6 -3 19.5t19 16.5q90 22 174 87q-90 65 -215 110q-48 18 -27 88q7 24 43 48.5t90 16.5q140 -53 242 -131q19 25 34 48q15 24 65.5 7.5t73.5 -33.5zM498 616q-106 -3 -169.5 -81t-65.5 -171q-2 -68 38.5 -124.5t118.5 -55.5q86 2 153 71t84 145 q21 87 -19 154t-140 62z"/>
   <glyph glyph-name="ograve" horiz-adv-x="750" unicode="ò" d="M17 328q0 172 132 313.5t279 151.5q115 7 212.5 -72.5t90.5 -229.5q-9 -193 -103 -319.5t-265 -153.5q-141 -21 -243.5 75t-102.5 235zM227 383q1 -85 52.5 -119t111.5 -27q136 15 146 190q3 61 -34.5 110t-118.5 57q-63 5 -111.5 -49t-45.5 -162zM203 1135 q21 16 66.5 32.5t54.5 -7.5q29 -75 68.5 -139.5t123.5 -89.5q10 -3 13.5 -16.5t-4.5 -18.5q-56 -37 -97 -24q-166 49 -236 183q-9 15 -6.5 41.5t17.5 38.5z"/>
   <glyph glyph-name="oacute" horiz-adv-x="750" unicode="ó" d="M13 328q0 172 132 313.5t279 151.5q115 7 212.5 -72.5t90.5 -229.5q-9 -193 -103 -319.5t-265 -153.5q-141 -21 -243.5 75t-102.5 235zM223 383q1 -85 52.5 -119t111.5 -27q136 15 146 190q3 61 -34.5 110t-118.5 57q-63 5 -111.5 -49t-45.5 -162zM562 1127 q15 -12 13 -38t-14 -41q-106 -134 -311 -183q-54 -14 -110 23q-9 6 -3 19.5t19 16.5q104 25 161.5 89.5t105.5 139.5q15 24 65.5 7.5t73.5 -33.5z"/>
   <glyph glyph-name="ocircumflex" horiz-adv-x="755" unicode="ô" d="M15 328q0 172 132 313.5t279 151.5q115 7 212.5 -72.5t90.5 -229.5q-9 -193 -103 -319.5t-265 -153.5q-141 -21 -243.5 75t-102.5 235zM225 383q1 -85 52.5 -119t111.5 -27q136 15 146 190q3 61 -34.5 110t-118.5 57q-63 5 -111.5 -49t-45.5 -162zM212 1009q42 27 77 58 t65 60q18 18 48 44q21 18 58.5 14t54.5 -21q39 -41 67.5 -93.5t94.5 -94.5q41 -27 0 -64q-44 -40 -82 -53q-51 27 -84 87t-71 60q-36 -1 -78.5 -55.5t-93.5 -75.5q-27 -12 -65.5 8t-50.5 41q-13 21 10.5 45t49.5 40z"/>
   <glyph glyph-name="otilde" horiz-adv-x="786" unicode="õ" d="M19 328q0 172 132 313.5t279 151.5q115 7 212.5 -72.5t90.5 -229.5q-9 -193 -103 -319.5t-265 -153.5q-141 -21 -243.5 75t-102.5 235zM229 383q1 -85 52.5 -119t111.5 -27q136 15 146 190q3 61 -34.5 110t-118.5 57q-63 5 -111.5 -49t-45.5 -162zM170 1010q51 40 108 87 t118 41q50 -6 94.5 -66.5t94.5 -68.5q24 -4 39.5 34.5t35.5 54.5q15 11 41 4t43 -14q21 -11 21.5 -47t-11.5 -56q-28 -48 -73.5 -91.5t-100.5 -46.5q-101 -6 -136.5 59t-68.5 68q-36 3 -76.5 -49.5t-97.5 -55.5q-27 -3 -46.5 25.5t-24.5 55.5q-4 18 10.5 36t29.5 30z"/>
   <glyph glyph-name="oslash" horiz-adv-x="760" unicode="ø" d="M19 328q0 172 132 313.5t279 151.5q115 7 212.5 -72.5t90.5 -229.5q-9 -193 -103 -319.5t-265 -153.5q-141 -21 -243.5 75t-102.5 235zM229 383q1 -85 52.5 -119t111.5 -27q136 15 146 190q3 61 -34.5 110t-118.5 57q-63 5 -111.5 -49t-45.5 -162zM108 45 q99 196 191.5 394.5t209.5 387.5q13 22 48.5 22t59.5 -16q35 -23 27.5 -62.5t-24.5 -75.5q-88 -185 -201.5 -358.5t-213.5 -350.5q-14 -26 -28.5 -26.5t-33.5 6.5q-64 21 -35 79z"/>
   <glyph glyph-name="ugrave" horiz-adv-x="969" unicode="ù" d="M97 572q-67 16 -72.5 59t102.5 100q92 49 141.5 41.5t69.5 -44.5q36 -72 18.5 -136t-33.5 -130q-25 -97 3.5 -107t67.5 46q55 78 109 163t114 163q27 36 61.5 38.5t90.5 -46.5q63 -55 52 -126.5t-29 -148.5q-61 -250 66 -156q55 41 78 3t-23 -101q-90 -126 -186.5 -143.5 t-160.5 45.5q-68 64 -6 248q22 67 5 68.5t-53 -59.5q-127 -216 -202.5 -282.5t-153.5 11.5q-141 140 -51 323q73 150 -8 171zM322 1135q21 16 66.5 32.5t54.5 -7.5q29 -75 68.5 -139.5t123.5 -89.5q10 -3 13.5 -16.5t-4.5 -18.5q-56 -37 -97 -24q-166 49 -236 183 q-9 15 -6.5 41.5t17.5 38.5z"/>
   <glyph glyph-name="uacute" d="M95 572q-67 16 -72.5 59t102.5 100q92 49 141.5 41.5t69.5 -44.5q36 -72 18.5 -136t-33.5 -130q-25 -97 3.5 -107t67.5 46q55 78 109 163t114 163q27 36 61.5 38.5t90.5 -46.5q63 -55 52 -126.5t-29 -148.5q-61 -250 66 -156q55 41 78 3t-23 -101q-90 -126 -186.5 -143.5 t-160.5 45.5q-68 64 -6 248q22 67 5 68.5t-53 -59.5q-127 -216 -202.5 -282.5t-153.5 11.5q-141 140 -51 323q73 150 -8 171zM684 1127q15 -12 13 -38t-14 -41q-106 -134 -311 -183q-54 -14 -110 23q-9 6 -3 19.5t19 16.5q104 25 161.5 89.5t105.5 139.5q15 24 65.5 7.5 t73.5 -33.5z" unicode="ú"/>
   <glyph glyph-name="ucircumflex" horiz-adv-x="973" unicode="û" d="M98 572q-67 16 -72.5 59t102.5 100q92 49 141.5 41.5t69.5 -44.5q36 -72 18.5 -136t-33.5 -130q-25 -97 3.5 -107t67.5 46q55 78 109 163t114 163q27 36 61.5 38.5t90.5 -46.5q63 -55 52 -126.5t-29 -148.5q-61 -250 66 -156q55 41 78 3t-23 -101q-90 -126 -186.5 -143.5 t-160.5 45.5q-68 64 -6 248q22 67 5 68.5t-53 -59.5q-127 -216 -202.5 -282.5t-153.5 11.5q-141 140 -51 323q73 150 -8 171zM262 1006q42 27 77 58t65 60q18 18 48 44q21 18 58.5 14t54.5 -21q39 -41 67.5 -93.5t94.5 -94.5q41 -27 0 -64q-44 -40 -82 -53q-51 27 -84 87 t-71 60q-36 -1 -78.5 -55.5t-93.5 -75.5q-27 -12 -65.5 8t-50.5 41q-13 21 10.5 45t49.5 40z"/>
   <glyph glyph-name="udieresis" horiz-adv-x="978" unicode="ü" d="M101 572q-67 16 -72.5 59t102.5 100q92 49 141.5 41.5t69.5 -44.5q36 -72 18.5 -136t-33.5 -130q-25 -97 3.5 -107t67.5 46q55 78 109 163t114 163q27 36 61.5 38.5t90.5 -46.5q63 -55 52 -126.5t-29 -148.5q-61 -250 66 -156q55 41 78 3t-23 -101 q-90 -126 -186.5 -143.5t-160.5 45.5q-68 64 -6 248q22 67 5 68.5t-53 -59.5q-127 -216 -202.5 -282.5t-153.5 11.5q-141 140 -51 323q73 150 -8 171zM304 1245q57 1 87 -52t29 -113q-5 -162 -114 -160q-110 0 -105 157q4 163 103 168zM658 1242q58 2 84 -51t21 -113 q-16 -161 -125 -161q-110 1 -94 158q15 164 114 167z"/>
   <glyph glyph-name="yacute" horiz-adv-x="945" unicode="ý" d="M96 385q-51 -49 -69 -23t13 116q27 81 72 139.5t89 93.5q107 85 187 20q60 -49 61 -96.5t-11 -146.5q-15 -106 -3.5 -123t85.5 59q54 56 107.5 111.5t98.5 119.5q62 91 94.5 93.5t68.5 -33.5q36 -37 37.5 -71.5t-1.5 -116.5q-5 -84 -39.5 -265.5t-94 -375t-142 -358 t-181.5 -214.5q-174 -86 -231.5 -100t-92.5 80q-31 84 -51 165.5t-38 154.5q-19 74 19 93q53 29 89 -56q125 -285 309 40q113 202 185 390.5t79 359.5q-58 -79 -125.5 -152.5t-136.5 -148.5q-60 -63 -110.5 -82.5t-110.5 25.5q-110 79 -53 232q97 259 -104 70zM880 1127 q15 -12 13 -38t-14 -41q-106 -134 -311 -183q-54 -14 -110 23q-9 6 -3 19.5t19 16.5q104 25 161.5 89.5t105.5 139.5q15 24 65.5 7.5t73.5 -33.5z"/>
   <glyph glyph-name="ydieresis" horiz-adv-x="950" unicode="ÿ" d="M100 385q-51 -49 -69 -23t13 116q27 81 72 139.5t89 93.5q107 85 187 20q60 -49 61 -96.5t-11 -146.5q-15 -106 -3.5 -123t85.5 59q54 56 107.5 111.5t98.5 119.5q62 91 94.5 93.5t68.5 -33.5q36 -37 37.5 -71.5t-1.5 -116.5q-5 -84 -39.5 -265.5t-94 -375t-142 -358 t-181.5 -214.5q-174 -86 -231.5 -100t-92.5 80q-31 84 -51 165.5t-38 154.5q-19 74 19 93q53 29 89 -56q125 -285 309 40q113 202 185 390.5t79 359.5q-58 -79 -125.5 -152.5t-136.5 -148.5q-60 -63 -110.5 -82.5t-110.5 25.5q-110 79 -53 232q97 259 -104 70zM463 1245 q57 1 87 -52t29 -113q-5 -162 -114 -160q-110 0 -105 157q4 163 103 168zM817 1242q58 2 84 -51t21 -113q-16 -161 -125 -161q-110 1 -94 158q15 164 114 167z"/>
   <glyph glyph-name="longs" horiz-adv-x="449" unicode="ſ" d="M-24 -430q61 390 135.5 778.5t153.5 776.5q41 222 132 341.5t195 115.5q57 -3 75.5 -57t18.5 -111q0 -77 -30.5 -118t-66.5 -36q-15 2 -31 15.5t-39 58.5q-51 -69 -77 -260.5t-50 -372.5q-45 -299 -91 -597t-88 -597q-17 -117 -138 -96t-99 159z"/>
   <glyph glyph-name="c_h" horiz-adv-x="1599" unicode="" d="M648 93q-41 50 -28 113q-83 -72 -189 -123.5t-185 -45.5q-96 8 -166.5 82.5t-70.5 171.5q0 81 24 174.5t136 216.5q100 109 236.5 118t209.5 -55q82 -75 18 -164q-69 -100 -111 -27q-30 49 -80 65.5t-103 -25.5q-79 -63 -87.5 -164t53.5 -176q62 -76 195 -8.5t173.5 169 t58.5 219t37 237.5q33 213 67.5 426.5t62.5 427.5q9 80 95 32q108 -62 124.5 -156t-11.5 -201q-48 -177 -91.5 -356t-92.5 -356q-46 -161 -34.5 -194.5t138.5 131.5q178 228 318 114q62 -51 56 -127t-25 -168q-19 -90 9 -88t85 56q116 109 94 -30q-24 -144 -97.5 -228.5 t-145.5 -92.5q-123 -15 -171.5 65.5t-8.5 233.5q19 78 2 96t-76 -45q-78 -84 -147 -173t-138 -177q-26 -33 -54.5 -33.5t-79.5 65.5z"/>
   <glyph glyph-name="c_k" horiz-adv-x="1422" unicode="" d="M657 100q-40 39 -35 95q-87 -81 -202 -136.5t-199 -28.5q-92 29 -153 96.5t-61 164.5q0 81 24 174.5t136 216.5q100 109 236.5 118t209.5 -55q82 -75 18 -164q-69 -100 -111 -27q-30 49 -80 65.5t-103 -25.5q-79 -63 -84.5 -161.5t50.5 -178.5q53 -77 180 -6t198 157 q82 274 129.5 597t89.5 659q5 39 26 78.5t73 24.5q210 -67 103 -445q-55 -191 -101.5 -384t-91.5 -386q-7 -26 6.5 -38t28.5 9q148 201 238 245.5t159 3.5q48 -29 43 -66.5t-37 -61.5q-63 -46 -134.5 -87.5t-102.5 -113.5q41 -60 98 -99t122 -12q66 27 70 3.5t-3 -47.5 q-50 -172 -103 -212.5t-115 15.5q-34 29 -65.5 61t-62.5 64q-29 30 -78 44.5t-121 -96.5q-63 -95 -94 -113.5t-101 52.5z"/>
   <glyph glyph-name="ff" horiz-adv-x="1179" unicode="ﬀ" d="M70 776q37 -3 74.5 -5t75.5 -3q55 211 117 383q77 216 179.5 325t206.5 106q57 -3 73 -57t14 -111q-4 -77 -36.5 -118t-68.5 -36q-14 2 -29.5 15.5t-36.5 58.5q-50 -64 -105 -233t-90 -341q148 -4 269 -2q26 189 57 367q39 222 126.5 341t191.5 116q58 -3 77 -57t21 -111 q1 -77 -29 -118t-66 -36q-14 2 -30.5 15.5t-40.5 58.5q-45 -63 -67 -231t-41 -339q34 1 100 5q113 6 135.5 -21t-15.5 -82q-60 -85 -242 -94q-28 -270 -40 -547.5t-45 -544.5q-15 -116 -136 -95t-102 159q35 255 62.5 514.5t60.5 519.5q-147 10 -275 27q-49 -275 -81.5 -549 t-83.5 -549q-22 -117 -135.5 -97t-98.5 160q29 268 69.5 536.5t103.5 535.5q-74 14 -172 40q-23 70 53 94z"/>
   <glyph glyph-name="fi" horiz-adv-x="1016" unicode="ﬁ" d="M-18 -430q42 267 91 532t101 531q-64 19 -127 49q-33 69 31 94q31 -3 61.5 -6.5t60.5 -5.5q18 90 35.5 180t35.5 181q44 222 152.5 344t212.5 119q58 -3 76.5 -57t18.5 -111q0 -77 -31 -118t-67 -36q-14 2 -30.5 15.5t-39.5 58.5q-47 -64 -89 -238.5t-68 -347.5 q76 0 286 13q53 4 105.5 -27t52.5 -69.5t-21 -90.5q-90 -219 -52.5 -260.5t171.5 89.5q43 42 53 29t4 -64q-21 -159 -111 -252q-134 -134 -234 -59t-108 211q-5 66 15 194q8 54 21 104q-40 -1 -91 0q-78 7 -116 14q-42 -270 -83 -539.5t-79 -539.5q-17 -117 -138 -96 t-99 159zM783 929q-143 74 -91 224q31 89 108 74q74 -15 99.5 -80.5t25.5 -158.5q0 -84 -37 -90t-105 31z"/>
   <glyph glyph-name="fl" horiz-adv-x="1142" unicode="ﬂ" d="M1007 348q63 52 79.5 27.5t6.5 -101.5q-22 -151 -109 -205q-117 -74 -183 -53t-97 91t-36.5 164.5t-1.5 165.5q7 159 42.5 378.5t109.5 509.5q48 190 100.5 288.5t115.5 68.5q99 -48 81.5 -169.5t-56.5 -250.5q-73 -242 -131.5 -449.5t-82.5 -391.5q-16 -121 31 -132 t131 59zM21 -462q42 266 81 539.5t91 543.5q-97 26 -169 61q-33 69 31 94q44 -5 85 -9t81 -7q36 175 86 359q61 222 173 338.5t216 112.5q57 -3 75.5 -57t18.5 -111q0 -77 -31 -118t-67 -36q-14 2 -30.5 15.5t-38.5 58.5q-75 -46 -128.5 -218.5t-73.5 -349.5q60 1 130 9 q115 10 69 -102q-22 -54 -46 -74.5t-100 -14.5q-25 2 -73 8q-40 -278 -72 -552.5t-71 -553.5q-17 -116 -138 -95t-99 159z"/>
   <glyph glyph-name="f_t" horiz-adv-x="1178" unicode="" d="M754 1052q15 157 156 96q47 -21 52 -52.5t-4 -67.5q-17 -61 -38 -155q89 34 125 60q42 33 85.5 3.5t39.5 -87.5q-4 -51 -88 -103t-204 -91q-6 -26 -10 -51.5t-7 -49.5q-64 -385 137 -149q0 -3 3 0q62 79 114.5 100.5t34.5 -68.5q-25 -127 -81.5 -209.5t-119.5 -145.5 q-85 -84 -150 -78t-90 51q-69 122 -71.5 264.5t22.5 282.5q-124 -20 -222 -15q-13 0 -35 2q-31 -281 -59 -558.5t-67 -556.5q-17 -116 -137.5 -95t-98.5 159q41 265 71 540t75 547q-58 19 -132 63q-27 15 -24 58t55 36q56 -8 126 -13q17 92 37 182.5t45 178.5 q61 223 168.5 346.5t211.5 120.5q57 -3 75.5 -57.5t18.5 -111.5q0 -76 -31 -117.5t-67 -35.5q-14 1 -30.5 14.5t-38.5 59.5q-75 -45 -115 -223t-62 -355q136 9 281 40q16 69 29.5 130t19.5 111z"/>
   <glyph glyph-name="germandbls" horiz-adv-x="1124" unicode="ß" d="M90 739q42 50 79.5 52t67.5 -17q40 -30 55 -18.5t30 60.5q90 309 258 455t280 137q60 -6 107.5 -65.5t58.5 -143.5t-26 -178t-145 -167q-12 -8 -11.5 -22t14.5 -16q103 -14 173 -96t76 -201q9 -210 -91 -347.5t-328 -172.5q-56 -8 -117.5 21t-80.5 132q-14 71 54 105 q30 13 59.5 -1t58.5 -35q49 -36 109 -8t97 142q33 105 -15 190.5t-155 43.5q-85 -33 -140 18t32 131q120 111 196 223.5t-4 194.5q-66 67 -181 -93.5t-188 -655.5q-40 -271 -70.5 -541t-38.5 -542q-2 -68 -25 -84.5t-85 -11.5q-137 12 -87 467q15 144 30.5 288t36.5 288 q14 99 11.5 171.5t-58.5 104.5q-35 18 -73.5 61.5t36.5 130.5z"/>
   <glyph glyph-name="t_z" horiz-adv-x="1139" unicode="" d="M185 666q-173 152 12 185q18 3 33 6q12 48 23 97t23 98q36 149 156 96q48 -21 53 -52.5t-5 -67.5q-13 -47 -28 -113q90 28 147 57q69 32 127 48.5t137 10.5q60 -6 107.5 -65.5t58.5 -143.5t-26 -178t-145 -167q-12 -8 -11.5 -22t14.5 -16q103 -14 173 -96t76 -201 q9 -210 -91 -347.5t-371 -154.5q-80 19 -141.5 48t-80.5 132q-14 71 54 105q30 13 59.5 -1t58.5 -35q49 -36 142.5 -30.5t130.5 119.5q33 105 1 190.5t-116 68.5q-85 -33 -140 18t21 134t152 195.5t-4 194.5q-66 67 -300 -61q-37 -16 -79 -30q-15 -83 -23 -134 q-64 -353 13.5 -275t129.5 99.5t35 -68.5q-26 -165 -89 -228q-86 -84 -145 -74t-95 47q-77 77 -92.5 223t42.5 378z"/>
   <glyph glyph-name="t_z" horiz-adv-x="1139" unicode="" d="M185 666q-173 152 12 185q18 3 33 6q12 48 23 97t23 98q36 149 156 96q48 -21 53 -52.5t-5 -67.5q-13 -47 -28 -113q90 28 147 57q69 32 127 48.5t137 10.5q60 -6 107.5 -65.5t58.5 -143.5t-26 -178t-145 -167q-12 -8 -11.5 -22t14.5 -16q103 -14 173 -96t76 -201 q9 -210 -91 -347.5t-371 -154.5q-80 19 -141.5 48t-80.5 132q-14 71 54 105q30 13 59.5 -1t58.5 -35q49 -36 142.5 -30.5t130.5 119.5q33 105 1 190.5t-116 68.5q-85 -33 -140 18t21 134t152 195.5t-4 194.5q-66 67 -300 -61q-37 -16 -79 -30q-15 -83 -23 -134 q-64 -353 13.5 -275t129.5 99.5t35 -68.5q-26 -165 -89 -228q-86 -84 -145 -74t-95 47q-77 77 -92.5 223t42.5 378z"/>
   <glyph glyph-name="ae" horiz-adv-x="1274" unicode="æ" d="M860 41q-126 2 -214 91q-50 50 -71 119q-10 -10 -45.5 -47.5t-99.5 -88t-141 -63.5q-92 -16 -163 53.5t-85 173.5q-17 125 67.5 256.5t238.5 220.5q103 60 181 42.5t108 -65.5q33 -71 85 -34q122 114 254 114q123 -1 198.5 -68.5t63.5 -155.5q-18 -127 -127 -165.5 t-239 -18.5q-37 5 -44 -20q-15 -61 1 -85q42 -66 122 -73.5t214 70.5q27 15 41.5 -0.5t2.5 -51.5q-20 -63 -130 -134.5t-218 -69.5zM486 577q-106 16 -174 -109q-39 -74 -24 -121t75 -47q111 1 164 111q25 51 14.5 105t-55.5 61zM998 652q-96 -11 -138 -88q-37 -65 55 -52h2 q47 9 86 30t54 67q16 50 -59 43z"/>
   <glyph glyph-name="Aring" horiz-adv-x="1260" unicode="Å" d="M57 269q57 43 90.5 103t80.5 115q9 11 79.5 123.5t155.5 250t161.5 261.5t97.5 157q24 40 58 71.5t82 33.5q78 1 98.5 -31t25.5 -68q32 -249 75 -497l86 -496q4 -27 31 -44q57 -36 55 -95q-3 -37 -21 -69t-59 -39q-112 -20 -226.5 -14.5t-225.5 21.5q-39 5 -52 77 q-11 58 54 87q39 19 80.5 32.5t82.5 28.5q24 9 24 26q-4 38 -8 76.5t-7 77.5q-210 -11 -437 2q-37 -62 -65 -118q-44 -78 51 -79q123 -1 103 -106q-18 -91 -130 -109q-90 -16 -179 -17.5t-166 26.5q-33 11 -39 44t-5 61q3 75 49 108zM855 632q-10 78 -22.5 155.5 t-30.5 155.5q-6 19 -24 25.5t-35 -19.5q-108 -162 -203 -317h315zM682 1466q0 94 78.5 171t165.5 82q69 4 127 -39t53 -125q-5 -105 -61 -173.5t-157 -83.5q-84 -11 -145 41t-61 127zM807 1496q0 -46 31 -64.5t66 -14.5q81 8 87 103q2 33 -20.5 60t-70.5 31q-37 3 -66 -26.5 t-27 -88.5z"/>
   <glyph glyph-name="AE" horiz-adv-x="2009" unicode="Æ" d="M523 525q-69 -105 -108 -169q-58 -89 38 -90q122 -2 83 -122q-34 -105 -149 -126q-94 -18 -183.5 -19.5t-162.5 30.5q-30 12 -30 50t6 71q17 86 68 124q65 49 120 134.5t112 148.5q11 12 101.5 141.5t201 287.5t198.5 277.5t115 157.5q31 45 70.5 81.5t87.5 38.5 q167 10 363 15l312 9h9q107 0 150 -23.5t49 -89.5q9 -118 -7 -217t-40 -198q-15 -57 -42 -60t-59 15q-70 35 -51 117q18 80 -2 129.5t-107 52.5q-13 3 -105 5t-184 2l-84 -352q73 -7 127.5 6t81.5 73q14 32 33.5 54t83.5 12q99 -16 66 -109q-30 -88 -53 -177t-39 -168 q-12 -59 -45 -102t-81 -37q-36 4 -48.5 39.5t-4.5 80.5q15 101 -96 96q-21 -1 -41 -3t-40 -3l-103 -436q94 -6 183.5 -8.5t119.5 6.5q89 2 136 58t82 139q35 88 86 111q36 17 56.5 -14.5t14.5 -87.5q-12 -104 -25 -179.5t-37 -171.5q-18 -68 -66.5 -91t-155.5 -23h-9 q-123 -4 -233.5 1.5t-174 10.5t-101.5 7t-94 -4q-66 -7 -113 18.5t-49 106.5q-1 30 18.5 70t51.5 56q37 20 77 20q32 110 62 222q-248 -7 -440 6zM1116 1216q49 112 -7 74.5t-209 -229.5q-121 -159 -244 -338h356q8 33 15 66q55 250 89 427z"/>
   <glyph glyph-name="Ccedilla" horiz-adv-x="1215" unicode="Ç" d="M981 1446q24 -40 36 0q29 104 99 103q47 -2 56 -34.5t12 -74.5q16 -272 -64 -524q-24 -73 -62 -62q-40 9 -52 39t-16 63q-27 168 -111.5 247t-205.5 89q-151 12 -259.5 -124.5t-136.5 -352.5q-27 -204 33 -351.5t220 -153.5q108 -6 210.5 73t201.5 203q43 53 90 19 q50 -36 24 -111q-82 -232 -228.5 -359t-315.5 -121q-241 8 -368.5 239.5t-69.5 615.5q46 312 205.5 514t419.5 207q110 1 177 -42t105 -102zM510 61q21 18 62.5 20.5t50.5 -24.5q10 -33 -41 -61.5t-32 -57.5q24 -38 85.5 -26t93.5 -21q50 -53 -7 -118t-118 -87 q-46 -18 -102 -28q-41 -7 -71 35q-16 23 12 48q36 33 97.5 33.5t63.5 48.5q1 42 -68.5 34t-86.5 30q-16 36 7 92t54 82z"/>
   <glyph glyph-name="Egrave" horiz-adv-x="1338" unicode="È" d="M373 1294q-75 6 -140 45q-69 40 -62 96q11 103 141 112h5.5h5.5q195 4 391 9l392 10h4h5q107 0 150 -23.5t49 -89.5q9 -118 -7 -217t-40 -198q-15 -57 -42 -60t-59 15q-70 35 -51 117q18 80 -2 129.5t-107 52.5q-93 2 -185 4t-184 2l-84 -352q73 -7 127.5 6t81.5 73 q14 32 33.5 54t83.5 12q99 -16 66 -109q-30 -88 -53 -177t-39 -168q-12 -59 -45 -102t-81 -37q-36 4 -48.5 39.5t-4.5 80.5q15 101 -96 96q-21 -1 -41 -3t-40 -3l-103 -436q94 -6 183.5 -8.5t197.5 0.5q89 2 136 58t82 139q35 88 86 111q36 17 56.5 -14.5t14.5 -87.5 q-12 -104 -25 -179.5t-37 -171.5q-18 -68 -66.5 -91t-155.5 -23h-5h-4q-201 2 -311.5 7.5t-174 10.5t-101.5 7t-94 -4q-66 -7 -113 18.5t-49 106.5q-1 30 18.5 70t51.5 56q37 20 77 20q72 243 126.5 492.5t85.5 504.5zM587 1869q21 16 66.5 32.5t54.5 -7.5 q29 -75 68.5 -139.5t123.5 -89.5q10 -3 13.5 -16.5t-4.5 -18.5q-56 -37 -97 -24q-166 49 -236 183q-9 15 -6.5 41.5t17.5 38.5z"/>
   <glyph glyph-name="Eacute" horiz-adv-x="1341" unicode="É" d="M370 1294q-75 6 -140 45q-69 40 -62 96q11 103 141 112h5.5h5.5q195 4 391 9l392 10h4h5q107 0 150 -23.5t49 -89.5q9 -118 -7 -217t-40 -198q-15 -57 -42 -60t-59 15q-70 35 -51 117q18 80 -2 129.5t-107 52.5q-93 2 -185 4t-184 2l-84 -352q73 -7 127.5 6t81.5 73 q14 32 33.5 54t83.5 12q99 -16 66 -109q-30 -88 -53 -177t-39 -168q-12 -59 -45 -102t-81 -37q-36 4 -48.5 39.5t-4.5 80.5q15 101 -96 96q-21 -1 -41 -3t-40 -3l-103 -436q94 -6 183.5 -8.5t197.5 0.5q89 2 136 58t82 139q35 88 86 111q36 17 56.5 -14.5t14.5 -87.5 q-12 -104 -25 -179.5t-37 -171.5q-18 -68 -66.5 -91t-155.5 -23h-5h-4q-201 2 -311.5 7.5t-174 10.5t-101.5 7t-94 -4q-66 -7 -113 18.5t-49 106.5q-1 30 18.5 70t51.5 56q37 20 77 20q72 243 126.5 492.5t85.5 504.5zM1202 1868q15 -12 13 -38t-14 -41q-106 -134 -311 -183 q-54 -14 -110 23q-9 6 -3 19.5t19 16.5q104 25 161.5 89.5t105.5 139.5q15 24 65.5 7.5t73.5 -33.5z"/>
   <glyph glyph-name="Ecircumflex" horiz-adv-x="1341" unicode="Ê" d="M372 1294q-75 6 -140 45q-69 40 -62 96q11 103 141 112h5.5h5.5q195 4 391 9l392 10h4h5q107 0 150 -23.5t49 -89.5q9 -118 -7 -217t-40 -198q-15 -57 -42 -60t-59 15q-70 35 -51 117q18 80 -2 129.5t-107 52.5q-93 2 -185 4t-184 2l-84 -352q73 -7 127.5 6t81.5 73 q14 32 33.5 54t83.5 12q99 -16 66 -109q-30 -88 -53 -177t-39 -168q-12 -59 -45 -102t-81 -37q-36 4 -48.5 39.5t-4.5 80.5q15 101 -96 96q-21 -1 -41 -3t-40 -3l-103 -436q94 -6 183.5 -8.5t197.5 0.5q89 2 136 58t82 139q35 88 86 111q36 17 56.5 -14.5t14.5 -87.5 q-12 -104 -25 -179.5t-37 -171.5q-18 -68 -66.5 -91t-155.5 -23h-5h-4q-201 2 -311.5 7.5t-174 10.5t-101.5 7t-94 -4q-66 -7 -113 18.5t-49 106.5q-1 30 18.5 70t51.5 56q37 20 77 20q72 243 126.5 492.5t85.5 504.5zM626 1762q42 27 77 58t65 60q18 18 48 44 q21 18 58.5 14t54.5 -21q39 -41 67.5 -93.5t94.5 -94.5q41 -27 0 -64q-44 -40 -82 -53q-51 27 -84 87t-71 60q-36 -1 -78.5 -55.5t-93.5 -75.5q-27 -12 -65.5 8t-50.5 41q-13 21 10.5 45t49.5 40z"/>
   <glyph glyph-name="Edieresis" horiz-adv-x="1344" unicode="Ë" d="M374 1294q-75 6 -140 45q-69 40 -62 96q11 103 141 112h5.5h5.5q195 4 391 9l392 10h4h5q107 0 150 -23.5t49 -89.5q9 -118 -7 -217t-40 -198q-15 -57 -42 -60t-59 15q-70 35 -51 117q18 80 -2 129.5t-107 52.5q-93 2 -185 4t-184 2l-84 -352q73 -7 127.5 6t81.5 73 q14 32 33.5 54t83.5 12q99 -16 66 -109q-30 -88 -53 -177t-39 -168q-12 -59 -45 -102t-81 -37q-36 4 -48.5 39.5t-4.5 80.5q15 101 -96 96q-21 -1 -41 -3t-40 -3l-103 -436q94 -6 183.5 -8.5t197.5 0.5q89 2 136 58t82 139q35 88 86 111q36 17 56.5 -14.5t14.5 -87.5 q-12 -104 -25 -179.5t-37 -171.5q-18 -68 -66.5 -91t-155.5 -23h-5h-4q-201 2 -311.5 7.5t-174 10.5t-101.5 7t-94 -4q-66 -7 -113 18.5t-49 106.5q-1 30 18.5 70t51.5 56q37 20 77 20q72 243 126.5 492.5t85.5 504.5zM644 1932q57 1 87 -52t29 -113q-5 -162 -114 -160 q-110 0 -105 157q4 163 103 168zM998 1929q58 2 84 -51t21 -113q-16 -161 -125 -161q-110 1 -94 158q15 164 114 167z"/>
   <glyph glyph-name="Igrave" horiz-adv-x="736" unicode="Ì" d="M339 1269q-187 25 -200 91q-11 47 9 101.5t55 64.5q92 27 206 22.5t205 -7.5q57 -3 81.5 -54.5t16.5 -129.5q-8 -77 -114 -97l-205 -951q21 1 44 3t47 4q164 11 140 -126q-26 -152 -120 -157q-115 -7 -201 -3.5t-213 18.5q-45 5 -63.5 64.5t-5.5 105.5q10 42 129 64 q68 235 113.5 486.5t75.5 500.5zM362 1869q21 16 66.5 32.5t54.5 -7.5q29 -75 68.5 -139.5t123.5 -89.5q10 -3 13.5 -16.5t-4.5 -18.5q-56 -37 -97 -24q-166 49 -236 183q-9 15 -6.5 41.5t17.5 38.5z"/>
   <glyph glyph-name="Iacute" horiz-adv-x="863" unicode="Í" d="M338 1269q-187 25 -200 91q-11 47 9 101.5t55 64.5q92 27 206 22.5t205 -7.5q57 -3 81.5 -54.5t16.5 -129.5q-8 -77 -114 -97l-205 -951q21 1 44 3t47 4q164 11 140 -126q-26 -152 -120 -157q-115 -7 -201 -3.5t-213 18.5q-45 5 -63.5 64.5t-5.5 105.5q10 42 129 64 q68 235 113.5 486.5t75.5 500.5zM835 1868q15 -12 13 -38t-14 -41q-106 -134 -311 -183q-54 -14 -110 23q-9 6 -3 19.5t19 16.5q104 25 161.5 89.5t105.5 139.5q15 24 65.5 7.5t73.5 -33.5z"/>
   <glyph glyph-name="Icircumflex" horiz-adv-x="808" unicode="Î" d="M343 1269q-187 25 -200 91q-11 47 9 101.5t55 64.5q92 27 206 22.5t205 -7.5q57 -3 81.5 -54.5t16.5 -129.5q-8 -77 -114 -97l-205 -951q21 1 44 3t47 4q164 11 140 -126q-26 -152 -120 -157q-115 -7 -201 -3.5t-213 18.5q-45 5 -63.5 64.5t-5.5 105.5q10 42 129 64 q68 235 113.5 486.5t75.5 500.5zM287 1762q42 27 77 58t65 60q18 18 48 44q21 18 58.5 14t54.5 -21q39 -41 67.5 -93.5t94.5 -94.5q41 -27 0 -64q-44 -40 -82 -53q-51 27 -84 87t-71 60q-36 -1 -78.5 -55.5t-93.5 -75.5q-27 -12 -65.5 8t-50.5 41q-13 21 10.5 45t49.5 40z "/>
   <glyph glyph-name="Idieresis" horiz-adv-x="832" unicode="Ï" d="M346 1269q-187 25 -200 91q-11 47 9 101.5t55 64.5q92 27 206 22.5t205 -7.5q57 -3 81.5 -54.5t16.5 -129.5q-8 -77 -114 -97l-205 -951q21 1 44 3t47 4q164 11 140 -126q-26 -152 -120 -157q-115 -7 -201 -3.5t-213 18.5q-45 5 -63.5 64.5t-5.5 105.5q10 42 129 64 q68 235 113.5 486.5t75.5 500.5zM350 1957q57 1 87 -52t29 -113q-5 -162 -114 -160q-110 0 -105 157q4 163 103 168zM704 1954q58 2 84 -51t21 -113q-16 -161 -125 -161q-110 1 -94 158q15 164 114 167z"/>
   <glyph glyph-name="longs_c_h" horiz-adv-x="2029" unicode="" d="M-40 -430q61 390 135.5 778.5t153.5 776.5q41 222 132 341.5t195 115.5q57 -3 75.5 -57t18.5 -111q0 -77 -30.5 -118t-66.5 -36q-15 2 -31 15.5t-39 58.5q-51 -69 -77 -260.5t-50 -372.5q-45 -299 -91 -597t-88 -597q-17 -117 -138 -96t-99 159zM1086 93q-41 50 -28 113 q-83 -72 -189 -123.5t-185 -45.5q-96 8 -166.5 82.5t-70.5 171.5q0 81 24 174.5t136 216.5q100 109 236.5 118t209.5 -55q82 -75 18 -164q-69 -100 -111 -27q-30 49 -80 65.5t-103 -25.5q-79 -63 -87.5 -164t53.5 -176q62 -76 195 -8.5t173.5 169t58.5 219t37 237.5 q33 213 67.5 426.5t62.5 427.5q9 80 95 32q108 -62 124.5 -156t-11.5 -201q-48 -177 -91.5 -356t-92.5 -356q-46 -161 -34.5 -194.5t138.5 131.5q178 228 318 114q62 -51 56 -127t-25 -168q-19 -90 9 -88t85 56q116 109 94 -30q-24 -144 -97.5 -228.5t-145.5 -92.5 q-123 -15 -171.5 65.5t-8.5 233.5q19 78 2 96t-76 -45q-78 -84 -147 -173t-138 -177q-26 -33 -54.5 -33.5t-79.5 65.5z"/>
   <glyph glyph-name="Udieresis" horiz-adv-x="1155" unicode="Ü" d="M126 1283q-97 14 -97 128q0 45 23.5 84t92.5 51q196 30 392 14q65 -6 85.5 -46.5t20.5 -94.5q1 -131 -102 -141q-109 -11 -139 -118q-36 -124 -59.5 -250.5t-46.5 -252.5q-63 -345 213 -366q279 -23 345 298q31 154 60 310t60 312q9 51 -39 50q-113 -5 -154.5 26.5 t-47.5 102.5q-5 45 11.5 85t80.5 54q173 37 379 14q66 -8 85 -45t22 -80q8 -164 -65 -180q-55 -12 -59 -32q-39 -175 -74.5 -350.5t-71.5 -350.5q-55 -274 -206.5 -397t-381.5 -114q-259 10 -345 198.5t-38 491.5q21 135 48 269t55 269q10 52 -47 61zM562 1943q57 1 87 -52 t29 -113q-5 -162 -114 -160q-110 0 -105 157q4 163 103 168zM916 1940q58 2 84 -51t21 -113q-16 -161 -125 -161q-110 1 -94 158q15 164 114 167z"/>
   <glyph glyph-name="Ucircumflex" horiz-adv-x="1155" unicode="Û" d="M124 1283q-97 14 -97 128q0 45 23.5 84t92.5 51q196 30 392 14q65 -6 85.5 -46.5t20.5 -94.5q1 -131 -102 -141q-109 -11 -139 -118q-36 -124 -59.5 -250.5t-46.5 -252.5q-63 -345 213 -366q279 -23 345 298q31 154 60 310t60 312q9 51 -39 50q-113 -5 -154.5 26.5 t-47.5 102.5q-5 45 11.5 85t80.5 54q173 37 379 14q66 -8 85 -45t22 -80q8 -164 -65 -180q-55 -12 -59 -32q-39 -175 -74.5 -350.5t-71.5 -350.5q-55 -274 -206.5 -397t-381.5 -114q-259 10 -345 198.5t-38 491.5q21 135 48 269t55 269q10 52 -47 61zM522 1762q42 27 77 58 t65 60q18 18 48 44q21 18 58.5 14t54.5 -21q39 -41 67.5 -93.5t94.5 -94.5q41 -27 0 -64q-44 -40 -82 -53q-51 27 -84 87t-71 60q-36 -1 -78.5 -55.5t-93.5 -75.5q-27 -12 -65.5 8t-50.5 41q-13 21 10.5 45t49.5 40z"/>
   <glyph glyph-name="Uacute" horiz-adv-x="1143" unicode="Ú" d="M122 1283q-97 14 -97 128q0 45 23.5 84t92.5 51q196 30 392 14q65 -6 85.5 -46.5t20.5 -94.5q1 -131 -102 -141q-109 -11 -139 -118q-36 -124 -59.5 -250.5t-46.5 -252.5q-63 -345 213 -366q279 -23 345 298q31 154 60 310t60 312q9 51 -39 50q-113 -5 -154.5 26.5 t-47.5 102.5q-5 45 11.5 85t80.5 54q173 37 379 14q66 -8 85 -45t22 -80q8 -164 -65 -180q-55 -12 -59 -32q-39 -175 -74.5 -350.5t-71.5 -350.5q-55 -274 -206.5 -397t-381.5 -114q-259 10 -345 198.5t-38 491.5q21 135 48 269t55 269q10 52 -47 61zM990 1893 q15 -12 13 -38t-14 -41q-106 -134 -311 -183q-54 -14 -110 23q-9 6 -3 19.5t19 16.5q104 25 161.5 89.5t105.5 139.5q15 24 65.5 7.5t73.5 -33.5z"/>
   <glyph glyph-name="Ugrave" horiz-adv-x="1151" unicode="Ù" d="M125 1283q-97 14 -97 128q0 45 23.5 84t92.5 51q196 30 392 14q65 -6 85.5 -46.5t20.5 -94.5q1 -131 -102 -141q-109 -11 -139 -118q-36 -124 -59.5 -250.5t-46.5 -252.5q-63 -345 213 -366q279 -23 345 298q31 154 60 310t60 312q9 51 -39 50q-113 -5 -154.5 26.5 t-47.5 102.5q-5 45 11.5 85t80.5 54q173 37 379 14q66 -8 85 -45t22 -80q8 -164 -65 -180q-55 -12 -59 -32q-39 -175 -74.5 -350.5t-71.5 -350.5q-55 -274 -206.5 -397t-381.5 -114q-259 10 -345 198.5t-38 491.5q21 135 48 269t55 269q10 52 -47 61zM523 1850 q21 16 66.5 32.5t54.5 -7.5q29 -75 68.5 -139.5t123.5 -89.5q10 -3 13.5 -16.5t-4.5 -18.5q-56 -37 -97 -24q-166 49 -236 183q-9 15 -6.5 41.5t17.5 38.5z"/>
   <glyph glyph-name="Oslash" horiz-adv-x="1269" unicode="Ø" d="M88 797q56 330 240.5 556.5t444.5 219.5q234 -8 356 -274.5t65 -566.5q-72 -379 -256.5 -557t-385.5 -188q-210 -10 -372 193.5t-92 616.5zM315 815q-34 -276 42.5 -396.5t214.5 -114.5q302 10 410 503q38 173 -31 319t-190 152q-147 6 -282.5 -112t-163.5 -351zM254 69 q145 378 282 760.5t310 747.5q19 43 71 42t88 -30q50 -44 39 -120.5t-36 -146.5q-129 -357 -296 -691.5t-315 -676.5q-21 -49 -42.5 -50t-49.5 12q-95 41 -51 153z"/>
   <glyph glyph-name="Odieresis" horiz-adv-x="1267" unicode="Ö" d="M85 797q56 330 240.5 556.5t444.5 219.5q234 -8 356 -274.5t65 -566.5q-72 -379 -256.5 -557t-385.5 -188q-210 -10 -372 193.5t-92 616.5zM312 815q-34 -276 42.5 -396.5t214.5 -114.5q302 10 410 503q38 173 -31 319t-190 152q-147 6 -282.5 -112t-163.5 -351z M608 1961q57 1 87 -52t29 -113q-5 -162 -114 -160q-110 0 -105 157q4 163 103 168zM962 1958q58 2 84 -51t21 -113q-16 -161 -125 -161q-110 1 -94 158q15 164 114 167z"/>
   <glyph glyph-name="Otilde" horiz-adv-x="1267" unicode="Õ" d="M85 797q56 330 240.5 556.5t444.5 219.5q234 -8 356 -274.5t65 -566.5q-72 -379 -256.5 -557t-385.5 -188q-210 -10 -372 193.5t-92 616.5zM312 815q-34 -276 42.5 -396.5t214.5 -114.5q302 10 410 503q38 173 -31 319t-190 152q-147 6 -282.5 -112t-163.5 -351z M506 1769q51 40 108 87t118 41q50 -6 94.5 -66.5t94.5 -68.5q24 -4 39.5 34.5t35.5 54.5q15 11 41 4t43 -14q21 -11 21.5 -47t-11.5 -56q-28 -48 -73.5 -91.5t-100.5 -46.5q-101 -6 -136.5 59t-68.5 68q-36 3 -76.5 -49.5t-97.5 -55.5q-27 -3 -46.5 25.5t-24.5 55.5 q-4 18 10.5 36t29.5 30z"/>
   <glyph glyph-name="Ocircumflex" horiz-adv-x="1265" unicode="Ô" d="M84 797q56 330 240.5 556.5t444.5 219.5q234 -8 356 -274.5t65 -566.5q-72 -379 -256.5 -557t-385.5 -188q-210 -10 -372 193.5t-92 616.5zM311 815q-34 -276 42.5 -396.5t214.5 -114.5q302 10 410 503q38 173 -31 319t-190 152q-147 6 -282.5 -112t-163.5 -351z M565 1758q42 27 77 58t65 60q18 18 48 44q21 18 58.5 14t54.5 -21q39 -41 67.5 -93.5t94.5 -94.5q41 -27 0 -64q-44 -40 -82 -53q-51 27 -84 87t-71 60q-36 -1 -78.5 -55.5t-93.5 -75.5q-27 -12 -65.5 8t-50.5 41q-13 21 10.5 45t49.5 40z"/>
   <glyph glyph-name="Oacute" horiz-adv-x="1263" unicode="Ó" d="M81 797q56 330 240.5 556.5t444.5 219.5q234 -8 356 -274.5t65 -566.5q-72 -379 -256.5 -557t-385.5 -188q-210 -10 -372 193.5t-92 616.5zM308 815q-34 -276 42.5 -396.5t214.5 -114.5q302 10 410 503q38 173 -31 319t-190 152q-147 6 -282.5 -112t-163.5 -351z M1128 1890q15 -12 13 -38t-14 -41q-106 -134 -311 -183q-54 -14 -110 23q-9 6 -3 19.5t19 16.5q104 25 161.5 89.5t105.5 139.5q15 24 65.5 7.5t73.5 -33.5z"/>
   <glyph glyph-name="Ograve" horiz-adv-x="1262" unicode="Ò" d="M84 797q56 330 240.5 556.5t444.5 219.5q234 -8 356 -274.5t65 -566.5q-72 -379 -256.5 -557t-385.5 -188q-210 -10 -372 193.5t-92 616.5zM311 815q-34 -276 42.5 -396.5t214.5 -114.5q302 10 410 503q38 173 -31 319t-190 152q-147 6 -282.5 -112t-163.5 -351z M539 1901q21 16 66.5 32.5t54.5 -7.5q29 -75 68.5 -139.5t123.5 -89.5q10 -3 13.5 -16.5t-4.5 -18.5q-56 -37 -97 -24q-166 49 -236 183q-9 15 -6.5 41.5t17.5 38.5z"/>
   <glyph glyph-name="Ntilde" horiz-adv-x="1608" unicode="Ñ" d="M89 1403q12 51 58.5 85t104.5 43q154 24 305 5q87 -12 111 -59t40 -92q82 -231 169.5 -459t185.5 -452q11 -26 36.5 -27.5t31.5 27.5q42 194 71.5 391t65.5 394q-16 -2 -25 -2q-102 -7 -147 81q-18 36 -20 77.5t70 74.5q80 37 172 48.5t186 5.5q62 -6 74 -44.5t4 -98.5 q-16 -111 -80 -131q-53 -276 -109.5 -549.5t-115.5 -546.5q-28 -129 -116 -166q-53 -22 -103.5 -11t-74.5 64q-121 264 -220.5 537t-217.5 539q-60 -209 -109 -418.5t-101 -417.5q125 -22 235 -73q85 -38 68 -105q-14 -55 -42 -71t-63 -18q-106 -9 -208.5 -11t-207.5 -3 q-27 -1 -63.5 10.5t-24.5 157.5q9 110 102 125q63 237 113.5 477.5t72.5 491.5q-27 0 -54 -3q-84 -7 -139.5 16.5t-34.5 107.5zM635 1763q51 40 108 87t118 41q50 -6 94.5 -66.5t94.5 -68.5q24 -4 39.5 34.5t35.5 54.5q15 11 41 4t43 -14q21 -11 21.5 -47t-11.5 -56 q-28 -48 -73.5 -91.5t-100.5 -46.5q-101 -6 -136.5 59t-68.5 68q-36 3 -76.5 -49.5t-97.5 -55.5q-27 -3 -46.5 25.5t-24.5 55.5q-4 18 10.5 36t29.5 30z"/>
   <glyph glyph-name="Eth" horiz-adv-x="1394" unicode="Ð" d="M267 1299q-72 2 -82 87q-19 129 98 148q219 34 452 30t348 -49q243 -96 265.5 -295t-6.5 -407q-57 -412 -230 -562.5t-394 -193.5q-137 -27 -278 -20.5t-279 14.5q-112 5 -128 141q-9 72 15 112.5t104 37.5q32 -2 48 -2q68 234 119 472.5t81 482.5q-75 0 -133 4zM432 323 q118 -9 198 -9q150 -1 284.5 91t222.5 412q128 464 -218 482q-65 3 -128.5 2.5t-126.5 -1.5zM197 841q108 52 239 54.5t274 -7.5q160 -12 133 -121q-17 -68 -43.5 -83t-67.5 -19q-121 -13 -242 -8.5t-238 17.5q-88 9 -113 68t58 99z"/>
   <glyph glyph-name="Yacute" horiz-adv-x="952" unicode="Ý" d="M199 1251q-125 -13 -154 118v4q-37 112 83 156q6 3 2 3q98 7 192.5 5.5t181.5 -21.5q110 -28 112 -134q1 -97 -95 -98q-60 -3 -40 -49q31 -73 61.5 -146t57.5 -147q17 -50 24.5 -43t25.5 34q43 68 97.5 128.5t100.5 126.5q9 15 9.5 35t-34.5 32q-100 32 -101 125 q-2 54 31.5 97t120.5 51q122 11 282 -7q110 -14 100 -108q-12 -103 -69 -147q-131 -105 -239 -261.5t-219 -306.5q-26 -34 -33 -73.5t-11 -82.5q-5 -48 -17.5 -95.5t-18.5 -95.5q-10 -68 47 -71q104 -5 156 -35t25 -125q-34 -120 -108 -120q-139 3 -278.5 2.5t-277.5 11.5 q-78 7 -79 114q0 33 10.5 64t50.5 40q67 14 127.5 27t76.5 95q9 49 20 98.5t22 98.5q25 121 -30 244q-48 106 -87.5 216.5t-81.5 219.5q-10 23 -43 20zM1036 1893q15 -12 13 -38t-14 -41q-106 -134 -311 -183q-54 -14 -110 23q-9 6 -3 19.5t19 16.5q104 25 161.5 89.5 t105.5 139.5q15 24 65.5 7.5t73.5 -33.5z"/>
   <glyph glyph-name="caron" horiz-adv-x="607" unicode="ˇ" d="M521 1036q-42 -27 -77 -58t-65 -60q-18 -18 -48 -44q-21 -18 -58.5 -14t-54.5 21q-39 41 -67.5 93.5t-94.5 94.5q-41 27 0 64q44 40 82 53q51 -27 84 -87t71 -60q36 1 78.5 55.5t93.5 75.5q27 12 65.5 -8t50.5 -41q13 -21 -10.5 -45t-49.5 -40z"/>
   <glyph glyph-name="Zcaron" horiz-adv-x="1342" unicode="Ž" d="M226 1424q18 90 146 98q213 12 424 10t413 4q39 0 70 -30t31 -63q0 -81 -12.5 -127.5t-52.5 -86.5q-225 -228 -446 -460.5t-439 -466.5q-46 -50 9 -50q121 0 243 5.5t244 8.5q194 4 249 175q20 66 60.5 126.5t81.5 57.5q75 -8 36 -167q-21 -90 -42.5 -179t-39.5 -179 q-17 -75 -78.5 -97t-152.5 -20q-225 8 -449.5 8t-448.5 4q-52 0 -53 49q-3 69 10 140.5t82 151.5q183 210 365.5 419t365.5 419q83 92 -5 96q-73 3 -146 3.5t-145 1.5q-130 1 -158 -84q-59 -176 -101.5 -225.5t-81.5 -51.5q-67 -5 -42 134q18 93 30 188t33 188zM985 1763 q-42 -27 -77 -58t-65 -60q-18 -18 -48 -44q-21 -18 -58.5 -14t-54.5 21q-39 41 -67.5 93.5t-94.5 94.5q-41 27 0 64q44 40 82 53q51 -27 84 -87t71 -60q36 1 78.5 55.5t93.5 75.5q27 12 65.5 -8t50.5 -41q13 -21 -10.5 -45t-49.5 -40z"/>
   <glyph glyph-name="Scaron" horiz-adv-x="1237" unicode="Š" d="M89 594q14 83 74 77q58 -6 73.5 -49.5t23.5 -96.5q31 -225 328 -248h3.5h4.5q223 8 287 174q36 95 -47.5 156t-233.5 100q-183 46 -309 174.5t-69 363.5q37 156 194.5 248.5t326.5 87.5q102 -3 152 -29t83 -53q8 -7 24.5 -6.5t21.5 13.5q24 71 97 61q63 -10 78.5 -48.5 t9.5 -78.5q-18 -105 -34 -210t-46 -206q-16 -53 -58 -41q-29 7 -49 31.5t-37 48.5q-4 5 5 1t9 1q-6 112 -68.5 181.5t-209.5 75.5q-123 3 -200.5 -40t-83.5 -115q-9 -104 65.5 -161t199.5 -81q270 -53 363 -183.5t45 -304.5q-59 -211 -189 -319t-310 -119 q-133 -8 -223.5 51.5t-135.5 149.5q-13 26 -28 26.5t-19 -29.5q-8 -58 -23.5 -106.5t-55.5 -48.5q-57 0 -85.5 41.5t-22.5 88.5q13 105 31.5 211t37.5 211zM992 1831q-42 -27 -77 -58t-65 -60q-18 -18 -48 -44q-21 -18 -58.5 -14t-54.5 21q-39 41 -67.5 93.5t-94.5 94.5 q-41 27 0 64q44 40 82 53q51 -27 84 -87t71 -60q36 1 78.5 55.5t93.5 75.5q27 12 65.5 -8t50.5 -41q13 -21 -10.5 -45t-49.5 -40z"/>
   <glyph glyph-name="scaron" horiz-adv-x="878" unicode="š" d="M334 339q-118 21 -166.5 134.5t120.5 230.5q101 70 204 87.5t181 -0.5q41 -10 49.5 -44t-7.5 -64q-34 -63 -88 -68.5t-110 -4.5q-111 2 -126.5 -28t53.5 -48q147 -40 229 -88.5t54 -152.5q-48 -174 -171.5 -234.5t-210.5 -32.5q-60 19 -114.5 49t-111.5 56 q-110 50 -27 132q29 29 84 19t132 -28q165 -40 174.5 8.5t-148.5 76.5zM790 1047q-42 -27 -77 -58t-65 -60q-18 -18 -48 -44q-21 -18 -58.5 -14t-54.5 21q-39 41 -67.5 93.5t-94.5 94.5q-41 27 0 64q44 40 82 53q51 -27 84 -87t71 -60q36 1 78.5 55.5t93.5 75.5 q27 12 65.5 -8t50.5 -41q13 -21 -10.5 -45t-49.5 -40z"/>
   <glyph glyph-name="zcaron" horiz-adv-x="896" unicode="ž" d="M121 771q32 88 90 29q41 -43 148.5 -49t241.5 12q57 7 111.5 4t96.5 -73q72 -122 -70 -187q-76 -36 -153.5 -68.5t-146.5 -80.5q-72 -50 -47 -71.5t99 -13.5q133 14 222.5 5t92.5 -76q3 -81 -89.5 -100t-207.5 -37q-108 -18 -213.5 -25.5t-180.5 57.5q-96 80 -78.5 149 t82.5 110q135 85 313 165q27 12 26.5 22.5t-34.5 7.5q-183 -15 -268 36.5t-35 183.5zM659 1036q-42 -27 -77 -58t-65 -60q-18 -18 -48 -44q-21 -18 -58.5 -14t-54.5 21q-39 41 -67.5 93.5t-94.5 94.5q-41 27 0 64q44 40 82 53q51 -27 84 -87t71 -60q36 1 78.5 55.5 t93.5 75.5q27 12 65.5 -8t50.5 -41q13 -21 -10.5 -45t-49.5 -40z"/>
   <glyph glyph-name="Ydieresis" horiz-adv-x="948" unicode="Ÿ" d="M205 1251q-125 -13 -154 118v4q-37 112 83 156q6 3 2 3q98 7 192.5 5.5t181.5 -21.5q110 -28 112 -134q1 -97 -95 -98q-60 -3 -40 -49q31 -73 61.5 -146t57.5 -147q17 -50 24.5 -43t25.5 34q43 68 97.5 128.5t100.5 126.5q9 15 9.5 35t-34.5 32q-100 32 -101 125 q-2 54 31.5 97t120.5 51q122 11 282 -7q110 -14 100 -108q-12 -103 -69 -147q-131 -105 -239 -261.5t-219 -306.5q-26 -34 -33 -73.5t-11 -82.5q-5 -48 -17.5 -95.5t-18.5 -95.5q-10 -68 47 -71q104 -5 156 -35t25 -125q-34 -120 -108 -120q-139 3 -278.5 2.5t-277.5 11.5 q-78 7 -79 114q0 33 10.5 64t50.5 40q67 14 127.5 27t76.5 95q9 49 20 98.5t22 98.5q25 121 -30 244q-48 106 -87.5 216.5t-81.5 219.5q-10 23 -43 20zM523 1925q57 1 87 -52t29 -113q-5 -162 -114 -160q-110 0 -105 157q4 163 103 168zM877 1922q58 2 84 -51t21 -113 q-16 -161 -125 -161q-110 1 -94 158q15 164 114 167z"/>
   <glyph glyph-name="oe" horiz-adv-x="1263" unicode="œ" d="M25 328q0 172 132 313.5t279 151.5q115 7 212.5 -72.5t90.5 -229.5q-9 -193 -103 -319.5t-265 -153.5q-141 -21 -243.5 75t-102.5 235zM235 383q1 -85 52.5 -119t111.5 -27q136 15 146 190q3 61 -34.5 110t-118.5 57q-63 5 -111.5 -49t-45.5 -162zM852 41q-126 2 -214 91 t-86 237q1 150 133 297t282 147q123 -1 198.5 -68.5t63.5 -155.5q-18 -127 -127 -165.5t-239 -18.5q-37 5 -44 -20q-15 -61 1 -85q42 -66 122 -73.5t214 70.5q27 15 41.5 -0.5t2.5 -51.5q-20 -63 -130 -134.5t-218 -69.5zM990 652q-96 -11 -138 -88q-37 -65 55 -52h0.5h1.5 q47 9 86 30t54 67q16 50 -59 43z"/>
   <glyph glyph-name="guilsinglleft" horiz-adv-x="422" unicode="‹" d="M211 382q24 -52 57 -100t61 -97q23 -42 -5.5 -73.5t-68.5 0.5q-71 54 -115 128t-101 149q-33 44 -4 81q47 60 97.5 113t101.5 109q44 49 102 34q36 -9 53.5 -36.5t-13.5 -67.5q-39 -49 -84.5 -91t-78.5 -93q-17 -27 -2 -56z"/>
   <glyph glyph-name="guillemotleft" horiz-adv-x="765" unicode="«" d="M548 382q24 -52 57.5 -100t61.5 -97q23 -42 -5.5 -73.5t-68.5 0.5q-71 54 -115 128t-101 149q-33 44 -4 81q47 60 97.5 113t101.5 109q44 49 102 34q36 -9 53.5 -36.5t-13.5 -67.5q-39 -49 -84.5 -91t-78.5 -93q-17 -26 -3 -56zM220 382q24 -52 57 -100t61 -97 q23 -42 -5.5 -73.5t-68.5 0.5q-71 54 -115 128t-101 149q-33 44 -4 81q47 60 97.5 113t101.5 109q44 49 102 34q36 -9 53.5 -36.5t-13.5 -67.5q-39 -49 -84.5 -91t-78.5 -93q-17 -27 -2 -56z"/>
   <glyph glyph-name="guillemotright" horiz-adv-x="765" unicode="»" d="M216 446q-24 51 -51 101t-54 101q-24 41 -2 69.5t63 -2.5q70 -54 114.5 -128t101.5 -149q33 -44 4 -80q-48 -61 -98.5 -114t-100.5 -109q-45 -50 -102 -34q-37 9 -54.5 36t14.5 68q38 48 84 90.5t79 93.5q16 27 2 57zM545 446q-24 51 -51 101t-54 101q-24 41 -2 69.5 t63 -2.5q69 -54 114 -128t102 -149q33 -44 4 -80q-48 -61 -98 -114t-101 -109q-45 -50 -103 -34q-36 9 -53.5 36t14.5 68q38 48 84 90.5t79 93.5q16 27 2 57z"/>
   <glyph glyph-name="uni00A0" horiz-adv-x="469" unicode=" "/>
   <glyph glyph-name="guilsinglright" horiz-adv-x="422" unicode="›" d="M211 446q-24 51 -51 101t-54 101q-24 41 -2 69.5t63 -2.5q70 -54 114.5 -128t101.5 -149q33 -44 4 -80q-48 -61 -98.5 -114t-100.5 -109q-45 -50 -102 -34q-37 9 -54.5 36t14.5 68q38 48 84 90.5t79 93.5q16 27 2 57z"/>
   <glyph glyph-name="asciicircum" horiz-adv-x="609" unicode="^" d="M60 1314q56 64 103.5 137t77.5 102q18 18 48 44q21 18 58.5 14t54.5 -21q39 -41 59 -126.5t91 -191.5q41 -27 0 -64q-44 -40 -82 -53q-51 27 -78 152t-65 125q-36 -1 -84.5 -120.5t-99.5 -140.5q-27 -12 -65.5 8t-50.5 41q-13 21 10.5 45t22.5 49z"/>
   <glyph glyph-name="degree" horiz-adv-x="471" unicode="°" d="M21 974q0 94 78.5 171t165.5 82q69 4 127 -39t53 -125q-5 -105 -61 -173.5t-157 -83.5q-84 -11 -145 41t-61 127zM146 1004q0 -46 31 -64.5t66 -14.5q81 8 87 103q2 33 -20.5 60t-70.5 31q-37 3 -66 -26.5t-27 -88.5z"/>
   <glyph glyph-name="multiply" horiz-adv-x="924" unicode="×" d="M327 1003q26 -32 74.5 -103.5t104.5 -160.5q72 66 137 125.5t115 103.5q50 46 100 -12.5t5 -108.5q-30 -35 -100.5 -110t-154.5 -161q80 -134 138 -242.5t52 -126.5q-12 -38 -57.5 -47.5t-85.5 41.5q-38 46 -82.5 108.5t-92.5 135.5q-100 -103 -180 -179.5t-96 -84.5 q-86 -39 -137.5 12t32.5 144q97 106 274 274q-54 87 -103 169t-86 147q-22 40 45.5 75.5t97.5 0.5z"/>
   <glyph glyph-name="Agrave" horiz-adv-x="1258" unicode="À" d="M59 306q58 49 91.5 118t80.5 132q9 12 79.5 141.5t156 287.5t162.5 300.5t98 180.5q24 45 58 81.5t82 38.5q78 1 98.5 -35.5t25.5 -78.5q33 -286 76 -570.5t86 -569.5q4 -31 31 -51q57 -41 55 -109q-3 -42 -21 -79t-59 -45q-112 -23 -227 -16.5t-226 24.5q-40 6 -53 89 q-11 66 55 100q39 21 80.5 36.5t82.5 33.5q24 10 24 29q-4 44 -8 88.5t-7 89.5q-211 -13 -438 2q-37 -72 -66 -136q-44 -89 52 -90q123 -2 103 -122q-18 -105 -130 -126q-91 -18 -180 -19.5t-167 30.5q-33 12 -39 50t-5 71q3 86 49 124zM860 722q-10 90 -22.5 179t-30.5 179 q-6 21 -24 28.5t-35 -22.5q-109 -185 -204 -364h316zM607 1887q21 16 66.5 32.5t54.5 -7.5q29 -75 68.5 -139.5t123.5 -89.5q10 -3 13.5 -16.5t-4.5 -18.5q-56 -37 -97 -24q-166 49 -236 183q-9 15 -6.5 41.5t17.5 38.5z"/>
   <glyph glyph-name="Aacute" horiz-adv-x="1262" unicode="Á" d="M54 306q58 49 91.5 118t80.5 132q9 12 79.5 141.5t156 287.5t162.5 300.5t98 180.5q24 45 58 81.5t82 38.5q78 1 98.5 -35.5t25.5 -78.5q33 -286 76 -570.5t86 -569.5q4 -31 31 -51q57 -41 55 -109q-3 -42 -21 -79t-59 -45q-112 -23 -227 -16.5t-226 24.5q-40 6 -53 89 q-11 66 55 100q39 21 80.5 36.5t82.5 33.5q24 10 24 29q-4 44 -8 88.5t-7 89.5q-211 -13 -438 2q-37 -72 -66 -136q-44 -89 52 -90q123 -2 103 -122q-18 -105 -130 -126q-91 -18 -180 -19.5t-167 30.5q-33 12 -39 50t-5 71q3 86 49 124zM855 722q-10 90 -22.5 179t-30.5 179 q-6 21 -24 28.5t-35 -22.5q-109 -185 -204 -364h316zM1200 1875q15 -12 13 -38t-14 -41q-106 -134 -311 -183q-54 -14 -110 23q-9 6 -3 19.5t19 16.5q104 25 161.5 89.5t105.5 139.5q15 24 65.5 7.5t73.5 -33.5z"/>
   <glyph glyph-name="Acircumflex" horiz-adv-x="1264" unicode="Â" d="M58 306q58 49 91.5 118t80.5 132q9 12 79.5 141.5t156 287.5t162.5 300.5t98 180.5q24 45 58 81.5t82 38.5q78 1 98.5 -35.5t25.5 -78.5q33 -286 76 -570.5t86 -569.5q4 -31 31 -51q57 -41 55 -109q-3 -42 -21 -79t-59 -45q-112 -23 -227 -16.5t-226 24.5q-40 6 -53 89 q-11 66 55 100q39 21 80.5 36.5t82.5 33.5q24 10 24 29q-4 44 -8 88.5t-7 89.5q-211 -13 -438 2q-37 -72 -66 -136q-44 -89 52 -90q123 -2 103 -122q-18 -105 -130 -126q-91 -18 -180 -19.5t-167 30.5q-33 12 -39 50t-5 71q3 86 49 124zM859 722q-10 90 -22.5 179t-30.5 179 q-6 21 -24 28.5t-35 -22.5q-109 -185 -204 -364h316zM671 1711q42 27 77 58t65 60q18 18 48 44q21 18 58.5 14t54.5 -21q39 -41 67.5 -93.5t94.5 -94.5q41 -27 0 -64q-44 -40 -82 -53q-51 27 -84 87t-71 60q-36 -1 -78.5 -55.5t-93.5 -75.5q-27 -12 -65.5 8t-50.5 41 q-13 21 10.5 45t49.5 40z"/>
   <glyph glyph-name="questiondown" horiz-adv-x="885" unicode="¿" d="M741 1015q8 -69 -38.5 -120t-110.5 -49q-78 4 -92.5 49t-4.5 96q29 134 132 183q33 13 69 -31.5t45 -127.5zM844 -104q-66 -163 -214 -254.5t-327 -55.5q-155 31 -225.5 123.5t-64.5 222.5q6 117 53 191.5t119 123.5q175 121 233 330q41 142 125 123q58 -12 78 -72 t-32 -174q-29 -65 -85 -117.5t-120 -103.5q-123 -99 -155 -228t184 -171q102 -19 195 20t173 114q41 38 65.5 16.5t-2.5 -88.5z"/>
   <glyph glyph-name="Thorn" horiz-adv-x="1255" unicode="Þ" d="M335 1081l22 188q-187 25 -200 91q-11 47 9 101.5t55 64.5q92 27 206 22.5t205 -7.5q57 -3 81.5 -54.5t16.5 -129.5q-8 -77 -114 -97l-24 -69q76 3 175 8q229 -22 300 -65q108 -67 144.5 -138t18.5 -142q-4 -104 -134 -238t-277 -149q-72 -14 -177.5 -13.5t-193.5 6.5 l-42 -173q100 -6 169.5 -20t75.5 -50q7 -47 -20 -111t-61 -72q-78 -18 -224 -11.5t-223 16.5q-40 4 -60 20.5t-32 126.5q-6 52 44.5 80.5t107.5 27.5h2q41 101 73 303q23 149 77 484zM568 999l-79 -335q81 -1 162.5 0.5t156.5 13.5q187 63 192 175q16 41 -34 94.5t-165 56.5 q-59 0 -116.5 -1.5t-116.5 -3.5z"/>
   <glyph glyph-name="thorn" horiz-adv-x="837" unicode="þ" d="M409 779q-10 -76 17 -46t66.5 41.5t119.5 5.5q122 -12 172 -109t26 -200q-47 -197 -156.5 -316.5t-237.5 -141.5q-55 -10 -124 31q-37 -159 -76 -318.5t-70 -321.5q-15 -71 -39 -85.5t-76 9.5q-69 32 -46 201q24 180 45 360.5t61 360.5q2 10 8 28q96 526 116 648 q37 226 80 458q16 90 36 178t56 157q36 68 127.5 48t88.5 -93q-13 -265 -107 -501q-50 -126 -87 -394zM366 417q-13 -45 -21.5 -90t-20.5 -90q-23 -87 64 -66q74 16 109.5 64.5t56.5 119.5q43 147 -50 167q-101 21 -138 -105z"/>
   <glyph glyph-name="numbersign" horiz-adv-x="837" unicode="#" d="M118 229q3 24 8 53q-64 12 -84 51q-25 47 58 79q24 9 50 16l6 38q10 56 17 102q-56 12 -75 49q-25 47 58 79q18 7 36 12q9 91 33 178q25 88 109 110q93 24 111.5 -17t2.5 -115q-13 -61 -29 -125q45 1 92 0q10 75 30 147q25 88 109 110q93 24 111.5 -17t2.5 -115 q-15 -68 -33 -141q87 -21 67 -86q-17 -55 -43 -66.5t-67 -15.5h-2l-20 -68q-6 -22 -13 -43q112 -18 89 -91q-17 -55 -43 -66.5t-67 -15.5q-19 -2 -38 -3q-23 -63 -45 -112q-33 -74 -88 -43q-41 21 -27 116q3 18 6 34l-49 1q-57 2 -112 5q-24 -63 -46 -113q-33 -74 -88 -43 q-41 21 -27 116zM488 545v2q-21 1 -41 1q-40 1 -78 3q-9 -31 -19 -64q-5 -16 -9 -32q64 1 132 -1q10 60 15 91z"/>
   <glyph glyph-name="dollar" horiz-adv-x="1260" unicode="$" d="M91 669q14 65 75 61q59 -5 75 -39.5t24 -76.5q32 -178 335 -197h3.5h4.5q228 7 293 138q37 76 -48.5 124t-238.5 79q-187 37 -315.5 138.5t-70.5 288.5q38 123 199 196.5t333 69.5q104 -2 155 -23t85 -42q8 -6 25 -5.5t22 11.5q25 56 99 48q64 -8 80 -38.5t10 -62.5 q-18 -83 -34.5 -166t-47.5 -164q-16 -42 -59 -32q-30 6 -50 25t-21.5 27.5t-5 55t-67 101.5t-213.5 60q-126 2 -205 -32t-85 -91q-9 -83 67 -128t203 -64q276 -42 371 -145.5t46 -241.5q-60 -167 -193 -252.5t-317 -94.5q-135 -6 -227.5 41t-138.5 118q-13 21 -28.5 21.5 t-19.5 -23.5q-8 -46 -24 -84.5t-57 -38.5q-58 0 -87 33t-23 70q13 83 32 167t39 168zM368 194q110 347 214.5 697.5t234.5 685.5q15 39 53.5 38.5t63.5 -27.5q35 -41 26.5 -110.5t-27.5 -134.5q-98 -327 -224.5 -634t-237.5 -621q-16 -45 -32.5 -46t-36.5 11q-68 38 -34 141 z"/>
   <glyph glyph-name="percent" horiz-adv-x="1288" unicode="%" d="M335 168q117 289 228 580.5t251 570.5q15 33 57.5 32.5t71.5 -23.5q41 -34 32 -92t-29 -112q-105 -272 -240.5 -527.5t-255.5 -516.5q-17 -37 -34.5 -38t-40.5 9q-76 32 -40 117zM656 326q0 142 112 259.5t237 126.5q98 6 181 -60t77 -191q-8 -160 -87.5 -265 t-225.5 -128q-120 -17 -207 62.5t-87 195.5zM835 371q0 -70 44 -98.5t95 -22.5q116 13 124 158q3 51 -29 91.5t-101 47.5q-54 4 -95 -41t-38 -135zM20 967q0 142 112 259.5t237 126.5q98 5 181 -61t77 -190q-8 -160 -87.5 -265t-225.5 -128q-120 -17 -207 62.5t-87 195.5z M199 1012q0 -70 44 -98.5t95 -22.5q116 12 124 158q3 50 -29 91t-101 47q-54 4 -95 -40.5t-38 -134.5z"/>
   <glyph glyph-name="m_m" horiz-adv-x="1413" unicode="" d="M80 126q-51 59 -54 156.5t63 271.5q63 172 88 196.5t100 -36.5q51 -42 42.5 -107.5t-50.5 -157.5q-30 -64 -4 -56.5t42 40.5q91 188 184.5 281t190.5 23q59 -43 62 -103t-7 -135q-10 -69 34 -24q150 156 212.5 233.5t164.5 7.5q82 -58 71 -131t-35 -165 q-28 -104 11.5 -95.5t112.5 95.5q45 54 64.5 40t4.5 -80q-45 -195 -164 -280.5t-208 -31.5q-94 55 -33 329q17 84 -53 17q-76 -73 -141 -152t-119 -157q-85 -121 -174 2q-37 53 0 152q75 204 31 202.5t-146 -177.5q-122 -210 -170 -226t-120 68zM156 968q-39 27 -19.5 77.5 t55.5 52.5q157 4 377.5 -14.5t607.5 28.5q102 12 111 -59q8 -76 -28 -131.5t-107 -61.5q-78 -7 -289 -12.5t-366.5 20.5t-231 50t-110.5 50z"/>
   <glyph glyph-name="n_n" horiz-adv-x="997" unicode="" d="M72 554q-34 70 -13.5 135.5t71.5 68.5q69 3 145.5 -53t42.5 -199q-27 -118 45 -33q177 210 258.5 243t135.5 -9q62 -51 62 -123.5t-33 -158.5q-30 -75 -10.5 -95.5t94.5 54.5q110 110 78 -67q-15 -82 -59.5 -138t-101.5 -94q-143 -96 -216 50q-59 117 -9 244 q50 124 -63 26q-94 -83 -163.5 -169t-130.5 -176q-40 -59 -114 12q-66 63 -24 175q68 177 5 307zM96 930q-39 27 -19.5 77.5t55.5 52.5q157 4 313.5 -6t314.5 8q102 12 111 -59q8 -76 -28 -131.5t-107 -61.5q-78 -7 -174.5 2t-188 26.5t-167 41.5t-110.5 50z"/>
   <glyph glyph-name="longs_h" horiz-adv-x="1469" unicode="" d="M-25 -430q61 390 135.5 778.5t153.5 776.5q41 222 132 341.5t195 115.5q57 -3 75.5 -57t18.5 -111q0 -77 -30.5 -118t-66.5 -36q-15 2 -31 15.5t-39 58.5q-51 -69 -77 -260.5t-50 -372.5q-45 -299 -91 -597t-88 -597q-17 -117 -138 -96t-99 159zM528 93q-36 45 -31 88 t27 97q51 128 75.5 281t49.5 312q33 213 67.5 426.5t62.5 427.5q10 79 95 32q108 -62 124.5 -156t-11.5 -201q-48 -177 -91 -356t-93 -356q-45 -161 -34 -194.5t139 131.5q177 228 318 114q62 -51 56 -127t-25 -168q-20 -90 8.5 -88t84.5 56q116 109 94 -30 q-24 -144 -97 -228.5t-146 -92.5q-123 -15 -171.5 65.5t-8.5 233.5q20 78 3 96t-76 -45q-78 -84 -147.5 -173t-138.5 -177q-26 -33 -54.5 -33.5t-79.5 65.5z"/>
   <glyph glyph-name="longs_i" horiz-adv-x="905" unicode="" d="M-1 -430q61 390 135.5 778.5t153.5 776.5q41 222 132 341.5t195 115.5q57 -3 75.5 -57t18.5 -111q0 -77 -30.5 -118t-66.5 -36q-15 2 -31 15.5t-39 58.5q-51 -69 -77 -260.5t-50 -372.5q-45 -299 -91 -597t-88 -597q-17 -117 -138 -96t-99 159zM517 703q37 95 155 38 q66 -32 66 -70.5t-21 -90.5q-90 -219 -52.5 -260.5t171.5 89.5q43 42 53 29t4 -64q-21 -159 -111 -252q-134 -134 -234 -59t-108 211q-5 66 15 194t62 235zM671 929q-143 74 -91 224q31 89 108 74q74 -15 99.5 -80.5t25.5 -158.5q0 -84 -37 -90t-105 31z"/>
   <glyph glyph-name="longs_l" horiz-adv-x="1097" unicode="" d="M948 348q63 52 79.5 27.5t6.5 -101.5q-22 -151 -109 -205q-122 -77 -188 -52.5t-96 99t-34 173t1 169.5q8 157 43 371q27 164 62 372q0 87 -12 105q-78 85 -124 28q-51 -69 -77 -260.5t-50 -372.5q-45 -299 -91 -597t-88 -597q-17 -117 -138 -96t-99 159 q61 390 135.5 778.5t153.5 776.5q41 222 132 341.5t195 115.5q57 -3 83 -35q13 -22 71 -66q27 79 55 132q53 99 116 69q99 -48 81.5 -169.5t-73.5 -307t-114.5 -393t-82.5 -391.5q-16 -121 31 -132t131 59z"/>
   <glyph glyph-name="longs_longs" horiz-adv-x="918" unicode="" d="M-8 -430q61 390 135.5 778.5t153.5 776.5q41 222 132 341.5t195 115.5q57 -3 75 -77q12 -47 61 -136q22 53 51 93q85 120 189 116q57 -3 78.5 -57t24.5 -111q4 -77 -24 -118t-64 -36q-15 2 -32 15.5t-42 58.5q-48 -69 -63.5 -260.5t-29.5 -372.5q-29 -299 -59 -597 t-53 -499q-11 -117 -133 -96t-108 159q38 292 91.5 680.5t111.5 776.5v3q-16 16 -41 43q-57 63 -106 167q-51 -69 -77 -260.5t-50 -372.5q-45 -299 -91 -597t-88 -597q-17 -117 -138 -96t-99 159z"/>
   <glyph glyph-name="f_j" horiz-adv-x="992" unicode="" d="M0 -430q42 264 89.5 526.5t99.5 525.5q-90 25 -165 60q-32 66 30 94q40 -4 80.5 -7.5t81.5 -5.5q18 90 36.5 180.5t36.5 181.5q41 222 132 341.5t195 115.5q57 -3 75.5 -57t18.5 -111q0 -77 -30.5 -118t-66.5 -36q-15 2 -31 15.5t-39 58.5q-47 -64 -72 -234t-47 -342 q55 0 282 10q85 0 136 -30q96 -58 113.5 -150t5.5 -200q-26 -222 -74 -439t-107 -435q-34 -125 -70.5 -176.5t-75.5 -79.5q-63 -44 -92 -8t33 246q40 139 66 282.5t49 286.5q9 60 17.5 120t17.5 120q54 250 -179 268q-123 4 -148 7q-41 -269 -82 -536.5t-79 -536.5 q-17 -117 -138 -96t-99 159zM844 912q-40 -8 -87 39.5t-50 110.5q-3 51 15.5 97.5t81.5 52.5q58 5 97 -37t44 -94q13 -148 -101 -169z"/>
   <glyph glyph-name="t_t" horiz-adv-x="1337" unicode="" d="M787 640q-229 -82 -377 -108q-15 -50 -14 -93q-40 -272 161 -34l1 -1q2 0 3 1q62 79 114 100.5t35 -68.5q-25 -127 -81.5 -209.5t-119.5 -145.5q-86 -84 -145 -74t-95 47q-77 77 -92.5 223t12.5 232q-173 152 12 185q18 3 33 6q45 204 56 253t23 98q36 149 156 96 q48 -21 53 -52.5t-5 -67.5q-13 -47 -68 -298q87 27 231 75.5t159 51.5q12 48 23 97t23 98q36 149 156 96q48 -21 53 -52.5t-5 -67.5q-13 -47 -28 -113q90 28 147 57q110 52 70 -75q-24 -77 -93.5 -126.5t-169.5 -82.5q-15 -83 -23 -134q-64 -387 137 -149l1 -1q2 0 3 1 q62 79 114 100.5t35 -68.5q-25 -127 -81.5 -209.5t-119.5 -145.5q-86 -84 -145 -74t-95 47q-77 77 -92.5 223t38.5 362z"/>
   <glyph glyph-name="l_l" horiz-adv-x="972" unicode="" d="M823 348q63 52 79.5 27.5t6.5 -101.5q-22 -151 -109 -205q-122 -77 -188 -52.5t-96 98.5q-25 62 -32 139q-84 -150 -140 -185q-122 -77 -188 -52.5t-96 99t-34 173t1 169.5q8 157 43.5 371.5t104.5 452.5q48 190 100.5 288.5t115.5 68.5q99 -48 81.5 -169.5t-56.5 -250.5 q-70 -199 -128.5 -406.5t-82.5 -391.5q-16 -121 63 -134q78 -13 221 225q9 149 37 317q36 215 108 496q48 190 100.5 288.5t115.5 68.5q99 -48 81.5 -169.5t-56.5 -250.5q-73 -242 -131.5 -449.5t-82.5 -391.5q-16 -121 31 -132t131 59z"/>
   <glyph glyph-name="l_l" horiz-adv-x="972" unicode="" d="M823 348q63 52 79.5 27.5t6.5 -101.5q-22 -151 -109 -205q-122 -77 -188 -52.5t-96 98.5q-25 62 -32 139q-84 -150 -140 -185q-122 -77 -188 -52.5t-96 99t-34 173t1 169.5q8 157 43.5 371.5t104.5 452.5q48 190 100.5 288.5t115.5 68.5q99 -48 81.5 -169.5t-56.5 -250.5 q-70 -199 -128.5 -406.5t-82.5 -391.5q-16 -121 63 -134q78 -13 221 225q9 149 37 317q36 215 108 496q48 190 100.5 288.5t115.5 68.5q99 -48 81.5 -169.5t-56.5 -250.5q-73 -242 -131.5 -449.5t-82.5 -391.5q-16 -121 31 -132t131 59z"/>
   <glyph glyph-name="ffi" horiz-adv-x="1557" unicode="ﬃ" d="M74 776q37 -3 74.5 -5t75.5 -3q55 211 117 383q77 216 179.5 325t206.5 106q57 -3 73 -57t14 -111q-4 -77 -36.5 -118t-68.5 -36q-14 2 -29.5 15.5t-36.5 58.5q-50 -64 -105 -233t-90 -341q148 -4 269 -2q26 189 57 367q39 222 126.5 341t191.5 116q58 -3 77 -57t21 -111 q1 -77 -29 -118t-66 -36q-14 2 -30.5 15.5t-40.5 58.5q-45 -63 -67 -231t-41 -339q34 1 100 5q140 19 189.5 11t113.5 -39q66 -32 66 -70.5t-21 -90.5q-90 -219 -52.5 -260.5t171.5 89.5q43 42 53 29t4 -64q-21 -159 -111 -252q-134 -134 -234 -59t-108 211q-5 66 15 194 q10 68 27 131q-121 -22 -235 -27q-28 -270 -40 -547.5t-45 -544.5q-15 -116 -136 -95t-102 159q35 255 62.5 514.5t60.5 519.5q-147 10 -275 27q-49 -275 -81.5 -549t-83.5 -549q-22 -117 -135.5 -97t-98.5 160q29 268 69.5 536.5t103.5 535.5q-74 14 -172 40q-23 70 53 94z M1318 929q-143 74 -91 224q31 89 108 74q74 -15 99.5 -80.5t25.5 -158.5q0 -84 -37 -90t-105 31z"/>
   <glyph glyph-name="ffl" horiz-adv-x="1572" unicode="ﬄ" d="M1431 348q63 52 79.5 27.5t6.5 -101.5q-22 -151 -109 -205q-122 -77 -188 -52.5t-96 99t-34 173t1 169.5q4 78 14 170q-68 -49 -205 -56q-28 -270 -40 -547.5t-45 -544.5q-15 -116 -136 -95t-102 159q35 255 62.5 514.5t60.5 519.5q-147 10 -275 27q-49 -275 -81.5 -549 t-83.5 -549q-22 -117 -135.5 -97t-98.5 160q29 268 69.5 536.5t103.5 535.5q-74 14 -172 40q-23 70 53 94q37 -3 74.5 -5t75.5 -3q55 211 117 383q77 216 179.5 325t206.5 106q57 -3 73 -57t14 -111q-4 -77 -36.5 -118t-68.5 -36q-14 2 -29.5 15.5t-36.5 58.5 q-50 -64 -105 -233t-90 -341q148 -4 269 -2q26 189 57 367q39 222 126.5 341t191.5 116q58 -3 77 -57t21 -111q1 -77 -29 -118t-66 -36q-14 2 -30.5 15.5t-40.5 58.5q-45 -63 -67 -231t-41 -339q34 1 100 5q67 3 102 -5q5 32 10 65q36 215 108 496q48 190 100.5 288.5 t115.5 68.5q99 -48 81.5 -169.5t-56.5 -250.5q-73 -242 -131.5 -449.5t-82.5 -391.5q-16 -121 31 -132t131 59z"/>
   <glyph glyph-name="f_f_t" horiz-adv-x="1666" unicode="" d="M97 776q37 -3 74.5 -5t75.5 -3q55 211 117 383q77 216 179.5 325t206.5 106q57 -3 73 -57t14 -111q-4 -77 -36.5 -118t-68.5 -36q-14 2 -29.5 15.5t-36.5 58.5q-50 -64 -105 -233t-90 -341q148 -4 269 -2q26 189 57 367q39 222 126.5 341t191.5 116q58 -3 77 -57t21 -111 q1 -77 -29 -118t-66 -36q-14 2 -30.5 15.5t-40.5 58.5q-45 -63 -67 -231t-41 -339q34 1 88.5 14t159.5 60q2 67 13 116t23 98q36 149 156 96q48 -21 53 -52.5t-5 -67.5q-13 -47 -28 -113q90 28 147 57q110 52 70 -75q-24 -77 -93.5 -126.5t-169.5 -82.5q-15 -83 -23 -134 q-64 -387 137 -149l1 -1q2 0 3 1q62 79 114 100.5t35 -68.5q-25 -127 -81.5 -209.5t-119.5 -145.5q-86 -84 -145 -74t-95 47q-77 77 -93 223q-14 137 47 344q-79 -43 -216 -50q-28 -270 -40 -547.5t-45 -544.5q-15 -116 -136 -95t-102 159q35 255 62.5 514.5t60.5 519.5 q-147 10 -275 27q-49 -275 -81.5 -549t-83.5 -549q-22 -117 -135.5 -97t-98.5 160q29 268 69.5 536.5t103.5 535.5q-74 14 -172 40q-23 70 53 94z"/>
   <glyph glyph-name="longs_t" horiz-adv-x="1068" unicode="ﬅ" d="M538 666q-173 152 12 185q18 3 33 6q12 48 32 194.5t-1 268.5q-40 61 -110 14q-51 -69 -77 -260.5t-50 -372.5q-45 -299 -91 -597t-88 -597q-17 -117 -138 -96t-99 159q61 390 135.5 778.5t153.5 776.5q41 222 132 341.5t195 115.5q109 -6 170 -94.5t67 -297.5t-9 -275 q90 28 147 57q110 52 70 -75q-24 -77 -93.5 -126.5t-169.5 -82.5q-15 -83 -23 -134q-64 -387 137 -149l1 -1q2 0 3 1q62 79 114 100.5t35 -68.5q-25 -127 -81.5 -209.5t-119.5 -145.5q-86 -84 -145 -74t-95 47q-77 77 -92.5 223t42.5 378z"/>
   <glyph glyph-name="germandblS" horiz-adv-x="1316" unicode="ẞ" d="M980 1418q133 -15 171.5 -76t49.5 -145t-26 -178t-145 -167q-12 -8 -11.5 -22t14.5 -16q103 -14 173 -96t76 -201q9 -210 -91 -347.5t-328 -172.5q-56 -8 -117.5 21t-80.5 132q-14 71 54 105q30 13 59.5 -1t58.5 -35q49 -36 109 -8t97 142q33 105 -15 190.5t-199 80.5 q-85 -33 -140 18t32 131q164 74 240 186.5t60 176t-158.5 66.5t-195.5 6q-54 4 -93 -42q-51 -69 -62 -176.5t-45.5 -347.5t-38.5 -297q-2 -31 -12 -69l-1 -8q42 -8 84 -18q69 -18 89.5 -53t17.5 -79q-8 -87 -86 -85q-90 3 -179 0.5t-178 -7.5q-31 -3 -63.5 15.5t-60.5 96.5 q-24 61 1 104.5t120 47.5q50 171 84.5 328t75.5 339q41 222 132 341.5t195 115.5q57 -3 333 4z"/>
   <glyph glyph-name="sterling" horiz-adv-x="943" unicode="£" d="M69 507q-39 27 -19.5 77.5t55.5 52.5q42 1 84 1q11 52 22 103q51 232 119 459q51 169 141 242t199 70q155 -4 209 -115.5t46 -274.5q-2 -44 -29 -92t-79 -51q-54 -3 -70.5 41t-24.5 95q-6 44 -19.5 68t-55.5 27q-89 5 -130 -136q-56 -198 -88 -395l-8 -48q155 -10 312 8 q102 12 111 -59q8 -76 -28 -131.5t-107 -61.5q-78 -7 -175 2q-76 7 -148 19q-10 -65 -19 -130q120 -9 186 -20q54 0 115 2q89 2 136 58t82 139q35 88 86 111q36 17 56.5 -14.5t14.5 -87.5q-12 -104 -25 -179.5t-37 -171.5q-18 -68 -66.5 -91t-155.5 -23h-9 q-194 2 -274.5 -1.5t-168.5 -7t-177 7.5q-114 28 -98 184q8 68 93 92q14 94 31 188q-58 21 -87 43z"/>
   <glyph glyph-name="yen" horiz-adv-x="1084" unicode="¥" d="M235 482q98 38 217 42q3 14 6 27v2q-64 4 -127 10q-87 7 -112 54t58 79q80 30 173 39q-9 30 -22 60q-48 106 -87.5 216.5t-81.5 219.5q-10 23 -43 20q-125 -13 -154 118v4q-37 112 83 156q6 3 2 3q98 7 192.5 5.5t181.5 -21.5q110 -28 112 -134q1 -97 -95 -98 q-60 -3 -40 -49q31 -73 61.5 -146t57.5 -147q17 -50 24.5 -43t25.5 34q43 68 97.5 128.5t100.5 126.5q9 15 9.5 35t-34.5 32q-100 32 -101 125q-2 54 31.5 97t120.5 51q122 11 282 -7q110 -14 100 -108q-12 -103 -69 -147q-131 -105 -239 -262q-95 -138 -193 -270 q7 -1 15 -1q159 -10 132 -96q-17 -55 -43 -66.5t-67 -15.5q-53 -5 -107 -7v-6q-1 -11 -3 -21l46 -2q159 -10 132 -96q-17 -55 -43 -66.5t-67 -15.5q-51 -4 -103 -7q-1 -52 49 -54q104 -5 156 -35t25 -125q-34 -120 -108 -120q-139 3 -278.5 2.5t-277.5 11.5q-78 7 -79 114 q0 33 10.5 64t50.5 40q67 14 127 27q55 12 74 80q-63 4 -124 10q-87 7 -112 54t58 79z"/>
   <glyph glyph-name="exclamdown" horiz-adv-x="516" unicode="¡" d="M318 390q3 -167 -11.5 -341t-87.5 -391q-55 -166 -163 -139q-103 26 -77 120q47 176 93 350.5t82 348.5q25 118 99 121q64 2 65 -69zM437 787q-23 -172 -128 -159q-51 7 -73 50.5t-19 103.5q6 102 36 141.5t84 45.5q42 4 79 -32t21 -150z"/>
   <glyph glyph-name="cent" horiz-adv-x="687" unicode="¢" d="M443 1026q0 42 28 78t82 37q69 0 84 -38.5t14 -92.5q-3 -142 -32 -258q4 -3 9 -7q82 -75 18 -164q-64 -93 -105 -36q-54 -118 -156 -329q25 -3 53 8q68 26 138 77q24 17 46 1t8 -52q-33 -88 -142 -151q-91 -52 -189 -60q-33 -66 -69 -140q-45 -48 -64.5 -5t-12.5 58 q19 49 37 96q-54 18 -98 67q-70 79 -70 176q0 81 24 174.5t136 216.5q100 109 236 118h11q13 108 14 226zM352 594q-79 -63 -91 -166q-8 -74 24 -131q78 210 110 322q-21 -8 -43 -25z"/>
   <glyph glyph-name="bullet" horiz-adv-x="594" unicode="•" d="M103 649q12 138 86 211t162 73q80 0 117 -58t36 -118q-7 -163 -88.5 -248t-164.5 -85q-56 0 -105.5 68.5t-42.5 156.5z"/>
   <glyph glyph-name="mu" horiz-adv-x="1055" unicode="µ" d="M166 389q0 52 -51 7q-30 -27 -47.5 -20t-27.5 80q-10 69 19 147.5t105 132.5l8 5l1 1q8 7 18 17q107 21 156.5 13.5t69.5 -44.5q36 -72 18.5 -136t-33.5 -130q-15 -58 -11 -85q5 -10 8 -18q3 -3 6 -4q29 -10 68 46q55 78 109 163t114 163q27 36 61.5 38.5t90.5 -46.5 q63 -55 52 -126.5t-29 -148.5q-61 -250 66 -156q55 41 78 3t-23 -101q-90 -126 -186.5 -143.5t-160.5 45.5q-68 64 -6 248q22 67 5 68.5t-53 -59.5q-91 -219 -159 -273q-69 -32 -130 25q-18 -231 -39 -367q-29 -168 -60 -330q-15 -71 -39 -85.5t-76 9.5q-69 32 -46 201 q24 180 45 360.5t50.5 317t28.5 182.5z"/>
   <glyph glyph-name="OE" horiz-adv-x="1946" unicode="Œ" d="M554 -13q-210 -10 -372 193.5t-92 616.5q56 330 240.5 556.5t444.5 219.5q66 -3 123 -26q183 4 368 9l392 10h9q107 0 150 -23.5t49 -89.5q9 -118 -7 -217t-40 -198q-15 -57 -42 -60t-59 15q-70 35 -51 117q18 80 -2 129.5t-107 52.5q-93 2 -185 4t-184 2l-84 -352 q73 -7 127.5 6t81.5 73q14 32 33.5 54t83.5 12q99 -16 66 -109q-30 -88 -53 -177t-39 -168q-12 -59 -45 -102t-81 -37q-36 4 -48.5 39.5t-4.5 80.5q15 101 -96 96q-21 -1 -41 -3t-40 -3l-103 -436q94 -6 183.5 -8.5t197.5 0.5q89 2 136 58t82 139q35 88 86 111 q36 17 56.5 -14.5t14.5 -87.5q-12 -104 -25 -179.5t-37 -171.5q-18 -68 -66.5 -91t-155.5 -23h-9q-201 2 -311.5 7.5t-174 10.5t-101.5 7t-94 -4l-8 -1q-82 -33 -166 -38zM763 1278q-147 6 -282.5 -112t-163.5 -351q-34 -276 42.5 -396.5t214.5 -114.5q81 2 149 40 q66 217 116 445q71 369 14.5 428t-90.5 61z"/>
   <glyph glyph-name="Euro" horiz-adv-x="1068" unicode="€" d="M68 579q19 7 39 13q2 58 10 121q-37 10 -50 38q-20 40 46 67q11 5 24 9q43 199 145 337q126 170 331 174q87 1 139.5 -35t82.5 -86q19 -34 29 0q22 87 78 87q37 -2 44 -29.5t9 -62.5q13 -229 -50 -441q-19 -61 -49 -52q-32 8 -41.5 33t-12.5 53q-21 141 -87.5 207.5 t-162.5 74.5q-119 11 -204 -105q-42 -56 -69 -128q99 1 290 -5q125 -9 104 -81q-13 -46 -33.5 -56t-53.5 -13q-190 -8 -284 -6q-31 1 -61 3q-1 -5 -1 -10q-4 -37 -6 -71q95 1 196 -5q126 -8 104 -81q-13 -46 -33.5 -55.5t-52.5 -13.5q-96 -8 -190 -6h-11q8 -32 19 -63 q48 -124 174 -129q85 -5 165.5 61.5t158.5 170.5q34 44 71 16q40 -30 19 -93q-64 -195 -179.5 -302t-248.5 -102q-190 7 -291 201q-55 108 -66 253q-67 7 -86 45q-20 40 45 67z"/>
   <glyph glyph-name="divide" horiz-adv-x="869" unicode="÷" d="M57 397q-39 27 -19.5 77.5t55.5 52.5q157 4 313.5 -6t314.5 8q102 12 111 -59q8 -76 -28 -131.5t-107 -61.5q-78 -7 -174.5 2t-188 26.5t-167 41.5t-110.5 50zM388 239q57 1 87 -52t29 -113q-5 -162 -114 -160q-110 0 -105 157q4 163 103 168zM458 905q57 1 87 -52 t29 -113q-5 -162 -114 -160q-110 0 -105 157q4 163 103 168z"/>
   <glyph glyph-name="florin" horiz-adv-x="568" unicode="ƒ" d="M360 1205q41 164 115 261q91 120 195 116q57 -3 75.5 -57t18.5 -111q0 -77 -30.5 -118t-66.5 -36q-15 2 -31 15.5t-39 58.5q-25 -34 -44.5 -104.5t-27.5 -129.5q-25 -170 -47 -342q80 1 177 11q115 10 69 -103q-44 -107 -196 -94q-26 2 -96 14q-43 -251 -144 -743 q-41 -164 -115 -261q-91 -120 -195 -116q-57 3 -75.5 57t-18.5 111q0 77 30.5 118t66.5 36q15 -2 31 -15.5t39 -58.5q27 38 47 111q37 226 63 371q30 163 82 426q-90 25 -165 60q-32 66 30 94q40 -4 80.5 -7.5t81.5 -5.5q18 90 36.5 180.5t36.5 181.5q7 42 17 80z"/>
   <glyph glyph-name="at" d="M636 12q-106 -3 -157 121q-46 -46 -95 -82.5t-107 -45.5q-70 -12 -124 38.5t-65 125.5q-13 90 51.5 185t181.5 160q78 43 137.5 30.5t82.5 -47.5q19 -29 64 -24q48 5 62 -29.5t-5 -80.5q-55 -127 -26 -160t100 23q12 9 22 10q7 20 14 42q46 151 -38.5 278.5t-232.5 133.5 q-179 4 -345.5 -98.5t-199.5 -307.5q-42 -241 51.5 -345.5t263.5 -99.5q115 3 207 47q110 71 178 6.5t12 -105.5q-191 -140 -399 -148q-219 -8 -387 151.5t-95 483.5q58 259 249.5 437t461.5 172q243 -6 369.5 -215.5t67.5 -443.5q-33 -193 -299 -212zM426 384 q-80 12 -132 -78q-30 -54 -18.5 -88t57.5 -34q84 1 125 80q19 37 11 76t-43 44z" unicode="@"/>
   <glyph glyph-name="underscore" horiz-adv-x="917" unicode="_" d="M0 -306h916v-208h-916v208z"/>
   <glyph glyph-name="bracketleft" horiz-adv-x="755" unicode="[" d="M385 1471q40 109 75 119q95 25 186 22q57 -3 81.5 -54.5t16.5 -129.5q-8 -77 -191 -97l-225 -1022q21 1 82.5 3t85.5 4q164 11 140 -126q-26 -152 -120 -157q-115 -7 -201 -3.5t-103 2.5q-45 5 -63.5 64.5t-5.5 105.5q73 323 125.5 570.5t116.5 698.5z"/>
   <glyph glyph-name="bracketright" horiz-adv-x="755" unicode="]" d="M497 170q-40 -109 -75 -119q-95 -25 -186 -22q-57 3 -81.5 54.5t-16.5 129.5q8 77 191 97l225 1022q-21 -1 -82.5 -3t-85.5 -4q-164 -11 -140 126q26 152 120 157q115 7 201 3.5t103 -2.5q45 -5 63.5 -64.5t5.5 -105.5q-73 -323 -125.5 -570.5t-116.5 -698.5z"/>
   <glyph glyph-name="backslash" horiz-adv-x="816" unicode="\" d="M537 194q-130 348 -271 699.5t-235 687.5q-12 39 38 38.5t105 -27.5q80 -41 123.5 -111t69.5 -135q130 -328 208 -635.5t180 -622.5q15 -45 -4.5 -46t-56.5 11q-119 38 -157 141z"/>
   <glyph glyph-name="perthousand" horiz-adv-x="1953" unicode="‰" d="M335 168q117 289 228 580.5t251 570.5q15 33 57.5 32.5t71.5 -23.5q41 -34 32 -92t-29 -112q-105 -272 -240.5 -527.5t-255.5 -516.5q-17 -37 -34.5 -38t-40.5 9q-76 32 -40 117zM1298 326q0 142 112 259.5t237 126.5q98 6 181 -60t77 -191q-8 -160 -87.5 -265 t-225.5 -128q-120 -17 -207 62.5t-87 195.5zM1477 371q0 -70 44 -98.5t95 -22.5q116 13 124 158q3 51 -29 91.5t-101 47.5q-54 4 -95 -41t-38 -135zM20 967q0 142 112 259.5t237 126.5q98 5 181 -61t77 -190q-8 -160 -87.5 -265t-225.5 -128q-120 -17 -207 62.5t-87 195.5z M199 1012q0 -70 44 -98.5t95 -22.5q116 12 124 158q3 50 -29 91t-101 47q-54 4 -95 -40.5t-38 -134.5zM656 326q0 142 112 259.5t237 126.5q98 6 181 -60t77 -191q-8 -160 -87.5 -265t-225.5 -128q-120 -17 -207 62.5t-87 195.5zM835 371q0 -70 44 -98.5t95 -22.5 q116 13 124 158q3 51 -29 91.5t-101 47.5q-54 4 -95 -41t-38 -135z"/>
   <glyph glyph-name="trademark" horiz-adv-x="1414" unicode="™" d="M121 1430q-17 -9 -19 -64t-19 -92q-7 -17 -21 -12q-23 9 -25 31q-5 47 -6.5 95.5t10.5 95.5q5 21 21.5 40.5t38.5 22.5q109 16 220.5 17.5t221.5 -8.5q16 -1 28.5 -17.5t12.5 -32.5q1 -58 -10 -116t-26 -114q-7 -27 -31 -24q-11 2 -17.5 12.5t-10.5 20.5q-12 31 -2 88.5 t-7 66.5q-25 -1 -53.5 -2t-58.5 -2l-92 -426q24 1 48 3t49 3q44 2 51.5 -19t1.5 -56q-9 -40 -19.5 -50t-66.5 -14q-70 -5 -144.5 1t-126.5 15q-22 4 -30 42q-5 20 6.5 41t35.5 21t47.5 1.5t47.5 2.5q28 104 47 214.5t31 218.5l-68 -2t-65 -2zM698 1458q-44 5 -65.5 12 t-16.5 29q3 13 7 29.5t35 24.5q74 18 159 7q34 -5 46.5 -26.5t15.5 -44.5q11 -102 22.5 -203.5t28.5 -201.5q3 -18 12.5 -18.5t15.5 10.5q48 103 94 207.5t95 206.5q3 7 3 0q27 62 109 69q53 3 84 -7.5t24 -35.5q-15 -50 -53 -80l-68 -448q9 1 18.5 1.5t18.5 1.5 q33 3 45 -11t17 -38q6 -31 -18 -47.5t-37 -19.5q-43 -7 -86 -8t-86 0q-26 1 -32.5 14t-4.5 35q2 25 11.5 41.5t35.5 20.5q4 0 7.5 0.5t7.5 1.5q21 91 34 188t20 195q-8 -12 -10 -17q-57 -111 -112.5 -225.5t-107.5 -226.5q-20 -43 -64 -17q-40 24 -48 81 q-17 104 -30.5 208.5t-31.5 208.5q-21 -99 -38.5 -197.5t-28.5 -196.5q19 -3 38 -8q32 -8 41 -24t8 -36q-4 -39 -39 -38q-41 1 -81 0t-81 -3q-14 -2 -28.5 6.5t-27.5 44.5q-11 27 0.5 47t54.5 21q32 111 53 230.5t34 236.5z"/>
   <glyph glyph-name="asciitilde" horiz-adv-x="1083" unicode="~" d="M173 559q70 53 148.5 116t162.5 55q69 -8 130 -89t130 -91q33 -6 54.5 45.5t48.5 73.5q21 14 57 5t59 -19q29 -14 29.5 -62.5t-15.5 -74.5q-39 -64 -101.5 -122.5t-138.5 -62.5q-139 -8 -188 79t-94 91q-50 4 -105.5 -66t-134.5 -74q-37 -4 -64 34t-33 74q-6 24 14 48 t41 40z"/>
   <glyph glyph-name="plusminus" horiz-adv-x="1017" unicode="±" d="M887 367q46 -6 52.5 -82t-38.5 -79q-75 -4 -170.5 -7.5t-289 -3.5t-270.5 3.5t-136 10.5q-64 6 -80.5 49.5t8.5 74.5q12 15 134.5 24.5t349 14t313 2.5t127.5 -7zM985 890q46 -6 52.5 -82t-38.5 -79q-75 -4 -170.5 -7.5t-197.5 -4.5q2 -52 -34 -191q-33 -121 -104 -105 t-84 109q-3 18 -5.5 32.5t29.5 154.5q-87 1 -164 4.5t-136 10.5q-64 6 -80.5 49.5t8.5 74.5q12 15 134.5 24.5t278.5 14.5q27 118 34 155t20 82q18 65 94 54.5t65 -77.5q-10 -66 -7 -90.5t-14 -120.5q105 1 191.5 -1t127.5 -7z"/>
   <glyph glyph-name="twosuperior" horiz-adv-x="620" unicode="²" d="M336 1178q-22 -27 -38 -29t-30 6q-14 6 -17 30t21 68q43 77 125 117.5t162 37.5q83 -4 131 -71t38 -154q-16 -114 -85 -172.5t-139 -115.5q-83 -67 -118 -109t7 -44q13 -1 101.5 -0.5t97.5 3.5q25 11 50 12.5t36 -14.5q14 -22 3 -48t-27 -51q-35 -52 -132 -49 q-76 2 -153 3.5t-153 1.5q-20 0 -40 4.5t-27 37.5q-6 30 18.5 76.5t102.5 117.5q54 49 111.5 93.5t113.5 91.5q35 30 62 67.5t30 91.5q1 30 -23 53.5t-67 25.5q-57 2 -95.5 -22.5t-65.5 -58.5z"/>
   <glyph glyph-name="threesuperior" horiz-adv-x="527" unicode="³" d="M437 1196q-52 0 -103 1t-102 11q-30 6 -36 62q-4 29 12.5 48t73.5 19q63 0 126.5 1.5t127.5 -0.5q57 -2 73 -24.5t15 -58.5q-3 -72 -39.5 -104t-78.5 -61q-14 -9 0 -15q133 -64 127 -135q-55 -223 -167.5 -302t-281.5 -106q-44 -6 -46 37q-1 41 38 51q105 26 184 81.5 t95 178.5q7 49 -34.5 68t-98.5 31q-30 6 -40 33t18 57q29 33 70.5 53t76.5 47q11 9 8 18t-18 9z"/>
   <glyph glyph-name="onesuperior" horiz-adv-x="379" unicode="¹" d="M252 1198q-87 -35 -112 29q-24 62 72 101q73 30 147 45q46 9 82.5 -5t32.5 -62q-13 -185 -56 -356.5t-75 -343.5q-10 -47 -30.5 -62t-46.5 -15q-64 0 -52 90q37 282 91 555q9 48 -53 24z"/>
   <glyph glyph-name="threequarters" horiz-adv-x="1205" unicode="¾" d="M356 1228q-52 0 -103 1t-102 11q-30 6 -36 62q-4 29 12.5 48t73.5 19q63 0 126.5 1.5t127.5 -0.5q57 -2 73 -24.5t15 -58.5q-3 -72 -39.5 -104t-78.5 -61q-14 -9 0 -15q133 -64 102 -212q-30 -146 -142.5 -225t-281.5 -106q-44 -6 -46 37q-1 41 38 51q105 26 184 81.5 t95 178.5q7 49 -34.5 68t-98.5 31q-30 6 -40 33t18 57q29 33 70.5 53t76.5 47q11 9 8 18t-18 9zM812 320q27 0 54 1t54 1q11 60 22 120.5t22 120.5q-47 -53 -90.5 -108t-80.5 -113q-14 -24 19 -22zM1054 326q8 0 26 1q60 3 62 -13q6 -53 -15 -77.5t-53 -28.5 q-12 -2 -24 -3.5t-23 -2.5q-18 -83 -35 -165q-8 -41 -28 -49t-46 -2q-56 15 -45 75q5 32 11 63.5t12 63.5q-51 -3 -102 -3.5t-100 5.5q-47 6 -63.5 43.5t9.5 76.5q88 132 187.5 257t202.5 247q12 15 30 12t32 -12q52 -38 41 -98q-17 -99 -37.5 -196t-41.5 -194zM335 168 q117 289 228 580.5t251 570.5q15 33 57.5 32.5t71.5 -23.5q41 -34 32 -92t-29 -112q-105 -272 -240.5 -527.5t-255.5 -516.5q-17 -37 -34.5 -38t-40.5 9q-76 32 -40 117z"/>
   <glyph glyph-name="onequarter" horiz-adv-x="1115" unicode="¼" d="M693 320q27 0 54 1t54 1q11 60 22 120.5t22 120.5q-47 -53 -90.5 -108t-80.5 -113q-14 -24 19 -22zM935 326q8 0 26 1q60 3 62 -13q6 -53 -15 -77.5t-53 -28.5q-12 -2 -24 -3.5t-23 -2.5q-18 -83 -35 -165q-8 -41 -28 -49t-46 -2q-56 15 -45 75q5 32 11 63.5t12 63.5 q-51 -3 -102 -3.5t-100 5.5q-47 6 -63.5 43.5t9.5 76.5q88 132 187.5 257t202.5 247q12 15 30 12t32 -12q52 -38 41 -98q-17 -99 -37.5 -196t-41.5 -194zM216 168q117 289 228 580.5t251 570.5q15 33 57.5 32.5t71.5 -23.5q41 -34 32 -92t-29 -112q-105 -272 -240.5 -527.5 t-255.5 -516.5q-17 -37 -34.5 -38t-40.5 9q-76 32 -40 117zM193 1190q-87 -35 -112 29q-24 62 72 101q73 30 147 45q46 9 82.5 -5t32.5 -62q-13 -185 -56 -356.5t-75 -343.5q-10 -47 -30.5 -62t-46.5 -15q-64 0 -52 90q37 282 91 555q9 48 -53 24z"/>
   <glyph glyph-name="onehalf" horiz-adv-x="1201" unicode="½" d="M216 168q117 289 228 580.5t251 570.5q15 33 57.5 32.5t71.5 -23.5q41 -34 32 -92t-29 -112q-105 -272 -240.5 -527.5t-255.5 -516.5q-17 -37 -34.5 -38t-40.5 9q-76 32 -40 117zM193 1190q-87 -35 -112 29q-24 62 72 101q73 30 147 45q46 9 82.5 -5t32.5 -62 q-13 -185 -56 -356.5t-75 -343.5q-10 -47 -30.5 -62t-46.5 -15q-64 0 -52 90q37 282 91 555q9 48 -53 24zM737 585q-22 -27 -38 -29t-30 6q-14 6 -17 30t21 68q43 77 125 117.5t162 37.5q83 -4 131 -71t38 -154q-16 -114 -85 -172.5t-139 -115.5q-83 -67 -118 -109t7 -44 q13 -1 101.5 -0.5t97.5 3.5q25 11 50 12.5t36 -14.5q14 -22 3 -48t-27 -51q-35 -52 -132 -49q-76 2 -153 3.5t-153 1.5q-20 0 -40 4.5t-27 37.5q-6 30 18.5 76.5t102.5 117.5q54 49 111.5 93.5t113.5 91.5q35 30 62 67.5t30 91.5q1 30 -23 53.5t-67 25.5q-57 2 -95.5 -22.5 t-65.5 -58.5z"/>
   <glyph glyph-name="ordmasculine" horiz-adv-x="763" unicode="º" d="M160.641 1026.01q0 121.662 98.3154 221.75q98.3154 100.089 207.803 107.162q85.6533 4.95117 158.272 -51.2822t67.4053 -162.334q-6.70312 -136.516 -76.7158 -225.993q-70.0117 -89.4785 -197.375 -108.576q-105.019 -14.8545 -181.361 53.0498 q-76.3438 67.9043 -76.3438 166.224zM317.052 1064.91q0.745117 -60.124 39.1025 -84.1738q38.3574 -24.0488 83.0469 -19.0977q101.294 10.6104 108.742 134.394q2.23438 43.1475 -25.6963 77.8076q-27.9307 34.6592 -88.2598 40.3184q-46.9238 3.53613 -83.0469 -34.6602 t-33.8887 -114.588z"/>
   <glyph glyph-name="ordfeminine" d="M553.051 948.771q-41.4316 -44.5049 -84.9004 -80.1787q-43.4688 -35.6748 -95.7666 -44.8574q-62.4863 -11.3027 -110.71 37.793q-48.2227 49.0967 -57.7314 122.564q-11.5459 88.3027 45.8457 181.196q57.3926 92.8945 161.989 155.767q69.957 42.3848 122.936 30.0225 q52.9766 -12.3623 73.3535 -46.2705q16.9795 -28.9629 57.7314 -24.0186q42.79 4.94531 55.3545 -28.6104q12.5654 -33.5547 -5.09375 -78.0586q-48.9023 -124.33 -23.0928 -156.473t89.6543 22.252q17.6592 14.835 30.2246 7.41797q12.5654 -7.41797 7.81055 -37.0879 q-30.5635 -175.898 -126.331 -179.077t-141.273 117.619zM506.186 1194.6q-71.9941 11.3027 -118.18 -76.999q-26.4893 -52.2754 -16.3008 -85.4775q10.1875 -33.2021 50.9395 -33.2021q75.3906 0.707031 111.389 78.4131q16.9805 36.0273 9.84863 74.1748 q-7.13184 38.1465 -37.6963 43.0908z" unicode="ª"/>
   <glyph glyph-name="periodcentered" horiz-adv-x="342" unicode="·" d="M100 587q7 71 45 117t92 42q90 -9 82 -183q-7 -147 -120 -145q-118 3 -99 169z"/>
   <glyph glyph-name="longs_longs_i" horiz-adv-x="1387" unicode="" d="M-17 -430q61 390 135.5 778.5t153.5 776.5q41 222 132 341.5t195 115.5q57 -3 75 -77q12 -47 61 -136q22 53 51 93q85 120 189 116q57 -3 78.5 -57t24.5 -111q4 -77 -24 -118t-64 -36q-15 2 -32 15.5t-42 58.5q-48 -69 -63.5 -260.5t-29.5 -372.5q-29 -299 -59 -597 t-53 -499q-11 -117 -133 -96t-108 159q38 292 91.5 680.5t111.5 776.5v3q-16 16 -41 43q-57 63 -106 167q-51 -69 -77 -260.5t-50 -372.5q-45 -299 -91 -597t-88 -597q-17 -117 -138 -96t-99 159zM960 703q37 95 155 38q66 -32 66 -70.5t-21 -90.5q-90 -219 -52.5 -260.5 t171.5 89.5q43 42 53 29t4 -64q-21 -159 -111 -252q-134 -134 -234 -59t-108 211q-5 66 15 194t62 235zM1114 929q-143 74 -91 224q31 89 108 74q74 -15 99.5 -80.5t25.5 -158.5q0 -84 -37 -90t-105 31z"/>
   <glyph glyph-name="longs_longs_l" horiz-adv-x="1434" unicode="" d="M1300 348q63 52 79.5 27.5t6.5 -101.5q-22 -151 -109 -205q-122 -77 -188 -52.5t-96 99t-34 173t1 169.5q8 157 43 371q23 136 60 299q-22 17 -48 54q-74 103 -99 148q-48 -69 -63.5 -260.5t-29.5 -372.5q-29 -299 -59 -597t-53 -499q-11 -117 -133 -96t-108 159 q38 292 91.5 680.5t111.5 776.5v3q-16 16 -41 43q-57 63 -106 167q-51 -69 -77 -260.5t-50 -372.5q-45 -299 -91 -597t-88 -597q-17 -117 -138 -96t-99 159q61 390 135.5 778.5t153.5 776.5q41 222 132 341.5t195 115.5q57 -3 75 -77q12 -47 61 -136q22 53 51 93 q85 120 189 116q57 -3 78.5 -57t24.5 -111q20 -59 29 -101l4 16q48 190 100.5 288.5t115.5 68.5q99 -48 81.5 -169.5t-56.5 -250.5q-73 -242 -131.5 -449.5t-82.5 -391.5q-16 -121 31 -132t131 59z"/>
   <glyph glyph-name="longs_j" horiz-adv-x="932" unicode="" d="M-19 -430q61 390 135.5 778.5t153.5 776.5q41 222 132 341.5t195 115.5q57 -3 75.5 -57t18.5 -111q0 -77 -30.5 -118t-66.5 -36q-15 2 -31 15.5t-39 58.5q-51 -69 -77 -260.5t-50 -372.5q-45 -299 -91 -597t-88 -597q-17 -117 -138 -96t-99 159zM751 912q-40 -8 -87 39.5 t-50 110.5q-3 51 15.5 97.5t81.5 52.5q58 5 97 -37t44 -94q13 -148 -101 -169zM466 425q-5 21 0 77t66 148q59 90 106.5 104t98.5 -16q96 -58 113.5 -150t5.5 -200q-26 -222 -74 -439t-107 -435q-34 -125 -70.5 -176.5t-75.5 -79.5q-63 -44 -92 -8t33 246q40 139 66 282.5 t49 286.5q9 60 17.5 120t17.5 120q23 208 -78 46q-35 -60 -50.5 -14t-25.5 88z"/>
   <glyph glyph-name="longs_k" horiz-adv-x="1270" unicode="" d="M472 38q-39 39 -36.5 86.5t31.5 131.5q97 286 149 633q20 133 40 269q-18 12 -59 65q-50 66 -73 111q-51 -69 -77 -260.5t-50 -372.5q-45 -299 -91 -597t-88 -597q-17 -117 -138 -96t-99 159q61 390 135.5 778.5t153.5 776.5q41 222 132 341.5t195 115.5q57 -3 75 -57 q8 -23 25 -66l18 140q5 39 26 78.5t73 24.5q210 -67 102 -445q-54 -191 -101 -384t-92 -386q-6 -26 7.5 -38t28.5 9q148 201 238 245.5t159 3.5q48 -29 43 -66.5t-37 -61.5q-63 -46 -134.5 -87.5t-102.5 -113.5q41 -60 98 -99t122 -12q66 27 70 3.5t-3 -47.5 q-50 -172 -102.5 -212.5t-115.5 15.5q-34 29 -65.5 61t-62.5 64q-29 30 -78 44.5t-121 -96.5q-63 -95 -94 -113.5t-101 52.5z"/>
   <glyph glyph-name="longs_s" horiz-adv-x="1110" unicode="" d="M-28 -430q61 390 135.5 778.5t153.5 776.5q41 222 132 341.5t195 115.5q57 -3 75.5 -57t18.5 -111q0 -77 -30.5 -118t-66.5 -36q-15 2 -31 15.5t-39 58.5q-51 -69 -77 -260.5t-50 -372.5l-56 -372q75 -18 274 -75q165 -40 174.5 8.5t-148.5 76.5q-118 21 -166.5 134.5 t120.5 230.5q101 70 204 87.5t181 -0.5q41 -10 49.5 -44t-7.5 -64q-34 -63 -88 -68.5t-110 -4.5q-111 2 -126.5 -28t53.5 -48q147 -40 229 -88.5t54 -152.5q-48 -174 -171.5 -234.5t-210.5 -32.5q-60 19 -134 35q-75 36 -203 102q-5 -29 -9 -59q-46 -298 -88 -597 q-17 -117 -138 -96t-99 159z"/>
   <glyph glyph-name="longs_longs_k" horiz-adv-x="1681" unicode="" d="M874 100q-39 39 -36.5 86.5t31.5 131.5q97 286 149 633q16 101 31 204q-18 10 -63 65q-54 65 -79 110q-48 -69 -63.5 -260.5t-29.5 -372.5q-29 -299 -59 -597t-53 -499q-11 -117 -133 -96t-108 159q38 292 91.5 680.5t111.5 776.5v3q-16 16 -41 43q-57 63 -106 167 q-51 -69 -77 -260.5t-50 -372.5q-45 -299 -91 -597t-88 -597q-17 -117 -138 -96t-99 159q61 390 135.5 778.5t153.5 776.5q41 222 132 341.5t195 115.5q57 -3 75 -77q12 -47 61 -136q22 53 51 93q85 120 189 116q57 -3 115 -109q5 -8 9 -15q14 103 27 207q5 39 26 78.5 t73 24.5q210 -67 102 -445q-54 -191 -101 -384t-92 -386q-6 -26 7.5 -38t28.5 9q148 201 238 245.5t159 3.5q48 -29 43 -66.5t-37 -61.5q-63 -46 -134.5 -87.5t-102.5 -113.5q41 -60 98 -99t122 -12q66 27 70 3.5t-3 -47.5q-50 -172 -102.5 -212.5t-115.5 15.5 q-34 29 -65.5 61t-62.5 64q-29 30 -78 44.5t-121 -96.5q-63 -95 -94 -113.5t-101 52.5z"/>
   <glyph glyph-name="longs_longs_t" horiz-adv-x="1499" unicode="" d="M978 666q-173 152 12 185q18 3 33 6q12 48 23 97t23 98q34 182 15 222q-78 133 -172 56q-48 -69 -63.5 -260.5t-29.5 -372.5q-29 -299 -59 -597t-53 -499q-11 -117 -133 -96t-108 159q38 292 91.5 680.5t111.5 776.5v3l2 74q-36 198 -149 136q-51 -69 -77 -260.5 t-50 -372.5q-45 -299 -91 -597t-88 -597q-17 -117 -138 -96t-99 159q61 390 135.5 778.5t153.5 776.5q41 222 132 341.5t195 115.5q57 -3 102.5 -49.5t58 -84.5t26.5 14q85 120 243 124q99 -18 173.5 -111.5t83 -174.5t5 -158.5t-13.5 -113.5q-13 -47 -28 -113q90 28 147 57 q110 52 70 -75q-24 -77 -93.5 -126.5t-169.5 -82.5q-15 -83 -23 -134q-64 -387 137 -149l1 -1q2 0 3 1q62 79 114 100.5t35 -68.5q-25 -127 -81.5 -209.5t-119.5 -145.5q-86 -84 -145 -74t-95 47q-77 77 -92.5 223t42.5 378z"/>
   <glyph glyph-name="braceleft" horiz-adv-x="822" unicode="{" d="M709 1597q46 50 75 9t-1 -86q-311 -257 -311 -531q-54 -277 -227 -413q173 -95 129 -414q-29 -194 36 -259q160 -102 129.5 -156.5t-51.5 -73.5q-59 -49 -240 100q-115 169 -68 400q6 317 -58 331t-58 47q170 161 183 450q37 308 462 596z"/>
   <glyph glyph-name="braceright" horiz-adv-x="822" unicode="}" d="M162 -326q-46 -50 -75 -9t1 86q311 257 311 531q54 277 227 413q-173 95 -129 414q29 194 -36 259q-160 102 -129.5 156.5t51.5 73.5q59 49 240 -100q115 -169 68 -400q-6 -317 58 -331t58 -47q-170 -161 -183 -450q-37 -308 -462 -596z"/>
   <glyph glyph-name="currency" horiz-adv-x="986" unicode="¤" d="M129 986q8 92 60 140.5t113 48.5q56 0 66 -67.5t56 -55.5q50 26 120 31q63 4 122 -19q32 1 66.5 65.5t95.5 64.5q56 0 82 -38.5t25 -78.5q-5 -108 -56 -122q-48 -24 -42 -73q12 -46 10 -101q-6 -134 -54 -236q-9 -55 43 -63q42 -12 41 -52q-5 -108 -62 -164.5t-115 -56.5 q-39 0 -49 61q-9 89 -55 72q-53 -24 -117 -34q-78 -12 -144 12q-37 15 -69 -60q-34 -70 -92 -70q-39 0 -73.5 45.5t-29.5 103.5q10 84 56 96q45 13 27 64q-21 55 -21 119q0 121 65 227q20 44 -36 68q-38 15 -33 73zM343 673q1 -85 52.5 -119t111.5 -27q136 15 146 190 q3 61 -34.5 110t-118.5 57q-63 5 -111.5 -49t-45.5 -162z"/>
   <glyph glyph-name="copyright" horiz-adv-x="1547" unicode="©" d="M780 1359q137 0 256 -50.5t218 -149.5q98 -100 147 -220t49 -261q0 -139 -49 -258.5t-147 -219.5q-99 -99 -218 -149.5t-256 -50.5q-138 0 -257 50.5t-218 149.5q-98 100 -147 219.5t-49 258.5q0 141 49 261t147 220q99 99 218 149.5t257 50.5zM780 1265 q-119 0 -221.5 -43t-186.5 -129q-86 -86 -129 -191t-43 -224q0 -118 43 -222t129 -190q84 -86 186.5 -129.5t221.5 -43.5t222 43.5t187 129.5q85 85 127 188.5t42 223.5q0 122 -42.5 226t-126.5 189q-84 86 -187 129t-222 43zM1051 1041v-119q-61 31 -119.5 45.5 t-118.5 14.5q-135 0 -211 -80t-76 -224q0 -145 77.5 -225t218.5 -80q59 0 113.5 14.5t115.5 45.5v-116q-62 -27 -123.5 -40t-125.5 -13q-195 0 -308.5 112t-113.5 302q0 191 113.5 302t308.5 111q67 0 128 -13t121 -37z"/>
   <glyph glyph-name="registered" horiz-adv-x="943" unicode="®" d="M449 1429q-70 0 -130 -25t-110 -76t-75.5 -113t-25.5 -132q0 -69 25.5 -130.5t75.5 -112.5t110 -76.5t130 -25.5q69 0 129.5 25.5t110.5 76.5q49 50 74 111t25 132q0 72 -25 133.5t-74 111.5q-50 51 -110.5 76t-129.5 25zM449 1485q80 0 150 -29.5t128 -88.5 q57 -59 86 -130t29 -154q0 -82 -29 -152.5t-86 -129.5q-58 -59 -128 -88.5t-150 -29.5q-81 0 -151 29.5t-128 88.5t-86.5 129.5t-28.5 152.5q0 83 28.5 154t86.5 130t128 88.5t151 29.5zM434 1261h-65v-149h65q58 0 81.5 17t23.5 57q0 41 -23.5 58t-81.5 17zM438 1317 q93 0 139.5 -32t46.5 -98q0 -46 -28 -76.5t-79 -39.5q12 -4 30 -25t43 -60l72 -120h-91l-69 112q-31 52 -50 66t-48 14h-35v-192h-83v451h152z"/>
   <glyph glyph-name="paragraph" horiz-adv-x="1172" unicode="¶" d="M570 1493h403v-1690h-127v1567h-171v-1567h-128v846q-193 17 -299 127.5t-106 294.5q0 190 117 306t311 116z"/>
   <glyph glyph-name="brokenbar" horiz-adv-x="621" unicode="¦" d="M387 408v-758h-153v758h153zM387 1432v-758h-153v758h153z"/>
   <glyph glyph-name="dagger" horiz-adv-x="921" unicode="†" d="M382 1493h158v-420h330v-153h-330v-1117h-158v1117h-331v153h331v420z"/>
   <glyph glyph-name="daggerdbl" horiz-adv-x="921" unicode="‡" d="M870 223h-330v-420h-158v420h-331v154h331v543h-331v153h331v420h158v-420h330v-153h-330v-543h330v-154z"/>
   <glyph glyph-name="bar" horiz-adv-x="621" unicode="|" d="M387 1565v-2048h-153v2048h153z"/>
   <glyph glyph-name="roundr" horiz-adv-x="2906" unicode="ꝛ" d="M1677 72l-28 7l-14 6l-23 -10l-52 7l-113 -7l-121 -3l-43 10l-38 11v9q-40 -17 -96 -17l-112 -3h-44q-5 0 -15 1.5t-31 1.5h-68h-74l-21 -3h-17h-14l-9 -10q-14 -3 -35.5 -3h-50.5h-17h-20l-21 -2h-19h-23l-65 -3h-35l-33 3q-2 0 -6.5 1t-15.5 1h-22l-79 -5q-5 0 -11 -3 h-11h-17h-35h-5l-14 3h-17h-10h-8l-39 -3l-41 -3l-35 9q-14 5 -14 32l3 33q57 21 166 35q55 6 92 10t59 10q44 5 70 15l37 3h32l77 11q51 14 74 25q29 27 29 41l-8 49v54q0 124 60 215q17 26 36 50.5t41 46.5q22 23 49.5 49t62.5 58q11 11 19 14q24 16 27 30l14 13 q11 11 11 25l9 27l2 8l9 9l8 2l90 52l68 39l9 16v11l-3 8l14 35q15 14 18 28l14 41q25 74 46 94l9 21l13 22l24 43l34 52l19 6q13 -9 13 -21l-3 -6v-8l6 -14l3 -9l8 17q8 20 8 35l17 -7l6 -48l3 -54l-3 -38l15 -11l17 -8l14 -6l35 -15l22 -9v-8h9l5 -17l16 -38l5 -14 q11 -17 31 -28l3 -10l3 -14v-19q0 -38 -12 -60v-9l-5 -15l-9 -6q-37 -14 -74 -14l-98 -2l-5 -63l-6 -44v-19l3 -14v-16l3 -39l-3 -57l-8 -63l-19 -78v-28l44 -9l49 -11q17 0 40 -10l39 -11l49 -17l9 -66l-17 -26l-77 10l-60 36l-84 6l-8 -163l40 -29l3 -31h6l37 -3l61 -7 q14 -5 30.5 -9.5t31.5 -9.5l9 -34l11 -15l17 -17l8 3h13l39 -6l38 -2q3 14 17 37l8 3l29 74l6 14l52 3l39 8q38 12 38 41l-28 31l-33 46l-180 14l6 49v78l2 105v101l3 85l3 73l29 143q20 74 60 166l52 98l60 94l9 19l5 16l37 -3l106 -32q84 -38 132 -38l-9 -39 q-8 -27 -8 -44l74 -40l89 -55l140 -88l98 -66l158 -109l53 -35l41 -19l-14 -83l-29 -115l-23 -74l-17 -81q-11 -54 -11 -128l-155 -3l-8 -11l-41 -14l-31 -24q-24 -17 -40 -28l11 -41q17 -25 19 -28l82 -5l2 -24l6 -11q38 0 63 1t41 4l14 -5q22 -9 27 -23l-2 -32 q-6 -8 -11.5 -13.5l-8.5 -8.5l-40 -16q-48 -14 -55 -19q-134 -17 -295 -17l-260 8l-329 28zM1256 145q27 17 27 33l-14 30l-10 31l-5 40v38l-3 34q-11 11 -14 22l-3 40l-3 3q-11 21 -26 21l-9 3q6 -15 12 -29t9 -28q9 -32 9 -58l-6 -32l-8 -25q-16 -27 -44 -35l-3 -11h-8 l11 -11h9l8 2q17 -2 32 -16l17 -21q8 -9 14 -20zM1807 82q181 -18 283 -18l92 -6h31l118 3l106 8l8 6l-19 7q-6 3 -35 3q-48 8 -97 8l-46 6h-22h-58l-130 3q-85 0 -154 -9q-63 -3 -77 -11zM2609 116v8h-38l3 -22zM119 93l46 3q58 0 93 -14q14 3 34 4.5t45 1.5q20 5 33.5 3.5 t26.5 -1.5h72q8 3 54 3h55l32 6l63 3l20 -3l40 -6l31 14l210 3h19l140 6v37h16q0 -8 5 -21l9 -16l5 -6h28l6 8q21 0 29 14l-5 21l-6 20q-8 14 -24 24l-54 5q-9 6 -26 6l-35 -6l-27 -5v5l46 23l39 22q26 13 43 29q30 28 30 66q0 23 -16 66q-33 38 -63 54q-14 14 -33 20 q-16 8 -32 8l5 10q35 0 76 -24l19 129l9 -3v-22v-90v-14l5 -8l6 -11l71 -3l95 -8l49 -6l37 -7l23 -3l9 -5h11v-6h14l-6 -6l27 -8q14 -11 28 -11q5 0 13 -1.5t22 -1.5q-6 11 -6 28l-5 29l-44 14l-40 17l-31 6q-27 12 -60 18l-49 14l-35 11l5 17l24 66l9 23l14 20q32 49 32 95 l-9 69q-7 14 -7 40l-2 28q0 41 21 74l151 9l26 21v11h-5l2 11v9l12 15v8l2 6l-5 25v8l-41 38l-3 -17l-13 -5l-52 19l-25 20l85 27l-8 22l-77 35l-10 -13l-31 38l-11 38l-21 -3v-66h-6q-8 17 -8 40v95l-23 -33l-125 -240l-10 -66l-162 -99l-55 -90l-35 -32 q-134 -94 -194.5 -207t-60.5 -233l9 -89l-31 -40q-57 -14 -136 -27.5t-180 -27.5l-154 -25l-123 -24v-14l6 -8l5 -3h28zM1472 102h74h11l3 2v23l-9 5l-82 13l-20 31l-51 -3l-38 -6h-49l-31 -43l-5 -17l51 -14zM1925 124h82l80 -3l196 -5l137 -6h55h54l-35 66l-361 21 l-335 11l-12 -24l-14 -20l-16 -32zM1357 190l22 12l7 6l-7 19l-42 17q6 13 6 24l3 34v123l-11 -3l-76 3q-3 0 -3 -3v-9v-11l10 -43l14 -57q20 -58 20 -83l5 -8v-9l14 -3l7 -12zM1910 236q109 -23 193 -23h82l74 -2h144l-21 46l-103 14l-358 5zM1921 323l57 -16q18 -3 41 -4 t54 -1h17l141 -3l184 -3l48 52l-21 3l-214 16l-155 3l-112 -3l-93 -8l8 -22zM2480 385l189 -12l43 196l28 137l30 109l-144 94l-195 127l-140 88l-109 69l-49 32l-205 -809l91 -3l149 -5l48 -3l46 -8zM1887 380l74 254q35 115 61 206.5t43 160.5l38 158q5 25 10.5 59.5 t11.5 77.5q-6 8 -32 17l-74 26l-63 23l-35 14l-28 -23q-41 -146 -72.5 -269.5t-53.5 -222.5q-14 -57 -24.5 -110.5t-21.5 -104.5q-9 -49 -18.5 -105t-18.5 -119v-17zM1343 528l20 -3v86h-9l-19 -69zM1684 602l157 665q-20 -20 -41 -53l-36 -76q-29 -60 -49 -162l-17 -98 l-8 -90l-3 -105zM2079 872q17 -5 35 -5h19l-30 -118l-49 9zM2093 769l18 82l-24 10l-22 -87zM2098 938q24 63 24 91l34 -3l24 -3h5l-40 -123l-55 9zM2119 921l14 -3l14 45l9 35l3 11l-23 6l-25 -88zM1526 1118l6 14v6l-6 11l-60 -11z"/>
   </font>
</defs>
</svg>
